%TF.GenerationSoftware,KiCad,Pcbnew,9.0.5*%
%TF.CreationDate,2026-03-13T19:42:31+01:00*%
%TF.ProjectId,Doigts,446f6967-7473-42e6-9b69-6361645f7063,1.0*%
%TF.SameCoordinates,Original*%
%TF.FileFunction,Copper,L2,Bot*%
%TF.FilePolarity,Positive*%
%FSLAX45Y45*%
G04 Gerber Fmt 4.5, Leading zero omitted, Abs format (unit mm)*
G04 Created by KiCad (PCBNEW 9.0.5) date 2026-03-13 19:42:31*
%MOMM*%
%LPD*%
G01*
G04 APERTURE LIST*
G04 Aperture macros list*
%AMRoundRect*
0 Rectangle with rounded corners*
0 $1 Rounding radius*
0 $2 $3 $4 $5 $6 $7 $8 $9 X,Y pos of 4 corners*
0 Add a 4 corners polygon primitive as box body*
4,1,4,$2,$3,$4,$5,$6,$7,$8,$9,$2,$3,0*
0 Add four circle primitives for the rounded corners*
1,1,$1+$1,$2,$3*
1,1,$1+$1,$4,$5*
1,1,$1+$1,$6,$7*
1,1,$1+$1,$8,$9*
0 Add four rect primitives between the rounded corners*
20,1,$1+$1,$2,$3,$4,$5,0*
20,1,$1+$1,$4,$5,$6,$7,0*
20,1,$1+$1,$6,$7,$8,$9,0*
20,1,$1+$1,$8,$9,$2,$3,0*%
G04 Aperture macros list end*
%TA.AperFunction,ComponentPad*%
%ADD10RoundRect,0.250000X0.600000X0.675000X-0.600000X0.675000X-0.600000X-0.675000X0.600000X-0.675000X0*%
%TD*%
%TA.AperFunction,ComponentPad*%
%ADD11O,1.700000X1.850000*%
%TD*%
%TA.AperFunction,ComponentPad*%
%ADD12R,1.700000X1.700000*%
%TD*%
%TA.AperFunction,ComponentPad*%
%ADD13C,1.700000*%
%TD*%
%TA.AperFunction,ViaPad*%
%ADD14C,0.600000*%
%TD*%
%TA.AperFunction,Conductor*%
%ADD15C,0.250000*%
%TD*%
G04 APERTURE END LIST*
D10*
%TO.P,J1,1,Pin_1*%
%TO.N,/SERVO_1*%
X4320000Y-4265000D03*
D11*
%TO.P,J1,2,Pin_2*%
%TO.N,+5VP*%
X4070000Y-4265000D03*
%TO.P,J1,3,Pin_3*%
%TO.N,GND*%
X3820000Y-4265000D03*
%TD*%
D10*
%TO.P,J2,1,Pin_1*%
%TO.N,/SERVO_2*%
X4320000Y-4925400D03*
D11*
%TO.P,J2,2,Pin_2*%
%TO.N,+5VP*%
X4070000Y-4925400D03*
%TO.P,J2,3,Pin_3*%
%TO.N,GND*%
X3820000Y-4925400D03*
%TD*%
D10*
%TO.P,J3,1,Pin_1*%
%TO.N,/SERVO_3*%
X4320000Y-5598500D03*
D11*
%TO.P,J3,2,Pin_2*%
%TO.N,+5VP*%
X4070000Y-5598500D03*
%TO.P,J3,3,Pin_3*%
%TO.N,GND*%
X3820000Y-5598500D03*
%TD*%
D12*
%TO.P,J4,1,Pin_1*%
%TO.N,unconnected-(J4-Pin_1-Pad1)*%
X6387000Y-5400000D03*
D13*
%TO.P,J4,2,Pin_2*%
%TO.N,GND*%
X6133000Y-5400000D03*
%TO.P,J4,3,Pin_3*%
%TO.N,+3.3V*%
X5879000Y-5400000D03*
%TO.P,J4,4,Pin_4*%
%TO.N,/SCL*%
X5625000Y-5400000D03*
%TO.P,J4,5,Pin_5*%
%TO.N,/SDA*%
X5371000Y-5400000D03*
%TO.P,J4,6,Pin_6*%
%TO.N,unconnected-(J4-Pin_6-Pad6)*%
X5117000Y-5400000D03*
%TO.P,J4,7,Pin_7*%
%TO.N,/LED*%
X4863000Y-5400000D03*
%TD*%
D14*
%TO.N,/SERVO_1*%
X4865000Y-4640000D03*
%TO.N,GND*%
X5515000Y-5140000D03*
X5003800Y-5257800D03*
X3905000Y-5375000D03*
X5461000Y-4927600D03*
X4540000Y-4220000D03*
X5235000Y-5140000D03*
X4940000Y-4125000D03*
X4851400Y-5588000D03*
X5485000Y-5625000D03*
X4270000Y-4115000D03*
X3905000Y-5185000D03*
X4625000Y-4630000D03*
X4673600Y-4851400D03*
X4465000Y-4735000D03*
X3905000Y-4700000D03*
X5900000Y-5050000D03*
X3905000Y-4510000D03*
X5260000Y-4840000D03*
X6121400Y-4368800D03*
X5257800Y-4572000D03*
X4790000Y-4550000D03*
X4267200Y-5257800D03*
X5994400Y-4216400D03*
X4940000Y-4225000D03*
X4560000Y-4110000D03*
X6620000Y-4900000D03*
X5765800Y-4216400D03*
X4800000Y-5020000D03*
X4520000Y-5260000D03*
X5245000Y-5285000D03*
X6500000Y-5040000D03*
X6620000Y-4680000D03*
X6080000Y-4580000D03*
X6620000Y-4300000D03*
X5308600Y-4648200D03*
X4255000Y-4440000D03*
%TD*%
D15*
%TO.N,/SERVO_1*%
X4760000Y-4640000D02*
X4385000Y-4265000D01*
X4865000Y-4640000D02*
X4760000Y-4640000D01*
X4385000Y-4265000D02*
X4320000Y-4265000D01*
%TD*%
%TA.AperFunction,Conductor*%
%TO.N,GND*%
G36*
X6875304Y-4075067D02*
G01*
X6905174Y-4076744D01*
X6906388Y-4076881D01*
X6910235Y-4077535D01*
X6935580Y-4081841D01*
X6936769Y-4082113D01*
X6965223Y-4090310D01*
X6966375Y-4090713D01*
X6993732Y-4102045D01*
X6994832Y-4102574D01*
X7020747Y-4116897D01*
X7021780Y-4117547D01*
X7045930Y-4134682D01*
X7046884Y-4135442D01*
X7054264Y-4142038D01*
X7068962Y-4155173D01*
X7069827Y-4156037D01*
X7077305Y-4164406D01*
X7089557Y-4178116D01*
X7090318Y-4179070D01*
X7103661Y-4197874D01*
X7107453Y-4203219D01*
X7108103Y-4204253D01*
X7111596Y-4210574D01*
X7122425Y-4230168D01*
X7122955Y-4231269D01*
X7134286Y-4258624D01*
X7134690Y-4259778D01*
X7142887Y-4288230D01*
X7143159Y-4289421D01*
X7148118Y-4318612D01*
X7148255Y-4319826D01*
X7149933Y-4349696D01*
X7149950Y-4350307D01*
X7149950Y-5649693D01*
X7149933Y-5650304D01*
X7148255Y-5680174D01*
X7148118Y-5681388D01*
X7143159Y-5710578D01*
X7142887Y-5711770D01*
X7134690Y-5740222D01*
X7134286Y-5741375D01*
X7122956Y-5768731D01*
X7122425Y-5769832D01*
X7108103Y-5795746D01*
X7107453Y-5796781D01*
X7090319Y-5820928D01*
X7089557Y-5821884D01*
X7069827Y-5843962D01*
X7068963Y-5844826D01*
X7046885Y-5864556D01*
X7045930Y-5865318D01*
X7021782Y-5882452D01*
X7020747Y-5883102D01*
X6994833Y-5897425D01*
X6993732Y-5897955D01*
X6966377Y-5909286D01*
X6965223Y-5909690D01*
X6936771Y-5917887D01*
X6935580Y-5918159D01*
X6906389Y-5923118D01*
X6905174Y-5923255D01*
X6875308Y-5924933D01*
X6874696Y-5924950D01*
X3125307Y-5924950D01*
X3124695Y-5924933D01*
X3094826Y-5923255D01*
X3093611Y-5923118D01*
X3064421Y-5918159D01*
X3063230Y-5917887D01*
X3034778Y-5909690D01*
X3033624Y-5909286D01*
X3006269Y-5897956D01*
X3005168Y-5897425D01*
X2979254Y-5883103D01*
X2978219Y-5882453D01*
X2954070Y-5865318D01*
X2953116Y-5864558D01*
X2941235Y-5853940D01*
X2931038Y-5844827D01*
X2930173Y-5843963D01*
X2910443Y-5821885D01*
X2909681Y-5820929D01*
X2892548Y-5796782D01*
X2891897Y-5795747D01*
X2878924Y-5772274D01*
X2877575Y-5769832D01*
X2877045Y-5768731D01*
X2877044Y-5768731D01*
X2865713Y-5741375D01*
X2865310Y-5740222D01*
X2864878Y-5738723D01*
X2857113Y-5711770D01*
X2856841Y-5710580D01*
X2851881Y-5681387D01*
X2851744Y-5680174D01*
X2850067Y-5650308D01*
X2850050Y-5649697D01*
X2850050Y-5637871D01*
X2939950Y-5637871D01*
X2939950Y-5662129D01*
X2940779Y-5668425D01*
X2943116Y-5686179D01*
X2945197Y-5693946D01*
X2949395Y-5709610D01*
X2958678Y-5732021D01*
X2964078Y-5741375D01*
X2970807Y-5753029D01*
X2983700Y-5769833D01*
X2985573Y-5772274D01*
X3002726Y-5789426D01*
X3021971Y-5804194D01*
X3042979Y-5816322D01*
X3065390Y-5825605D01*
X3088821Y-5831884D01*
X3112871Y-5835050D01*
X3112872Y-5835050D01*
X3137128Y-5835050D01*
X3137129Y-5835050D01*
X3161179Y-5831884D01*
X3184610Y-5825605D01*
X3207021Y-5816322D01*
X3228029Y-5804194D01*
X3247274Y-5789426D01*
X3264426Y-5772274D01*
X3279194Y-5753029D01*
X3291322Y-5732021D01*
X3300605Y-5709610D01*
X3306884Y-5686179D01*
X3310050Y-5662129D01*
X3310050Y-5637871D01*
X3306884Y-5613821D01*
X3300605Y-5590390D01*
X3293609Y-5573500D01*
X3686089Y-5573500D01*
X3785359Y-5573500D01*
X3780396Y-5582096D01*
X3777500Y-5592905D01*
X3777500Y-5604095D01*
X3780396Y-5614904D01*
X3785359Y-5623500D01*
X3686089Y-5623500D01*
X3688324Y-5637613D01*
X3694890Y-5657821D01*
X3704538Y-5676756D01*
X3717027Y-5693946D01*
X3717027Y-5693946D01*
X3732054Y-5708972D01*
X3732054Y-5708973D01*
X3749244Y-5721462D01*
X3768178Y-5731109D01*
X3788387Y-5737676D01*
X3788387Y-5737676D01*
X3795000Y-5738723D01*
X3795000Y-5633141D01*
X3803596Y-5638104D01*
X3814405Y-5641000D01*
X3825595Y-5641000D01*
X3836404Y-5638104D01*
X3845000Y-5633141D01*
X3845000Y-5738723D01*
X3851613Y-5737676D01*
X3871821Y-5731109D01*
X3890756Y-5721462D01*
X3907946Y-5708973D01*
X3907946Y-5708972D01*
X3922972Y-5693946D01*
X3922973Y-5693946D01*
X3935462Y-5676756D01*
X3945110Y-5657821D01*
X3950332Y-5641747D01*
X3954292Y-5636297D01*
X3960699Y-5634216D01*
X3967106Y-5636297D01*
X3970769Y-5640944D01*
X3976906Y-5655760D01*
X3976906Y-5655760D01*
X3985369Y-5668426D01*
X3988402Y-5672965D01*
X4003034Y-5687598D01*
X4011637Y-5693346D01*
X4020240Y-5699094D01*
X4020240Y-5699094D01*
X4029799Y-5703053D01*
X4039358Y-5707013D01*
X4059653Y-5711050D01*
X4059654Y-5711050D01*
X4080346Y-5711050D01*
X4080346Y-5711050D01*
X4100642Y-5707013D01*
X4115429Y-5700888D01*
X4119759Y-5699094D01*
X4119759Y-5699094D01*
X4119760Y-5699094D01*
X4136965Y-5687598D01*
X4151598Y-5672965D01*
X4163094Y-5655760D01*
X4171013Y-5636642D01*
X4175050Y-5616346D01*
X4175050Y-5580654D01*
X4171013Y-5560358D01*
X4167053Y-5550799D01*
X4163094Y-5541241D01*
X4163094Y-5541240D01*
X4156502Y-5531374D01*
X4154064Y-5527726D01*
X4152626Y-5525573D01*
X4214950Y-5525573D01*
X4214950Y-5671427D01*
X4215235Y-5674470D01*
X4215235Y-5674470D01*
X4219721Y-5687288D01*
X4219721Y-5687289D01*
X4227785Y-5698215D01*
X4227785Y-5698215D01*
X4238711Y-5706279D01*
X4238712Y-5706279D01*
X4238712Y-5706279D01*
X4251530Y-5710765D01*
X4253559Y-5710955D01*
X4254573Y-5711050D01*
X4254573Y-5711050D01*
X4385427Y-5711050D01*
X4386187Y-5710979D01*
X4388470Y-5710765D01*
X4401288Y-5706279D01*
X4412215Y-5698215D01*
X4420279Y-5687288D01*
X4424765Y-5674470D01*
X4425050Y-5671427D01*
X4425050Y-5637871D01*
X6689950Y-5637871D01*
X6689950Y-5662129D01*
X6690779Y-5668425D01*
X6693116Y-5686179D01*
X6695197Y-5693946D01*
X6699395Y-5709610D01*
X6708678Y-5732021D01*
X6714078Y-5741375D01*
X6720807Y-5753029D01*
X6733700Y-5769833D01*
X6735573Y-5772274D01*
X6752726Y-5789426D01*
X6771971Y-5804194D01*
X6792979Y-5816322D01*
X6815390Y-5825605D01*
X6838821Y-5831884D01*
X6862871Y-5835050D01*
X6862872Y-5835050D01*
X6887128Y-5835050D01*
X6887129Y-5835050D01*
X6911179Y-5831884D01*
X6934610Y-5825605D01*
X6957021Y-5816322D01*
X6978029Y-5804194D01*
X6997274Y-5789426D01*
X7014426Y-5772274D01*
X7029194Y-5753029D01*
X7041322Y-5732021D01*
X7050605Y-5709610D01*
X7056884Y-5686179D01*
X7060050Y-5662129D01*
X7060050Y-5637871D01*
X7056884Y-5613821D01*
X7050605Y-5590390D01*
X7041322Y-5567979D01*
X7029194Y-5546971D01*
X7014426Y-5527726D01*
X6997274Y-5510574D01*
X6997273Y-5510573D01*
X6997273Y-5510573D01*
X6978029Y-5495807D01*
X6973331Y-5493094D01*
X6957021Y-5483678D01*
X6934610Y-5474395D01*
X6921030Y-5470756D01*
X6911179Y-5468116D01*
X6900747Y-5466743D01*
X6887129Y-5464950D01*
X6862871Y-5464950D01*
X6850427Y-5466588D01*
X6838821Y-5468116D01*
X6815390Y-5474395D01*
X6815389Y-5474395D01*
X6792979Y-5483678D01*
X6792978Y-5483678D01*
X6771971Y-5495807D01*
X6752727Y-5510573D01*
X6735573Y-5527727D01*
X6720807Y-5546971D01*
X6708678Y-5567978D01*
X6708678Y-5567979D01*
X6699395Y-5590389D01*
X6699395Y-5590390D01*
X6693116Y-5613821D01*
X6691698Y-5624596D01*
X6689950Y-5637871D01*
X4425050Y-5637871D01*
X4425050Y-5525573D01*
X4424765Y-5522530D01*
X4420279Y-5509712D01*
X4420051Y-5509402D01*
X4412215Y-5498785D01*
X4412215Y-5498785D01*
X4401289Y-5490721D01*
X4401288Y-5490721D01*
X4388470Y-5486235D01*
X4388470Y-5486235D01*
X4385427Y-5485950D01*
X4385427Y-5485950D01*
X4254573Y-5485950D01*
X4254573Y-5485950D01*
X4251530Y-5486235D01*
X4251530Y-5486235D01*
X4238712Y-5490721D01*
X4238711Y-5490721D01*
X4227785Y-5498785D01*
X4227785Y-5498785D01*
X4219721Y-5509711D01*
X4219721Y-5509712D01*
X4215235Y-5522530D01*
X4215235Y-5522530D01*
X4214950Y-5525573D01*
X4152626Y-5525573D01*
X4151598Y-5524035D01*
X4136965Y-5509402D01*
X4128711Y-5503887D01*
X4119760Y-5497906D01*
X4119759Y-5497906D01*
X4100642Y-5489987D01*
X4100642Y-5489987D01*
X4100642Y-5489987D01*
X4080346Y-5485950D01*
X4059653Y-5485950D01*
X4039358Y-5489987D01*
X4039358Y-5489987D01*
X4020240Y-5497906D01*
X4020240Y-5497906D01*
X4003035Y-5509402D01*
X3988402Y-5524035D01*
X3976906Y-5541240D01*
X3976906Y-5541240D01*
X3970769Y-5556056D01*
X3966394Y-5561178D01*
X3959843Y-5562751D01*
X3953620Y-5560173D01*
X3950332Y-5555253D01*
X3945109Y-5539178D01*
X3935462Y-5520244D01*
X3922973Y-5503054D01*
X3922972Y-5503054D01*
X3907946Y-5488028D01*
X3907946Y-5488027D01*
X3890756Y-5475538D01*
X3871821Y-5465890D01*
X3851613Y-5459324D01*
X3845000Y-5458277D01*
X3845000Y-5563859D01*
X3836404Y-5558896D01*
X3825595Y-5556000D01*
X3814405Y-5556000D01*
X3803596Y-5558896D01*
X3795000Y-5563859D01*
X3795000Y-5458277D01*
X3788387Y-5459324D01*
X3768178Y-5465890D01*
X3749244Y-5475538D01*
X3732054Y-5488027D01*
X3732054Y-5488028D01*
X3717027Y-5503054D01*
X3717027Y-5503054D01*
X3704538Y-5520244D01*
X3694890Y-5539178D01*
X3688324Y-5559387D01*
X3686089Y-5573500D01*
X3293609Y-5573500D01*
X3291322Y-5567979D01*
X3279194Y-5546971D01*
X3264426Y-5527726D01*
X3247274Y-5510574D01*
X3247273Y-5510573D01*
X3247273Y-5510573D01*
X3228029Y-5495807D01*
X3223331Y-5493094D01*
X3207021Y-5483678D01*
X3184610Y-5474395D01*
X3171030Y-5470756D01*
X3161179Y-5468116D01*
X3150747Y-5466743D01*
X3137129Y-5464950D01*
X3112871Y-5464950D01*
X3100427Y-5466588D01*
X3088821Y-5468116D01*
X3065390Y-5474395D01*
X3065389Y-5474395D01*
X3042979Y-5483678D01*
X3042978Y-5483678D01*
X3021971Y-5495807D01*
X3002727Y-5510573D01*
X2985573Y-5527727D01*
X2970807Y-5546971D01*
X2958678Y-5567978D01*
X2958678Y-5567979D01*
X2949395Y-5590389D01*
X2949395Y-5590390D01*
X2943116Y-5613821D01*
X2941698Y-5624596D01*
X2939950Y-5637871D01*
X2850050Y-5637871D01*
X2850050Y-5389654D01*
X4757950Y-5389654D01*
X4757950Y-5410347D01*
X4761987Y-5430642D01*
X4762389Y-5431613D01*
X4769906Y-5449759D01*
X4769906Y-5449760D01*
X4775597Y-5458277D01*
X4781402Y-5466966D01*
X4796035Y-5481598D01*
X4799147Y-5483678D01*
X4813240Y-5493094D01*
X4813241Y-5493094D01*
X4819788Y-5495806D01*
X4832358Y-5501013D01*
X4852654Y-5505050D01*
X4852654Y-5505050D01*
X4873346Y-5505050D01*
X4873347Y-5505050D01*
X4893642Y-5501013D01*
X4908429Y-5494888D01*
X4912759Y-5493094D01*
X4912760Y-5493094D01*
X4912760Y-5493094D01*
X4929966Y-5481598D01*
X4944598Y-5466966D01*
X4956094Y-5449760D01*
X4957406Y-5446593D01*
X4958521Y-5443900D01*
X4964013Y-5430642D01*
X4968050Y-5410347D01*
X4968050Y-5389654D01*
X5011950Y-5389654D01*
X5011950Y-5410347D01*
X5015987Y-5430642D01*
X5016389Y-5431613D01*
X5023906Y-5449759D01*
X5023906Y-5449760D01*
X5029597Y-5458277D01*
X5035402Y-5466966D01*
X5050035Y-5481598D01*
X5053147Y-5483678D01*
X5067240Y-5493094D01*
X5067241Y-5493094D01*
X5073788Y-5495806D01*
X5086358Y-5501013D01*
X5106654Y-5505050D01*
X5106654Y-5505050D01*
X5127346Y-5505050D01*
X5127347Y-5505050D01*
X5147642Y-5501013D01*
X5162429Y-5494888D01*
X5166759Y-5493094D01*
X5166760Y-5493094D01*
X5166760Y-5493094D01*
X5183966Y-5481598D01*
X5198598Y-5466966D01*
X5210094Y-5449760D01*
X5211406Y-5446593D01*
X5212521Y-5443900D01*
X5218013Y-5430642D01*
X5222050Y-5410347D01*
X5222050Y-5389654D01*
X5265950Y-5389654D01*
X5265950Y-5410347D01*
X5269987Y-5430642D01*
X5270389Y-5431613D01*
X5277906Y-5449759D01*
X5277906Y-5449760D01*
X5283597Y-5458277D01*
X5289402Y-5466966D01*
X5304035Y-5481598D01*
X5307147Y-5483678D01*
X5321240Y-5493094D01*
X5321241Y-5493094D01*
X5327788Y-5495806D01*
X5340358Y-5501013D01*
X5360654Y-5505050D01*
X5360654Y-5505050D01*
X5381346Y-5505050D01*
X5381347Y-5505050D01*
X5401642Y-5501013D01*
X5416429Y-5494888D01*
X5420759Y-5493094D01*
X5420760Y-5493094D01*
X5420760Y-5493094D01*
X5437966Y-5481598D01*
X5452598Y-5466966D01*
X5464094Y-5449760D01*
X5465406Y-5446593D01*
X5466521Y-5443900D01*
X5472013Y-5430642D01*
X5476050Y-5410347D01*
X5476050Y-5389654D01*
X5519950Y-5389654D01*
X5519950Y-5410347D01*
X5523987Y-5430642D01*
X5524389Y-5431613D01*
X5531906Y-5449759D01*
X5531906Y-5449760D01*
X5537597Y-5458277D01*
X5543402Y-5466966D01*
X5558035Y-5481598D01*
X5561147Y-5483678D01*
X5575240Y-5493094D01*
X5575241Y-5493094D01*
X5581788Y-5495806D01*
X5594358Y-5501013D01*
X5614653Y-5505050D01*
X5614654Y-5505050D01*
X5635346Y-5505050D01*
X5635346Y-5505050D01*
X5655642Y-5501013D01*
X5670429Y-5494888D01*
X5674759Y-5493094D01*
X5674759Y-5493094D01*
X5674760Y-5493094D01*
X5691965Y-5481598D01*
X5706598Y-5466966D01*
X5718094Y-5449760D01*
X5719406Y-5446593D01*
X5720521Y-5443900D01*
X5726013Y-5430642D01*
X5730050Y-5410347D01*
X5730050Y-5389654D01*
X5773950Y-5389654D01*
X5773950Y-5410347D01*
X5777987Y-5430642D01*
X5778389Y-5431613D01*
X5785906Y-5449759D01*
X5785906Y-5449760D01*
X5791597Y-5458277D01*
X5797402Y-5466966D01*
X5812034Y-5481598D01*
X5815147Y-5483678D01*
X5829240Y-5493094D01*
X5829240Y-5493094D01*
X5835788Y-5495806D01*
X5848358Y-5501013D01*
X5868653Y-5505050D01*
X5868654Y-5505050D01*
X5889346Y-5505050D01*
X5889346Y-5505050D01*
X5909642Y-5501013D01*
X5928760Y-5493094D01*
X5945965Y-5481598D01*
X5960598Y-5466966D01*
X5972094Y-5449760D01*
X5973406Y-5446593D01*
X5974521Y-5443900D01*
X5980013Y-5430642D01*
X5980013Y-5430641D01*
X5980139Y-5430227D01*
X5983990Y-5424700D01*
X5990355Y-5422492D01*
X5996802Y-5424447D01*
X6000868Y-5429818D01*
X6001214Y-5431199D01*
X6001224Y-5431197D01*
X6001324Y-5431613D01*
X6007890Y-5451822D01*
X6017538Y-5470756D01*
X6021473Y-5476172D01*
X6084704Y-5412941D01*
X6086407Y-5419299D01*
X6092990Y-5430701D01*
X6102299Y-5440010D01*
X6113701Y-5446593D01*
X6120059Y-5448296D01*
X6056828Y-5511527D01*
X6062244Y-5515462D01*
X6081178Y-5525110D01*
X6101387Y-5531676D01*
X6122375Y-5535000D01*
X6143625Y-5535000D01*
X6164613Y-5531676D01*
X6184821Y-5525110D01*
X6203756Y-5515462D01*
X6209172Y-5511527D01*
X6145941Y-5448296D01*
X6152299Y-5446593D01*
X6163701Y-5440010D01*
X6173010Y-5430701D01*
X6179592Y-5419299D01*
X6181296Y-5412941D01*
X6244527Y-5476172D01*
X6248462Y-5470756D01*
X6258109Y-5451822D01*
X6260683Y-5443900D01*
X6264643Y-5438450D01*
X6271050Y-5436368D01*
X6277457Y-5438450D01*
X6281416Y-5443900D01*
X6281950Y-5447268D01*
X6281950Y-5486975D01*
X6282549Y-5489987D01*
X6283113Y-5492823D01*
X6287544Y-5499455D01*
X6287545Y-5499455D01*
X6294177Y-5503887D01*
X6294177Y-5503887D01*
X6300025Y-5505050D01*
X6300025Y-5505050D01*
X6473974Y-5505050D01*
X6473975Y-5505050D01*
X6479823Y-5503887D01*
X6486455Y-5499455D01*
X6490887Y-5492823D01*
X6492050Y-5486975D01*
X6492050Y-5313025D01*
X6490887Y-5307177D01*
X6490887Y-5307177D01*
X6486455Y-5300545D01*
X6486455Y-5300545D01*
X6479823Y-5296113D01*
X6478361Y-5295822D01*
X6473975Y-5294950D01*
X6300025Y-5294950D01*
X6296516Y-5295648D01*
X6294177Y-5296113D01*
X6287545Y-5300545D01*
X6287544Y-5300545D01*
X6283113Y-5307177D01*
X6283113Y-5307177D01*
X6281950Y-5313025D01*
X6281950Y-5313026D01*
X6281950Y-5352732D01*
X6279868Y-5359139D01*
X6274418Y-5363098D01*
X6267682Y-5363098D01*
X6262232Y-5359139D01*
X6260683Y-5356100D01*
X6258109Y-5348178D01*
X6248462Y-5329244D01*
X6244527Y-5323828D01*
X6181296Y-5387059D01*
X6179592Y-5380701D01*
X6173010Y-5369299D01*
X6163701Y-5359990D01*
X6152299Y-5353408D01*
X6145941Y-5351704D01*
X6209172Y-5288473D01*
X6203756Y-5284538D01*
X6184821Y-5274890D01*
X6164613Y-5268324D01*
X6143625Y-5265000D01*
X6122375Y-5265000D01*
X6101387Y-5268324D01*
X6081178Y-5274890D01*
X6062244Y-5284538D01*
X6056828Y-5288473D01*
X6120059Y-5351704D01*
X6113701Y-5353408D01*
X6102299Y-5359990D01*
X6092990Y-5369299D01*
X6086407Y-5380701D01*
X6084704Y-5387059D01*
X6021473Y-5323828D01*
X6017538Y-5329244D01*
X6007890Y-5348178D01*
X6001324Y-5368387D01*
X6001224Y-5368803D01*
X6001102Y-5368774D01*
X5998276Y-5374319D01*
X5992273Y-5377376D01*
X5985619Y-5376321D01*
X5980857Y-5371557D01*
X5980139Y-5369774D01*
X5980013Y-5369358D01*
X5980013Y-5369358D01*
X5974521Y-5356100D01*
X5972094Y-5350241D01*
X5972094Y-5350240D01*
X5960598Y-5333035D01*
X5960598Y-5333035D01*
X5945965Y-5318402D01*
X5937918Y-5313026D01*
X5928760Y-5306906D01*
X5928759Y-5306906D01*
X5918600Y-5302698D01*
X5909642Y-5298987D01*
X5889346Y-5294950D01*
X5868653Y-5294950D01*
X5848358Y-5298987D01*
X5848358Y-5298987D01*
X5829240Y-5306906D01*
X5829240Y-5306906D01*
X5812035Y-5318402D01*
X5797402Y-5333035D01*
X5785906Y-5350240D01*
X5785906Y-5350241D01*
X5778389Y-5368387D01*
X5777987Y-5369358D01*
X5773950Y-5389654D01*
X5730050Y-5389654D01*
X5726013Y-5369358D01*
X5720521Y-5356100D01*
X5718094Y-5350241D01*
X5718094Y-5350240D01*
X5706598Y-5333035D01*
X5706598Y-5333035D01*
X5691965Y-5318402D01*
X5683918Y-5313026D01*
X5674760Y-5306906D01*
X5674759Y-5306906D01*
X5655642Y-5298987D01*
X5655642Y-5298987D01*
X5655642Y-5298987D01*
X5635346Y-5294950D01*
X5614653Y-5294950D01*
X5594358Y-5298987D01*
X5594358Y-5298987D01*
X5575241Y-5306906D01*
X5575240Y-5306906D01*
X5558035Y-5318402D01*
X5543402Y-5333035D01*
X5531906Y-5350240D01*
X5531906Y-5350241D01*
X5524389Y-5368387D01*
X5523987Y-5369358D01*
X5519950Y-5389654D01*
X5476050Y-5389654D01*
X5472013Y-5369358D01*
X5466521Y-5356100D01*
X5464094Y-5350241D01*
X5464094Y-5350240D01*
X5452598Y-5333035D01*
X5452598Y-5333035D01*
X5437966Y-5318402D01*
X5429919Y-5313026D01*
X5420760Y-5306906D01*
X5420759Y-5306906D01*
X5401642Y-5298987D01*
X5401642Y-5298987D01*
X5401642Y-5298987D01*
X5381347Y-5294950D01*
X5360654Y-5294950D01*
X5340358Y-5298987D01*
X5340358Y-5298987D01*
X5321241Y-5306906D01*
X5321240Y-5306906D01*
X5304035Y-5318402D01*
X5289402Y-5333035D01*
X5277906Y-5350240D01*
X5277906Y-5350241D01*
X5270389Y-5368387D01*
X5269987Y-5369358D01*
X5265950Y-5389654D01*
X5222050Y-5389654D01*
X5218013Y-5369358D01*
X5212521Y-5356100D01*
X5210094Y-5350241D01*
X5210094Y-5350240D01*
X5198598Y-5333035D01*
X5198598Y-5333035D01*
X5183966Y-5318402D01*
X5175919Y-5313026D01*
X5166760Y-5306906D01*
X5166759Y-5306906D01*
X5147642Y-5298987D01*
X5147642Y-5298987D01*
X5147642Y-5298987D01*
X5127347Y-5294950D01*
X5106654Y-5294950D01*
X5086358Y-5298987D01*
X5086358Y-5298987D01*
X5067241Y-5306906D01*
X5067240Y-5306906D01*
X5050035Y-5318402D01*
X5035402Y-5333035D01*
X5023906Y-5350240D01*
X5023906Y-5350241D01*
X5016389Y-5368387D01*
X5015987Y-5369358D01*
X5011950Y-5389654D01*
X4968050Y-5389654D01*
X4964013Y-5369358D01*
X4958521Y-5356100D01*
X4956094Y-5350241D01*
X4956094Y-5350240D01*
X4944598Y-5333035D01*
X4944598Y-5333035D01*
X4929966Y-5318402D01*
X4921919Y-5313026D01*
X4912760Y-5306906D01*
X4912759Y-5306906D01*
X4893642Y-5298987D01*
X4893642Y-5298987D01*
X4893642Y-5298987D01*
X4873347Y-5294950D01*
X4852654Y-5294950D01*
X4832358Y-5298987D01*
X4832358Y-5298987D01*
X4813241Y-5306906D01*
X4813240Y-5306906D01*
X4796035Y-5318402D01*
X4781402Y-5333035D01*
X4769906Y-5350240D01*
X4769906Y-5350241D01*
X4762389Y-5368387D01*
X4761987Y-5369358D01*
X4757950Y-5389654D01*
X2850050Y-5389654D01*
X2850050Y-4900400D01*
X3686089Y-4900400D01*
X3785359Y-4900400D01*
X3780396Y-4908996D01*
X3777500Y-4919805D01*
X3777500Y-4930995D01*
X3780396Y-4941804D01*
X3785359Y-4950400D01*
X3686089Y-4950400D01*
X3688324Y-4964513D01*
X3694890Y-4984722D01*
X3704538Y-5003656D01*
X3717027Y-5020846D01*
X3717027Y-5020846D01*
X3732054Y-5035872D01*
X3732054Y-5035873D01*
X3749244Y-5048362D01*
X3768178Y-5058010D01*
X3788387Y-5064576D01*
X3788387Y-5064576D01*
X3795000Y-5065623D01*
X3795000Y-4960041D01*
X3803596Y-4965004D01*
X3814405Y-4967900D01*
X3825595Y-4967900D01*
X3836404Y-4965004D01*
X3845000Y-4960041D01*
X3845000Y-5065623D01*
X3851613Y-5064576D01*
X3871821Y-5058010D01*
X3890756Y-5048362D01*
X3907946Y-5035873D01*
X3907946Y-5035872D01*
X3922972Y-5020846D01*
X3922973Y-5020846D01*
X3935462Y-5003656D01*
X3945110Y-4984721D01*
X3950332Y-4968648D01*
X3954292Y-4963197D01*
X3960699Y-4961116D01*
X3967106Y-4963197D01*
X3970769Y-4967844D01*
X3976906Y-4982660D01*
X3976906Y-4982660D01*
X3987374Y-4998327D01*
X3988402Y-4999866D01*
X4003034Y-5014498D01*
X4011637Y-5020246D01*
X4020240Y-5025994D01*
X4020240Y-5025994D01*
X4029799Y-5029954D01*
X4039358Y-5033913D01*
X4059653Y-5037950D01*
X4059654Y-5037950D01*
X4080346Y-5037950D01*
X4080346Y-5037950D01*
X4100642Y-5033913D01*
X4115429Y-5027788D01*
X4119759Y-5025994D01*
X4119759Y-5025994D01*
X4119760Y-5025994D01*
X4136965Y-5014498D01*
X4151598Y-4999866D01*
X4163094Y-4982660D01*
X4171013Y-4963542D01*
X4175050Y-4943247D01*
X4175050Y-4907554D01*
X4171013Y-4887258D01*
X4167053Y-4877699D01*
X4163094Y-4868141D01*
X4163094Y-4868140D01*
X4156502Y-4858274D01*
X4155994Y-4857514D01*
X4152626Y-4852473D01*
X4214950Y-4852473D01*
X4214950Y-4998327D01*
X4215235Y-5001370D01*
X4215235Y-5001370D01*
X4219721Y-5014188D01*
X4219721Y-5014189D01*
X4227785Y-5025115D01*
X4227785Y-5025115D01*
X4238711Y-5033179D01*
X4238712Y-5033179D01*
X4238712Y-5033179D01*
X4251530Y-5037665D01*
X4253559Y-5037855D01*
X4254573Y-5037950D01*
X4254573Y-5037950D01*
X4385427Y-5037950D01*
X4386187Y-5037879D01*
X4388470Y-5037665D01*
X4401288Y-5033179D01*
X4412215Y-5025115D01*
X4420279Y-5014188D01*
X4424765Y-5001370D01*
X4425050Y-4998327D01*
X4425050Y-4852473D01*
X4424765Y-4849430D01*
X4420279Y-4836612D01*
X4420051Y-4836302D01*
X4412215Y-4825685D01*
X4412215Y-4825685D01*
X4401289Y-4817621D01*
X4401288Y-4817621D01*
X4388470Y-4813135D01*
X4388470Y-4813135D01*
X4385427Y-4812850D01*
X4385427Y-4812850D01*
X4254573Y-4812850D01*
X4254573Y-4812850D01*
X4251530Y-4813135D01*
X4251530Y-4813135D01*
X4238712Y-4817621D01*
X4238711Y-4817621D01*
X4227785Y-4825685D01*
X4227785Y-4825685D01*
X4219721Y-4836611D01*
X4219721Y-4836612D01*
X4215235Y-4849430D01*
X4215235Y-4849430D01*
X4214950Y-4852473D01*
X4152626Y-4852473D01*
X4151598Y-4850935D01*
X4136965Y-4836302D01*
X4127464Y-4829954D01*
X4119760Y-4824806D01*
X4119759Y-4824806D01*
X4100642Y-4816887D01*
X4100642Y-4816887D01*
X4100642Y-4816887D01*
X4080346Y-4812850D01*
X4059653Y-4812850D01*
X4039358Y-4816887D01*
X4039358Y-4816887D01*
X4020240Y-4824806D01*
X4020240Y-4824806D01*
X4003035Y-4836302D01*
X3988402Y-4850935D01*
X3976906Y-4868140D01*
X3976906Y-4868140D01*
X3970769Y-4882956D01*
X3966394Y-4888078D01*
X3959843Y-4889651D01*
X3953620Y-4887073D01*
X3950332Y-4882153D01*
X3945109Y-4866078D01*
X3935462Y-4847144D01*
X3922973Y-4829954D01*
X3922972Y-4829954D01*
X3907946Y-4814928D01*
X3907946Y-4814927D01*
X3890756Y-4802438D01*
X3871821Y-4792790D01*
X3851613Y-4786224D01*
X3845000Y-4785177D01*
X3845000Y-4890759D01*
X3836404Y-4885796D01*
X3825595Y-4882900D01*
X3814405Y-4882900D01*
X3803596Y-4885796D01*
X3795000Y-4890759D01*
X3795000Y-4785177D01*
X3788387Y-4786224D01*
X3768178Y-4792790D01*
X3749244Y-4802438D01*
X3732054Y-4814927D01*
X3732054Y-4814928D01*
X3717027Y-4829954D01*
X3717027Y-4829954D01*
X3704538Y-4847144D01*
X3694890Y-4866078D01*
X3688324Y-4886287D01*
X3686089Y-4900400D01*
X2850050Y-4900400D01*
X2850050Y-4350307D01*
X2850067Y-4349695D01*
X2850731Y-4337871D01*
X2939950Y-4337871D01*
X2939950Y-4362129D01*
X2941449Y-4373513D01*
X2943116Y-4386179D01*
X2943116Y-4386179D01*
X2949395Y-4409610D01*
X2958678Y-4432021D01*
X2970806Y-4453029D01*
X2985573Y-4472274D01*
X3002726Y-4489427D01*
X3021971Y-4504194D01*
X3042979Y-4516322D01*
X3065390Y-4525605D01*
X3088821Y-4531884D01*
X3112871Y-4535050D01*
X3112872Y-4535050D01*
X3137128Y-4535050D01*
X3137129Y-4535050D01*
X3161179Y-4531884D01*
X3184610Y-4525605D01*
X3207021Y-4516322D01*
X3228029Y-4504194D01*
X3247274Y-4489427D01*
X3264426Y-4472274D01*
X3279194Y-4453029D01*
X3291322Y-4432021D01*
X3300605Y-4409610D01*
X3306884Y-4386179D01*
X3310050Y-4362129D01*
X3310050Y-4337871D01*
X3306884Y-4313821D01*
X3300605Y-4290390D01*
X3291322Y-4267979D01*
X3279194Y-4246971D01*
X3273844Y-4240000D01*
X3686089Y-4240000D01*
X3785359Y-4240000D01*
X3780396Y-4248596D01*
X3777500Y-4259405D01*
X3777500Y-4270595D01*
X3780396Y-4281404D01*
X3785359Y-4290000D01*
X3686089Y-4290000D01*
X3688324Y-4304113D01*
X3694890Y-4324322D01*
X3704538Y-4343256D01*
X3717027Y-4360446D01*
X3717027Y-4360446D01*
X3732054Y-4375472D01*
X3732054Y-4375473D01*
X3749244Y-4387962D01*
X3768178Y-4397610D01*
X3788387Y-4404176D01*
X3788387Y-4404176D01*
X3795000Y-4405223D01*
X3795000Y-4299641D01*
X3803596Y-4304604D01*
X3814405Y-4307500D01*
X3825595Y-4307500D01*
X3836404Y-4304604D01*
X3845000Y-4299641D01*
X3845000Y-4405223D01*
X3851613Y-4404176D01*
X3871821Y-4397610D01*
X3890756Y-4387962D01*
X3907946Y-4375473D01*
X3907946Y-4375472D01*
X3922972Y-4360446D01*
X3922973Y-4360446D01*
X3935462Y-4343256D01*
X3945110Y-4324321D01*
X3950332Y-4308248D01*
X3954292Y-4302797D01*
X3960699Y-4300716D01*
X3967106Y-4302797D01*
X3970769Y-4307444D01*
X3976906Y-4322260D01*
X3976906Y-4322260D01*
X3986690Y-4336903D01*
X3988402Y-4339466D01*
X4003034Y-4354098D01*
X4005596Y-4355809D01*
X4020240Y-4365594D01*
X4020240Y-4365594D01*
X4029799Y-4369554D01*
X4039358Y-4373513D01*
X4059653Y-4377550D01*
X4059654Y-4377550D01*
X4080346Y-4377550D01*
X4080346Y-4377550D01*
X4100642Y-4373513D01*
X4115429Y-4367388D01*
X4119759Y-4365594D01*
X4119759Y-4365594D01*
X4119760Y-4365594D01*
X4136965Y-4354098D01*
X4151598Y-4339466D01*
X4163094Y-4322260D01*
X4164102Y-4319826D01*
X4164888Y-4317929D01*
X4171013Y-4303142D01*
X4175050Y-4282847D01*
X4175050Y-4247154D01*
X4171013Y-4226858D01*
X4167053Y-4217299D01*
X4163094Y-4207741D01*
X4163094Y-4207740D01*
X4156502Y-4197874D01*
X4155120Y-4195806D01*
X4152626Y-4192073D01*
X4214950Y-4192073D01*
X4214950Y-4337927D01*
X4215235Y-4340970D01*
X4215235Y-4340970D01*
X4219721Y-4353788D01*
X4219721Y-4353789D01*
X4227785Y-4364715D01*
X4227785Y-4364715D01*
X4238711Y-4372779D01*
X4238712Y-4372779D01*
X4238712Y-4372779D01*
X4251530Y-4377265D01*
X4253559Y-4377455D01*
X4254573Y-4377550D01*
X4254573Y-4377550D01*
X4385427Y-4377550D01*
X4386187Y-4377479D01*
X4388470Y-4377265D01*
X4401288Y-4372779D01*
X4412215Y-4364715D01*
X4415933Y-4359678D01*
X4421412Y-4355759D01*
X4428148Y-4355809D01*
X4432410Y-4358443D01*
X4740014Y-4666047D01*
X4747436Y-4670332D01*
X4755715Y-4672550D01*
X4822254Y-4672550D01*
X4828661Y-4674632D01*
X4829961Y-4675743D01*
X4834269Y-4680050D01*
X4845681Y-4686639D01*
X4858411Y-4690050D01*
X4871589Y-4690050D01*
X4884319Y-4686639D01*
X4895731Y-4680050D01*
X4905050Y-4670731D01*
X4911639Y-4659319D01*
X4915050Y-4646589D01*
X4915050Y-4633411D01*
X4911639Y-4620681D01*
X4905050Y-4609269D01*
X4895731Y-4599950D01*
X4895731Y-4599950D01*
X4884319Y-4593361D01*
X4871589Y-4589950D01*
X4858411Y-4589950D01*
X4845681Y-4593361D01*
X4834269Y-4599950D01*
X4829961Y-4604258D01*
X4823959Y-4607316D01*
X4822254Y-4607450D01*
X4777998Y-4607450D01*
X4771591Y-4605368D01*
X4770290Y-4604258D01*
X4503904Y-4337871D01*
X6689950Y-4337871D01*
X6689950Y-4362129D01*
X6691449Y-4373513D01*
X6693116Y-4386179D01*
X6693116Y-4386179D01*
X6699395Y-4409610D01*
X6708678Y-4432021D01*
X6720806Y-4453029D01*
X6735573Y-4472274D01*
X6752726Y-4489427D01*
X6771971Y-4504194D01*
X6792979Y-4516322D01*
X6815390Y-4525605D01*
X6838821Y-4531884D01*
X6862871Y-4535050D01*
X6862872Y-4535050D01*
X6887128Y-4535050D01*
X6887129Y-4535050D01*
X6911179Y-4531884D01*
X6934610Y-4525605D01*
X6957021Y-4516322D01*
X6978029Y-4504194D01*
X6997274Y-4489427D01*
X7014426Y-4472274D01*
X7029194Y-4453029D01*
X7041322Y-4432021D01*
X7050605Y-4409610D01*
X7056884Y-4386179D01*
X7060050Y-4362129D01*
X7060050Y-4337871D01*
X7056884Y-4313821D01*
X7050605Y-4290390D01*
X7041322Y-4267979D01*
X7029194Y-4246971D01*
X7016711Y-4230704D01*
X7014427Y-4227727D01*
X7014427Y-4227727D01*
X7014426Y-4227726D01*
X6997274Y-4210574D01*
X6997273Y-4210573D01*
X6997273Y-4210573D01*
X6978029Y-4195807D01*
X6971563Y-4192073D01*
X6957021Y-4183678D01*
X6944694Y-4178571D01*
X6934610Y-4174395D01*
X6934610Y-4174395D01*
X6934610Y-4174395D01*
X6916544Y-4169554D01*
X6911179Y-4168116D01*
X6900747Y-4166743D01*
X6887129Y-4164950D01*
X6862871Y-4164950D01*
X6850427Y-4166588D01*
X6838821Y-4168116D01*
X6815390Y-4174395D01*
X6815389Y-4174395D01*
X6792979Y-4183678D01*
X6792978Y-4183678D01*
X6771971Y-4195807D01*
X6752727Y-4210573D01*
X6735573Y-4227727D01*
X6720807Y-4246971D01*
X6708678Y-4267978D01*
X6708678Y-4267979D01*
X6699395Y-4290389D01*
X6699395Y-4290390D01*
X6693116Y-4313821D01*
X6692005Y-4322260D01*
X6689950Y-4337871D01*
X4503904Y-4337871D01*
X4428243Y-4262210D01*
X4425184Y-4256207D01*
X4425050Y-4254502D01*
X4425050Y-4192073D01*
X4424765Y-4189030D01*
X4424765Y-4189030D01*
X4423965Y-4186744D01*
X4420279Y-4176212D01*
X4420051Y-4175902D01*
X4412215Y-4165285D01*
X4412215Y-4165285D01*
X4401289Y-4157221D01*
X4401288Y-4157221D01*
X4388470Y-4152735D01*
X4388470Y-4152735D01*
X4385427Y-4152450D01*
X4385427Y-4152450D01*
X4254573Y-4152450D01*
X4254573Y-4152450D01*
X4251530Y-4152735D01*
X4251530Y-4152735D01*
X4238712Y-4157221D01*
X4238711Y-4157221D01*
X4227785Y-4165285D01*
X4227785Y-4165285D01*
X4219721Y-4176211D01*
X4219721Y-4176212D01*
X4215235Y-4189030D01*
X4215235Y-4189030D01*
X4214950Y-4192073D01*
X4152626Y-4192073D01*
X4151598Y-4190534D01*
X4136965Y-4175902D01*
X4127464Y-4169554D01*
X4119760Y-4164406D01*
X4119759Y-4164406D01*
X4100642Y-4156487D01*
X4100642Y-4156487D01*
X4100642Y-4156487D01*
X4080346Y-4152450D01*
X4059653Y-4152450D01*
X4041618Y-4156037D01*
X4039358Y-4156487D01*
X4039358Y-4156487D01*
X4020240Y-4164406D01*
X4020240Y-4164406D01*
X4003035Y-4175902D01*
X3988402Y-4190535D01*
X3976906Y-4207740D01*
X3976906Y-4207740D01*
X3970769Y-4222556D01*
X3966394Y-4227678D01*
X3959843Y-4229251D01*
X3953620Y-4226673D01*
X3950332Y-4221753D01*
X3945109Y-4205678D01*
X3935462Y-4186744D01*
X3922973Y-4169554D01*
X3922972Y-4169554D01*
X3907946Y-4154527D01*
X3907946Y-4154527D01*
X3890756Y-4142038D01*
X3871821Y-4132390D01*
X3851613Y-4125824D01*
X3845000Y-4124777D01*
X3845000Y-4230359D01*
X3836404Y-4225396D01*
X3825595Y-4222500D01*
X3814405Y-4222500D01*
X3803596Y-4225396D01*
X3795000Y-4230359D01*
X3795000Y-4124777D01*
X3788387Y-4125824D01*
X3768178Y-4132390D01*
X3749244Y-4142038D01*
X3732054Y-4154527D01*
X3732054Y-4154527D01*
X3717027Y-4169554D01*
X3717027Y-4169554D01*
X3704538Y-4186744D01*
X3694890Y-4205678D01*
X3688324Y-4225887D01*
X3686089Y-4240000D01*
X3273844Y-4240000D01*
X3266711Y-4230704D01*
X3264427Y-4227727D01*
X3264427Y-4227727D01*
X3264426Y-4227726D01*
X3247274Y-4210574D01*
X3247273Y-4210573D01*
X3247273Y-4210573D01*
X3228029Y-4195807D01*
X3221563Y-4192073D01*
X3207021Y-4183678D01*
X3194694Y-4178571D01*
X3184610Y-4174395D01*
X3184610Y-4174395D01*
X3184610Y-4174395D01*
X3166544Y-4169554D01*
X3161179Y-4168116D01*
X3150747Y-4166743D01*
X3137129Y-4164950D01*
X3112871Y-4164950D01*
X3100427Y-4166588D01*
X3088821Y-4168116D01*
X3065390Y-4174395D01*
X3065389Y-4174395D01*
X3042979Y-4183678D01*
X3042978Y-4183678D01*
X3021971Y-4195807D01*
X3002727Y-4210573D01*
X2985573Y-4227727D01*
X2970807Y-4246971D01*
X2958678Y-4267978D01*
X2958678Y-4267979D01*
X2949395Y-4290389D01*
X2949395Y-4290390D01*
X2943116Y-4313821D01*
X2942005Y-4322260D01*
X2939950Y-4337871D01*
X2850731Y-4337871D01*
X2850785Y-4336903D01*
X2850785Y-4336903D01*
X2851744Y-4319826D01*
X2851881Y-4318612D01*
X2853779Y-4307444D01*
X2856841Y-4289420D01*
X2857113Y-4288231D01*
X2865310Y-4259777D01*
X2865713Y-4258625D01*
X2877045Y-4231268D01*
X2877574Y-4230169D01*
X2891898Y-4204252D01*
X2892546Y-4203220D01*
X2909682Y-4179069D01*
X2910441Y-4178117D01*
X2930173Y-4156037D01*
X2931037Y-4155173D01*
X2953117Y-4135441D01*
X2954069Y-4134682D01*
X2978220Y-4117546D01*
X2979252Y-4116898D01*
X3005169Y-4102574D01*
X3006268Y-4102045D01*
X3033625Y-4090713D01*
X3034777Y-4090310D01*
X3063231Y-4082113D01*
X3064420Y-4081841D01*
X3093612Y-4076881D01*
X3094826Y-4076744D01*
X3124695Y-4075067D01*
X3125307Y-4075050D01*
X3131589Y-4075050D01*
X6868411Y-4075050D01*
X6874693Y-4075050D01*
X6875304Y-4075067D01*
G37*
%TD.AperFunction*%
%TD*%
M02*
