%TF.GenerationSoftware,KiCad,Pcbnew,9.0.5*%
%TF.CreationDate,2026-03-13T19:42:31+01:00*%
%TF.ProjectId,Doigts,446f6967-7473-42e6-9b69-6361645f7063,1.0*%
%TF.SameCoordinates,Original*%
%TF.FileFunction,Legend,Top*%
%TF.FilePolarity,Positive*%
%FSLAX45Y45*%
G04 Gerber Fmt 4.5, Leading zero omitted, Abs format (unit mm)*
G04 Created by KiCad (PCBNEW 9.0.5) date 2026-03-13 19:42:31*
%MOMM*%
%LPD*%
G01*
G04 APERTURE LIST*
%ADD10C,0.200000*%
%ADD11C,0.150000*%
%ADD12C,0.120000*%
G04 APERTURE END LIST*
D10*
G36*
X3559389Y-5780459D02*
G01*
X3417167Y-5780459D01*
X3417167Y-5711729D01*
X3428278Y-5711729D01*
X3428278Y-5740301D01*
X3428470Y-5742251D01*
X3428608Y-5742583D01*
X3428633Y-5742942D01*
X3429334Y-5744773D01*
X3434096Y-5754297D01*
X3434624Y-5755136D01*
X3434725Y-5755380D01*
X3434951Y-5755655D01*
X3435140Y-5755956D01*
X3435340Y-5756129D01*
X3435969Y-5756895D01*
X3440731Y-5761657D01*
X3441497Y-5762286D01*
X3441671Y-5762486D01*
X3441971Y-5762676D01*
X3442246Y-5762901D01*
X3442490Y-5763002D01*
X3443330Y-5763531D01*
X3452853Y-5768292D01*
X3454684Y-5768993D01*
X3455043Y-5769018D01*
X3455375Y-5769156D01*
X3457326Y-5769348D01*
X3481135Y-5769348D01*
X3483086Y-5769156D01*
X3483418Y-5769018D01*
X3483776Y-5768993D01*
X3485607Y-5768292D01*
X3495131Y-5763531D01*
X3495971Y-5763002D01*
X3496215Y-5762901D01*
X3496489Y-5762676D01*
X3496790Y-5762486D01*
X3496963Y-5762287D01*
X3497730Y-5761657D01*
X3502492Y-5756895D01*
X3503121Y-5756129D01*
X3503321Y-5755956D01*
X3503510Y-5755655D01*
X3503736Y-5755380D01*
X3503837Y-5755136D01*
X3504365Y-5754296D01*
X3508308Y-5746412D01*
X3531693Y-5766874D01*
X3532536Y-5767477D01*
X3532722Y-5767663D01*
X3532899Y-5767736D01*
X3533288Y-5768014D01*
X3534826Y-5768534D01*
X3536327Y-5769156D01*
X3536664Y-5769156D01*
X3536984Y-5769264D01*
X3538604Y-5769156D01*
X3540229Y-5769156D01*
X3540540Y-5769027D01*
X3540877Y-5769005D01*
X3542333Y-5768284D01*
X3543834Y-5767663D01*
X3544072Y-5767424D01*
X3544374Y-5767275D01*
X3545445Y-5766052D01*
X3546593Y-5764904D01*
X3546722Y-5764592D01*
X3546944Y-5764339D01*
X3547464Y-5762799D01*
X3548086Y-5761299D01*
X3548133Y-5760823D01*
X3548194Y-5760642D01*
X3548176Y-5760380D01*
X3548278Y-5759348D01*
X3548278Y-5697443D01*
X3548086Y-5695493D01*
X3546593Y-5691888D01*
X3543834Y-5689129D01*
X3540229Y-5687636D01*
X3536327Y-5687636D01*
X3532722Y-5689129D01*
X3529963Y-5691888D01*
X3528470Y-5695493D01*
X3528278Y-5697443D01*
X3528278Y-5737310D01*
X3506768Y-5718489D01*
X3505924Y-5717886D01*
X3505738Y-5717700D01*
X3505562Y-5717627D01*
X3505173Y-5717349D01*
X3503634Y-5716828D01*
X3502134Y-5716207D01*
X3501796Y-5716207D01*
X3501477Y-5716099D01*
X3499857Y-5716207D01*
X3498232Y-5716207D01*
X3497920Y-5716336D01*
X3497584Y-5716358D01*
X3496128Y-5717078D01*
X3494627Y-5717700D01*
X3494389Y-5717939D01*
X3494086Y-5718088D01*
X3493016Y-5719311D01*
X3491868Y-5720459D01*
X3491739Y-5720771D01*
X3491517Y-5721025D01*
X3490996Y-5722563D01*
X3490375Y-5724064D01*
X3490328Y-5724540D01*
X3490267Y-5724721D01*
X3490284Y-5724983D01*
X3490183Y-5726015D01*
X3490183Y-5737940D01*
X3487202Y-5743901D01*
X3484735Y-5746368D01*
X3478774Y-5749348D01*
X3459686Y-5749348D01*
X3453725Y-5746368D01*
X3451258Y-5743901D01*
X3448278Y-5737940D01*
X3448278Y-5714090D01*
X3451258Y-5708129D01*
X3454873Y-5704515D01*
X3456117Y-5702999D01*
X3457610Y-5699394D01*
X3457610Y-5695493D01*
X3456117Y-5691888D01*
X3453358Y-5689129D01*
X3449753Y-5687636D01*
X3445851Y-5687636D01*
X3442246Y-5689129D01*
X3440731Y-5690372D01*
X3435969Y-5695134D01*
X3435340Y-5695901D01*
X3435140Y-5696074D01*
X3434951Y-5696375D01*
X3434725Y-5696650D01*
X3434624Y-5696894D01*
X3434096Y-5697733D01*
X3429334Y-5707257D01*
X3428633Y-5709088D01*
X3428608Y-5709446D01*
X3428470Y-5709778D01*
X3428278Y-5711729D01*
X3417167Y-5711729D01*
X3417167Y-5676524D01*
X3559389Y-5676524D01*
X3559389Y-5780459D01*
G37*
D11*
G36*
X6122445Y-5152918D02*
G01*
X6125095Y-5155567D01*
X6128521Y-5162419D01*
X6128521Y-5173164D01*
X6125095Y-5180015D01*
X6122054Y-5183056D01*
X6115203Y-5186482D01*
X6086378Y-5186482D01*
X6086378Y-5149101D01*
X6110994Y-5149101D01*
X6122445Y-5152918D01*
G37*
G36*
X6117292Y-5104908D02*
G01*
X6120333Y-5107948D01*
X6123759Y-5114800D01*
X6123759Y-5120783D01*
X6120333Y-5127634D01*
X6117292Y-5130675D01*
X6110441Y-5134101D01*
X6086378Y-5134101D01*
X6086378Y-5101482D01*
X6110441Y-5101482D01*
X6117292Y-5104908D01*
G37*
G36*
X6154632Y-5212593D02*
G01*
X6060267Y-5212593D01*
X6060267Y-5093982D01*
X6071378Y-5093982D01*
X6071378Y-5193982D01*
X6071522Y-5195445D01*
X6072642Y-5198149D01*
X6074711Y-5200218D01*
X6077415Y-5201338D01*
X6078878Y-5201482D01*
X6116973Y-5201482D01*
X6118436Y-5201338D01*
X6118685Y-5201235D01*
X6118954Y-5201216D01*
X6120327Y-5200690D01*
X6129851Y-5195928D01*
X6130481Y-5195532D01*
X6130664Y-5195456D01*
X6130869Y-5195287D01*
X6131095Y-5195145D01*
X6131225Y-5194995D01*
X6131800Y-5194523D01*
X6136562Y-5189761D01*
X6137034Y-5189186D01*
X6137184Y-5189056D01*
X6137326Y-5188831D01*
X6137495Y-5188625D01*
X6137571Y-5188442D01*
X6137967Y-5187812D01*
X6142729Y-5178288D01*
X6143254Y-5176915D01*
X6143273Y-5176646D01*
X6143377Y-5176397D01*
X6143521Y-5174934D01*
X6143521Y-5160649D01*
X6143377Y-5159185D01*
X6143273Y-5158936D01*
X6143254Y-5158668D01*
X6142729Y-5157294D01*
X6137967Y-5147771D01*
X6137570Y-5147141D01*
X6137495Y-5146958D01*
X6137326Y-5146752D01*
X6137184Y-5146526D01*
X6137034Y-5146396D01*
X6136562Y-5145821D01*
X6131800Y-5141060D01*
X6130664Y-5140127D01*
X6130415Y-5140024D01*
X6130211Y-5139847D01*
X6129604Y-5139576D01*
X6131800Y-5137380D01*
X6132272Y-5136805D01*
X6132422Y-5136676D01*
X6132564Y-5136450D01*
X6132733Y-5136244D01*
X6132809Y-5136061D01*
X6133205Y-5135431D01*
X6137967Y-5125907D01*
X6138492Y-5124534D01*
X6138512Y-5124265D01*
X6138615Y-5124017D01*
X6138759Y-5122553D01*
X6138759Y-5113030D01*
X6138615Y-5111566D01*
X6138512Y-5111317D01*
X6138492Y-5111049D01*
X6137967Y-5109675D01*
X6133205Y-5100152D01*
X6132809Y-5099522D01*
X6132733Y-5099339D01*
X6132564Y-5099133D01*
X6132422Y-5098907D01*
X6132272Y-5098777D01*
X6131800Y-5098202D01*
X6127038Y-5093441D01*
X6126463Y-5092969D01*
X6126333Y-5092819D01*
X6126107Y-5092677D01*
X6125902Y-5092508D01*
X6125719Y-5092432D01*
X6125089Y-5092036D01*
X6115565Y-5087274D01*
X6114192Y-5086748D01*
X6113923Y-5086729D01*
X6113674Y-5086626D01*
X6112211Y-5086482D01*
X6078878Y-5086482D01*
X6077415Y-5086626D01*
X6074711Y-5087746D01*
X6072642Y-5089815D01*
X6071522Y-5092519D01*
X6071378Y-5093982D01*
X6060267Y-5093982D01*
X6060267Y-5075371D01*
X6154632Y-5075371D01*
X6154632Y-5212593D01*
G37*
D10*
G36*
X3559389Y-5105459D02*
G01*
X3417167Y-5105459D01*
X3417167Y-5022444D01*
X3428278Y-5022444D01*
X3428278Y-5084348D01*
X3428470Y-5086299D01*
X3429963Y-5089904D01*
X3432722Y-5092663D01*
X3436327Y-5094156D01*
X3440229Y-5094156D01*
X3443834Y-5092663D01*
X3446593Y-5089904D01*
X3448086Y-5086299D01*
X3448278Y-5084348D01*
X3448278Y-5046586D01*
X3488350Y-5086657D01*
X3489865Y-5087901D01*
X3490197Y-5088038D01*
X3490469Y-5088274D01*
X3492259Y-5089073D01*
X3506544Y-5093835D01*
X3507511Y-5094055D01*
X3507756Y-5094156D01*
X3508109Y-5094191D01*
X3508456Y-5094270D01*
X3508719Y-5094251D01*
X3509707Y-5094348D01*
X3519230Y-5094348D01*
X3521181Y-5094156D01*
X3521513Y-5094019D01*
X3521872Y-5093993D01*
X3523702Y-5093293D01*
X3533226Y-5088531D01*
X3534066Y-5088002D01*
X3534310Y-5087901D01*
X3534584Y-5087676D01*
X3534885Y-5087486D01*
X3535058Y-5087287D01*
X3535825Y-5086657D01*
X3540587Y-5081896D01*
X3541216Y-5081129D01*
X3541416Y-5080956D01*
X3541605Y-5080655D01*
X3541831Y-5080380D01*
X3541932Y-5080136D01*
X3542460Y-5079297D01*
X3547222Y-5069773D01*
X3547923Y-5067942D01*
X3547948Y-5067584D01*
X3548086Y-5067252D01*
X3548278Y-5065301D01*
X3548278Y-5041491D01*
X3548086Y-5039540D01*
X3547948Y-5039208D01*
X3547923Y-5038850D01*
X3547222Y-5037019D01*
X3542460Y-5027495D01*
X3541932Y-5026656D01*
X3541831Y-5026412D01*
X3541605Y-5026137D01*
X3541416Y-5025836D01*
X3541216Y-5025663D01*
X3540587Y-5024896D01*
X3535825Y-5020134D01*
X3534310Y-5018891D01*
X3530705Y-5017398D01*
X3526803Y-5017398D01*
X3523198Y-5018891D01*
X3520439Y-5021650D01*
X3518946Y-5025255D01*
X3518946Y-5029156D01*
X3520439Y-5032761D01*
X3521683Y-5034277D01*
X3525297Y-5037891D01*
X3528278Y-5043852D01*
X3528278Y-5062940D01*
X3525297Y-5068901D01*
X3522831Y-5071368D01*
X3516870Y-5074348D01*
X3511329Y-5074348D01*
X3500823Y-5070846D01*
X3445349Y-5015372D01*
X3443834Y-5014129D01*
X3440229Y-5012636D01*
X3436327Y-5012636D01*
X3432722Y-5014129D01*
X3429963Y-5016888D01*
X3428470Y-5020493D01*
X3428278Y-5022444D01*
X3417167Y-5022444D01*
X3417167Y-5001525D01*
X3559389Y-5001525D01*
X3559389Y-5105459D01*
G37*
G36*
X5377379Y-5788150D02*
G01*
X5357508Y-5788150D01*
X5367444Y-5758345D01*
X5377379Y-5788150D01*
G37*
G36*
X5688555Y-5847833D02*
G01*
X5151094Y-5847833D01*
X5151094Y-5745769D01*
X5162205Y-5745769D01*
X5162205Y-5755293D01*
X5162398Y-5757244D01*
X5162535Y-5757576D01*
X5162561Y-5757935D01*
X5163261Y-5759765D01*
X5168023Y-5769289D01*
X5168552Y-5770129D01*
X5168653Y-5770373D01*
X5168878Y-5770647D01*
X5169067Y-5770948D01*
X5169267Y-5771121D01*
X5169896Y-5771888D01*
X5174658Y-5776650D01*
X5175425Y-5777279D01*
X5175598Y-5777479D01*
X5175899Y-5777668D01*
X5176173Y-5777894D01*
X5176417Y-5777995D01*
X5177257Y-5778523D01*
X5186781Y-5783285D01*
X5186924Y-5783340D01*
X5186982Y-5783383D01*
X5187799Y-5783675D01*
X5188612Y-5783986D01*
X5188684Y-5783991D01*
X5188828Y-5784042D01*
X5206810Y-5788538D01*
X5213901Y-5792083D01*
X5216368Y-5794550D01*
X5219348Y-5800511D01*
X5219348Y-5805313D01*
X5216368Y-5811274D01*
X5213901Y-5813741D01*
X5207940Y-5816722D01*
X5188114Y-5816722D01*
X5175368Y-5812473D01*
X5173456Y-5812038D01*
X5169564Y-5812315D01*
X5166074Y-5814060D01*
X5163518Y-5817008D01*
X5162284Y-5820709D01*
X5162561Y-5824601D01*
X5164306Y-5828091D01*
X5167253Y-5830648D01*
X5169043Y-5831447D01*
X5183329Y-5836209D01*
X5184296Y-5836429D01*
X5184540Y-5836530D01*
X5184894Y-5836565D01*
X5185240Y-5836643D01*
X5185504Y-5836625D01*
X5186491Y-5836722D01*
X5210301Y-5836722D01*
X5212252Y-5836530D01*
X5212584Y-5836392D01*
X5212942Y-5836367D01*
X5214773Y-5835666D01*
X5224297Y-5830904D01*
X5225136Y-5830376D01*
X5225380Y-5830275D01*
X5225655Y-5830049D01*
X5225956Y-5829860D01*
X5226129Y-5829660D01*
X5226896Y-5829031D01*
X5231657Y-5824269D01*
X5232287Y-5823502D01*
X5232486Y-5823329D01*
X5232676Y-5823028D01*
X5232901Y-5822754D01*
X5233002Y-5822509D01*
X5233531Y-5821670D01*
X5238293Y-5812146D01*
X5238993Y-5810315D01*
X5239019Y-5809957D01*
X5239156Y-5809625D01*
X5239348Y-5807674D01*
X5239348Y-5798150D01*
X5239156Y-5796199D01*
X5239019Y-5795867D01*
X5238993Y-5795509D01*
X5238293Y-5793678D01*
X5233531Y-5784154D01*
X5233002Y-5783315D01*
X5232901Y-5783071D01*
X5232676Y-5782796D01*
X5232486Y-5782495D01*
X5232287Y-5782322D01*
X5231657Y-5781555D01*
X5226896Y-5776794D01*
X5226128Y-5776164D01*
X5225956Y-5775965D01*
X5225655Y-5775775D01*
X5225380Y-5775550D01*
X5225136Y-5775449D01*
X5224297Y-5774920D01*
X5214773Y-5770158D01*
X5214630Y-5770104D01*
X5214572Y-5770061D01*
X5213754Y-5769769D01*
X5212942Y-5769458D01*
X5212870Y-5769453D01*
X5212726Y-5769401D01*
X5194743Y-5764906D01*
X5187653Y-5761360D01*
X5185186Y-5758893D01*
X5182205Y-5752932D01*
X5182205Y-5748130D01*
X5185186Y-5742169D01*
X5187653Y-5739702D01*
X5193614Y-5736722D01*
X5213440Y-5736722D01*
X5226186Y-5740971D01*
X5228097Y-5741405D01*
X5231989Y-5741129D01*
X5235479Y-5739384D01*
X5238036Y-5736436D01*
X5239270Y-5732734D01*
X5238993Y-5728842D01*
X5237248Y-5725353D01*
X5236578Y-5724771D01*
X5248112Y-5724771D01*
X5248112Y-5728673D01*
X5249605Y-5732278D01*
X5252364Y-5735037D01*
X5255969Y-5736530D01*
X5257920Y-5736722D01*
X5276491Y-5736722D01*
X5276491Y-5826722D01*
X5276683Y-5828673D01*
X5278176Y-5832278D01*
X5280935Y-5835037D01*
X5284540Y-5836530D01*
X5288442Y-5836530D01*
X5292047Y-5835037D01*
X5294806Y-5832278D01*
X5296299Y-5828673D01*
X5296491Y-5826722D01*
X5296491Y-5825471D01*
X5324189Y-5825471D01*
X5324465Y-5829363D01*
X5326210Y-5832853D01*
X5329158Y-5835410D01*
X5332860Y-5836643D01*
X5336752Y-5836367D01*
X5340241Y-5834622D01*
X5342798Y-5831674D01*
X5343597Y-5829884D01*
X5350842Y-5808150D01*
X5384045Y-5808150D01*
X5391290Y-5829884D01*
X5392089Y-5831674D01*
X5394646Y-5834622D01*
X5398136Y-5836367D01*
X5402028Y-5836643D01*
X5405729Y-5835409D01*
X5408677Y-5832853D01*
X5410422Y-5829363D01*
X5410698Y-5825471D01*
X5410264Y-5823560D01*
X5377334Y-5724771D01*
X5410017Y-5724771D01*
X5410017Y-5728673D01*
X5411510Y-5732278D01*
X5414269Y-5735037D01*
X5417874Y-5736530D01*
X5419825Y-5736722D01*
X5438396Y-5736722D01*
X5438396Y-5826722D01*
X5438588Y-5828673D01*
X5440081Y-5832278D01*
X5442840Y-5835037D01*
X5446445Y-5836530D01*
X5450347Y-5836530D01*
X5453952Y-5835037D01*
X5456711Y-5832278D01*
X5458204Y-5828673D01*
X5458396Y-5826722D01*
X5458396Y-5736722D01*
X5476967Y-5736722D01*
X5478918Y-5736530D01*
X5482523Y-5735037D01*
X5485282Y-5732278D01*
X5486775Y-5728673D01*
X5486775Y-5726722D01*
X5500301Y-5726722D01*
X5500301Y-5807674D01*
X5500493Y-5809625D01*
X5500630Y-5809957D01*
X5500656Y-5810315D01*
X5501356Y-5812146D01*
X5506118Y-5821670D01*
X5506647Y-5822509D01*
X5506748Y-5822754D01*
X5506973Y-5823029D01*
X5507163Y-5823329D01*
X5507362Y-5823502D01*
X5507992Y-5824269D01*
X5512753Y-5829031D01*
X5513520Y-5829660D01*
X5513693Y-5829860D01*
X5513994Y-5830049D01*
X5514269Y-5830275D01*
X5514513Y-5830376D01*
X5515352Y-5830904D01*
X5524876Y-5835666D01*
X5526707Y-5836367D01*
X5527065Y-5836392D01*
X5527397Y-5836530D01*
X5529348Y-5836722D01*
X5548396Y-5836722D01*
X5550347Y-5836530D01*
X5550679Y-5836392D01*
X5551037Y-5836367D01*
X5552868Y-5835666D01*
X5562392Y-5830904D01*
X5563231Y-5830376D01*
X5563476Y-5830275D01*
X5563750Y-5830049D01*
X5564051Y-5829860D01*
X5564224Y-5829660D01*
X5564991Y-5829031D01*
X5569753Y-5824269D01*
X5570382Y-5823502D01*
X5570582Y-5823329D01*
X5570771Y-5823028D01*
X5570996Y-5822754D01*
X5571098Y-5822509D01*
X5571626Y-5821670D01*
X5576388Y-5812146D01*
X5577088Y-5810315D01*
X5577114Y-5809957D01*
X5577251Y-5809625D01*
X5577444Y-5807674D01*
X5577444Y-5745769D01*
X5600301Y-5745769D01*
X5600301Y-5755293D01*
X5600493Y-5757244D01*
X5600630Y-5757576D01*
X5600656Y-5757935D01*
X5601356Y-5759765D01*
X5606118Y-5769289D01*
X5606647Y-5770129D01*
X5606748Y-5770373D01*
X5606973Y-5770647D01*
X5607163Y-5770948D01*
X5607362Y-5771121D01*
X5607991Y-5771888D01*
X5612753Y-5776650D01*
X5613520Y-5777279D01*
X5613693Y-5777479D01*
X5613994Y-5777668D01*
X5614269Y-5777894D01*
X5614513Y-5777995D01*
X5615352Y-5778523D01*
X5624876Y-5783285D01*
X5625019Y-5783340D01*
X5625077Y-5783383D01*
X5625894Y-5783675D01*
X5626707Y-5783986D01*
X5626779Y-5783991D01*
X5626923Y-5784042D01*
X5644905Y-5788538D01*
X5651996Y-5792083D01*
X5654463Y-5794550D01*
X5657443Y-5800511D01*
X5657443Y-5805313D01*
X5654463Y-5811274D01*
X5651996Y-5813741D01*
X5646035Y-5816722D01*
X5626209Y-5816722D01*
X5613463Y-5812473D01*
X5611551Y-5812038D01*
X5607659Y-5812315D01*
X5604169Y-5814060D01*
X5601613Y-5817008D01*
X5600379Y-5820709D01*
X5600656Y-5824601D01*
X5602401Y-5828091D01*
X5605348Y-5830648D01*
X5607138Y-5831447D01*
X5621424Y-5836209D01*
X5622391Y-5836429D01*
X5622635Y-5836530D01*
X5622989Y-5836565D01*
X5623336Y-5836643D01*
X5623599Y-5836625D01*
X5624586Y-5836722D01*
X5648396Y-5836722D01*
X5650347Y-5836530D01*
X5650679Y-5836392D01*
X5651037Y-5836367D01*
X5652868Y-5835666D01*
X5662392Y-5830904D01*
X5663231Y-5830376D01*
X5663475Y-5830275D01*
X5663750Y-5830049D01*
X5664051Y-5829860D01*
X5664224Y-5829660D01*
X5664991Y-5829031D01*
X5669753Y-5824269D01*
X5670382Y-5823502D01*
X5670582Y-5823329D01*
X5670771Y-5823028D01*
X5670996Y-5822754D01*
X5671097Y-5822509D01*
X5671626Y-5821670D01*
X5676388Y-5812146D01*
X5677088Y-5810315D01*
X5677114Y-5809957D01*
X5677251Y-5809625D01*
X5677443Y-5807674D01*
X5677443Y-5798150D01*
X5677251Y-5796199D01*
X5677114Y-5795867D01*
X5677088Y-5795509D01*
X5676388Y-5793678D01*
X5671626Y-5784154D01*
X5671097Y-5783315D01*
X5670996Y-5783071D01*
X5670771Y-5782796D01*
X5670582Y-5782495D01*
X5670382Y-5782322D01*
X5669753Y-5781555D01*
X5664991Y-5776794D01*
X5664224Y-5776164D01*
X5664051Y-5775965D01*
X5663750Y-5775775D01*
X5663475Y-5775550D01*
X5663231Y-5775449D01*
X5662392Y-5774920D01*
X5652868Y-5770158D01*
X5652725Y-5770104D01*
X5652667Y-5770061D01*
X5651850Y-5769769D01*
X5651037Y-5769458D01*
X5650965Y-5769453D01*
X5650821Y-5769401D01*
X5632839Y-5764906D01*
X5625748Y-5761360D01*
X5623281Y-5758893D01*
X5620301Y-5752932D01*
X5620301Y-5748130D01*
X5623281Y-5742169D01*
X5625748Y-5739702D01*
X5631709Y-5736722D01*
X5651535Y-5736722D01*
X5664281Y-5740971D01*
X5666193Y-5741405D01*
X5670085Y-5741129D01*
X5673575Y-5739384D01*
X5676131Y-5736436D01*
X5677365Y-5732734D01*
X5677088Y-5728842D01*
X5675343Y-5725353D01*
X5672396Y-5722796D01*
X5670606Y-5721997D01*
X5656320Y-5717235D01*
X5655353Y-5717015D01*
X5655109Y-5716914D01*
X5654755Y-5716879D01*
X5654408Y-5716800D01*
X5654145Y-5716819D01*
X5653158Y-5716722D01*
X5629348Y-5716722D01*
X5627397Y-5716914D01*
X5627065Y-5717051D01*
X5626707Y-5717077D01*
X5624876Y-5717778D01*
X5615352Y-5722539D01*
X5614513Y-5723068D01*
X5614269Y-5723169D01*
X5613994Y-5723394D01*
X5613693Y-5723584D01*
X5613520Y-5723783D01*
X5612753Y-5724413D01*
X5607991Y-5729175D01*
X5607362Y-5729942D01*
X5607163Y-5730115D01*
X5606973Y-5730415D01*
X5606748Y-5730690D01*
X5606647Y-5730934D01*
X5606118Y-5731774D01*
X5601356Y-5741297D01*
X5600656Y-5743128D01*
X5600630Y-5743486D01*
X5600493Y-5743819D01*
X5600301Y-5745769D01*
X5577444Y-5745769D01*
X5577444Y-5726722D01*
X5577251Y-5724771D01*
X5575758Y-5721166D01*
X5572999Y-5718407D01*
X5569394Y-5716914D01*
X5565493Y-5716914D01*
X5561888Y-5718407D01*
X5559129Y-5721166D01*
X5557636Y-5724771D01*
X5557444Y-5726722D01*
X5557444Y-5805313D01*
X5554463Y-5811274D01*
X5551996Y-5813741D01*
X5546035Y-5816722D01*
X5531709Y-5816722D01*
X5525748Y-5813741D01*
X5523281Y-5811275D01*
X5520301Y-5805313D01*
X5520301Y-5726722D01*
X5520109Y-5724771D01*
X5518615Y-5721166D01*
X5515856Y-5718407D01*
X5512252Y-5716914D01*
X5508350Y-5716914D01*
X5504745Y-5718407D01*
X5501986Y-5721166D01*
X5500493Y-5724771D01*
X5500301Y-5726722D01*
X5486775Y-5726722D01*
X5486775Y-5724771D01*
X5485282Y-5721166D01*
X5482523Y-5718407D01*
X5478918Y-5716914D01*
X5476967Y-5716722D01*
X5419825Y-5716722D01*
X5417874Y-5716914D01*
X5414269Y-5718407D01*
X5411510Y-5721166D01*
X5410017Y-5724771D01*
X5377334Y-5724771D01*
X5376930Y-5723560D01*
X5376131Y-5721770D01*
X5375663Y-5721229D01*
X5375343Y-5720591D01*
X5374397Y-5719769D01*
X5373575Y-5718822D01*
X5372936Y-5718502D01*
X5372396Y-5718034D01*
X5371206Y-5717638D01*
X5370085Y-5717077D01*
X5369372Y-5717026D01*
X5368694Y-5716800D01*
X5367444Y-5716889D01*
X5366193Y-5716800D01*
X5365515Y-5717026D01*
X5364802Y-5717077D01*
X5363681Y-5717637D01*
X5362491Y-5718034D01*
X5361951Y-5718502D01*
X5361312Y-5718822D01*
X5360491Y-5719769D01*
X5359544Y-5720591D01*
X5359224Y-5721230D01*
X5358756Y-5721770D01*
X5357957Y-5723560D01*
X5324623Y-5823560D01*
X5324189Y-5825471D01*
X5296491Y-5825471D01*
X5296491Y-5736722D01*
X5315063Y-5736722D01*
X5317013Y-5736530D01*
X5320618Y-5735037D01*
X5323377Y-5732278D01*
X5324870Y-5728673D01*
X5324870Y-5724771D01*
X5323377Y-5721166D01*
X5320618Y-5718407D01*
X5317013Y-5716914D01*
X5315063Y-5716722D01*
X5257920Y-5716722D01*
X5255969Y-5716914D01*
X5252364Y-5718407D01*
X5249605Y-5721166D01*
X5248112Y-5724771D01*
X5236578Y-5724771D01*
X5234301Y-5722796D01*
X5232510Y-5721997D01*
X5218225Y-5717235D01*
X5217258Y-5717015D01*
X5217013Y-5716914D01*
X5216660Y-5716879D01*
X5216313Y-5716800D01*
X5216050Y-5716819D01*
X5215063Y-5716722D01*
X5191253Y-5716722D01*
X5189302Y-5716914D01*
X5188970Y-5717051D01*
X5188612Y-5717077D01*
X5186781Y-5717778D01*
X5177257Y-5722539D01*
X5176417Y-5723068D01*
X5176173Y-5723169D01*
X5175899Y-5723394D01*
X5175598Y-5723584D01*
X5175425Y-5723783D01*
X5174658Y-5724413D01*
X5169896Y-5729175D01*
X5169267Y-5729942D01*
X5169067Y-5730115D01*
X5168878Y-5730415D01*
X5168653Y-5730690D01*
X5168552Y-5730934D01*
X5168023Y-5731774D01*
X5163261Y-5741297D01*
X5162561Y-5743128D01*
X5162535Y-5743486D01*
X5162398Y-5743819D01*
X5162205Y-5745769D01*
X5151094Y-5745769D01*
X5151094Y-5705611D01*
X5688555Y-5705611D01*
X5688555Y-5847833D01*
G37*
X3670748Y-4615884D02*
X3661224Y-4611122D01*
X3661224Y-4611122D02*
X3646939Y-4611122D01*
X3646939Y-4611122D02*
X3632653Y-4615884D01*
X3632653Y-4615884D02*
X3623129Y-4625408D01*
X3623129Y-4625408D02*
X3618367Y-4634931D01*
X3618367Y-4634931D02*
X3613605Y-4653979D01*
X3613605Y-4653979D02*
X3613605Y-4668265D01*
X3613605Y-4668265D02*
X3618367Y-4687312D01*
X3618367Y-4687312D02*
X3623129Y-4696836D01*
X3623129Y-4696836D02*
X3632653Y-4706360D01*
X3632653Y-4706360D02*
X3646939Y-4711122D01*
X3646939Y-4711122D02*
X3656462Y-4711122D01*
X3656462Y-4711122D02*
X3670748Y-4706360D01*
X3670748Y-4706360D02*
X3675510Y-4701598D01*
X3675510Y-4701598D02*
X3675510Y-4668265D01*
X3675510Y-4668265D02*
X3656462Y-4668265D01*
X3718367Y-4711122D02*
X3718367Y-4611122D01*
X3718367Y-4611122D02*
X3775510Y-4711122D01*
X3775510Y-4711122D02*
X3775510Y-4611122D01*
X3823129Y-4711122D02*
X3823129Y-4611122D01*
X3823129Y-4611122D02*
X3846939Y-4611122D01*
X3846939Y-4611122D02*
X3861224Y-4615884D01*
X3861224Y-4615884D02*
X3870748Y-4625408D01*
X3870748Y-4625408D02*
X3875510Y-4634931D01*
X3875510Y-4634931D02*
X3880272Y-4653979D01*
X3880272Y-4653979D02*
X3880272Y-4668265D01*
X3880272Y-4668265D02*
X3875510Y-4687312D01*
X3875510Y-4687312D02*
X3870748Y-4696836D01*
X3870748Y-4696836D02*
X3861224Y-4706360D01*
X3861224Y-4706360D02*
X3846939Y-4711122D01*
X3846939Y-4711122D02*
X3823129Y-4711122D01*
X4046939Y-4611122D02*
X3999320Y-4611122D01*
X3999320Y-4611122D02*
X3994558Y-4658741D01*
X3994558Y-4658741D02*
X3999320Y-4653979D01*
X3999320Y-4653979D02*
X4008843Y-4649217D01*
X4008843Y-4649217D02*
X4032653Y-4649217D01*
X4032653Y-4649217D02*
X4042177Y-4653979D01*
X4042177Y-4653979D02*
X4046939Y-4658741D01*
X4046939Y-4658741D02*
X4051701Y-4668265D01*
X4051701Y-4668265D02*
X4051701Y-4692074D01*
X4051701Y-4692074D02*
X4046939Y-4701598D01*
X4046939Y-4701598D02*
X4042177Y-4706360D01*
X4042177Y-4706360D02*
X4032653Y-4711122D01*
X4032653Y-4711122D02*
X4008843Y-4711122D01*
X4008843Y-4711122D02*
X3999320Y-4706360D01*
X3999320Y-4706360D02*
X3994558Y-4701598D01*
X4080272Y-4611122D02*
X4113605Y-4711122D01*
X4113605Y-4711122D02*
X4146939Y-4611122D01*
X4251701Y-4706360D02*
X4265986Y-4711122D01*
X4265986Y-4711122D02*
X4289796Y-4711122D01*
X4289796Y-4711122D02*
X4299320Y-4706360D01*
X4299320Y-4706360D02*
X4304082Y-4701598D01*
X4304082Y-4701598D02*
X4308844Y-4692074D01*
X4308844Y-4692074D02*
X4308844Y-4682550D01*
X4308844Y-4682550D02*
X4304082Y-4673027D01*
X4304082Y-4673027D02*
X4299320Y-4668265D01*
X4299320Y-4668265D02*
X4289796Y-4663503D01*
X4289796Y-4663503D02*
X4270748Y-4658741D01*
X4270748Y-4658741D02*
X4261225Y-4653979D01*
X4261225Y-4653979D02*
X4256463Y-4649217D01*
X4256463Y-4649217D02*
X4251701Y-4639693D01*
X4251701Y-4639693D02*
X4251701Y-4630170D01*
X4251701Y-4630170D02*
X4256463Y-4620646D01*
X4256463Y-4620646D02*
X4261225Y-4615884D01*
X4261225Y-4615884D02*
X4270748Y-4611122D01*
X4270748Y-4611122D02*
X4294558Y-4611122D01*
X4294558Y-4611122D02*
X4308844Y-4615884D01*
X4351701Y-4711122D02*
X4351701Y-4611122D01*
X4451701Y-4615884D02*
X4442177Y-4611122D01*
X4442177Y-4611122D02*
X4427891Y-4611122D01*
X4427891Y-4611122D02*
X4413605Y-4615884D01*
X4413605Y-4615884D02*
X4404082Y-4625408D01*
X4404082Y-4625408D02*
X4399320Y-4634931D01*
X4399320Y-4634931D02*
X4394558Y-4653979D01*
X4394558Y-4653979D02*
X4394558Y-4668265D01*
X4394558Y-4668265D02*
X4399320Y-4687312D01*
X4399320Y-4687312D02*
X4404082Y-4696836D01*
X4404082Y-4696836D02*
X4413605Y-4706360D01*
X4413605Y-4706360D02*
X4427891Y-4711122D01*
X4427891Y-4711122D02*
X4437415Y-4711122D01*
X4437415Y-4711122D02*
X4451701Y-4706360D01*
X4451701Y-4706360D02*
X4456463Y-4701598D01*
X4456463Y-4701598D02*
X4456463Y-4668265D01*
X4456463Y-4668265D02*
X4437415Y-4668265D01*
X3260275Y-4640476D02*
X3260275Y-4659524D01*
X3260275Y-4659524D02*
X3255513Y-4669048D01*
X3255513Y-4669048D02*
X3245989Y-4678571D01*
X3245989Y-4678571D02*
X3226942Y-4683333D01*
X3226942Y-4683333D02*
X3193609Y-4683333D01*
X3193609Y-4683333D02*
X3174561Y-4678571D01*
X3174561Y-4678571D02*
X3165037Y-4669048D01*
X3165037Y-4669048D02*
X3160275Y-4659524D01*
X3160275Y-4659524D02*
X3160275Y-4640476D01*
X3160275Y-4640476D02*
X3165037Y-4630952D01*
X3165037Y-4630952D02*
X3174561Y-4621429D01*
X3174561Y-4621429D02*
X3193609Y-4616667D01*
X3193609Y-4616667D02*
X3226942Y-4616667D01*
X3226942Y-4616667D02*
X3245989Y-4621429D01*
X3245989Y-4621429D02*
X3255513Y-4630952D01*
X3255513Y-4630952D02*
X3260275Y-4640476D01*
X3160275Y-4740476D02*
X3165037Y-4730952D01*
X3165037Y-4730952D02*
X3169799Y-4726191D01*
X3169799Y-4726191D02*
X3179323Y-4721429D01*
X3179323Y-4721429D02*
X3207894Y-4721429D01*
X3207894Y-4721429D02*
X3217418Y-4726191D01*
X3217418Y-4726191D02*
X3222180Y-4730952D01*
X3222180Y-4730952D02*
X3226942Y-4740476D01*
X3226942Y-4740476D02*
X3226942Y-4754762D01*
X3226942Y-4754762D02*
X3222180Y-4764286D01*
X3222180Y-4764286D02*
X3217418Y-4769048D01*
X3217418Y-4769048D02*
X3207894Y-4773810D01*
X3207894Y-4773810D02*
X3179323Y-4773810D01*
X3179323Y-4773810D02*
X3169799Y-4769048D01*
X3169799Y-4769048D02*
X3165037Y-4764286D01*
X3165037Y-4764286D02*
X3160275Y-4754762D01*
X3160275Y-4754762D02*
X3160275Y-4740476D01*
X3160275Y-4816667D02*
X3260275Y-4816667D01*
X3160275Y-4859524D02*
X3212656Y-4859524D01*
X3212656Y-4859524D02*
X3222180Y-4854762D01*
X3222180Y-4854762D02*
X3226942Y-4845238D01*
X3226942Y-4845238D02*
X3226942Y-4830952D01*
X3226942Y-4830952D02*
X3222180Y-4821429D01*
X3222180Y-4821429D02*
X3217418Y-4816667D01*
X3165037Y-4911905D02*
X3160275Y-4911905D01*
X3160275Y-4911905D02*
X3150751Y-4907143D01*
X3150751Y-4907143D02*
X3145989Y-4902381D01*
X3226942Y-5030952D02*
X3126942Y-5030952D01*
X3222180Y-5030952D02*
X3226942Y-5040476D01*
X3226942Y-5040476D02*
X3226942Y-5059524D01*
X3226942Y-5059524D02*
X3222180Y-5069048D01*
X3222180Y-5069048D02*
X3217418Y-5073810D01*
X3217418Y-5073810D02*
X3207894Y-5078571D01*
X3207894Y-5078571D02*
X3179323Y-5078571D01*
X3179323Y-5078571D02*
X3169799Y-5073810D01*
X3169799Y-5073810D02*
X3165037Y-5069048D01*
X3165037Y-5069048D02*
X3160275Y-5059524D01*
X3160275Y-5059524D02*
X3160275Y-5040476D01*
X3160275Y-5040476D02*
X3165037Y-5030952D01*
X3160275Y-5121429D02*
X3226942Y-5121429D01*
X3260275Y-5121429D02*
X3255513Y-5116667D01*
X3255513Y-5116667D02*
X3250751Y-5121429D01*
X3250751Y-5121429D02*
X3255513Y-5126191D01*
X3255513Y-5126191D02*
X3260275Y-5121429D01*
X3260275Y-5121429D02*
X3250751Y-5121429D01*
X3165037Y-5207143D02*
X3160275Y-5197619D01*
X3160275Y-5197619D02*
X3160275Y-5178571D01*
X3160275Y-5178571D02*
X3165037Y-5169048D01*
X3165037Y-5169048D02*
X3174561Y-5164286D01*
X3174561Y-5164286D02*
X3212656Y-5164286D01*
X3212656Y-5164286D02*
X3222180Y-5169048D01*
X3222180Y-5169048D02*
X3226942Y-5178571D01*
X3226942Y-5178571D02*
X3226942Y-5197619D01*
X3226942Y-5197619D02*
X3222180Y-5207143D01*
X3222180Y-5207143D02*
X3212656Y-5211905D01*
X3212656Y-5211905D02*
X3203132Y-5211905D01*
X3203132Y-5211905D02*
X3193609Y-5164286D01*
X3165037Y-5297619D02*
X3160275Y-5288095D01*
X3160275Y-5288095D02*
X3160275Y-5269048D01*
X3160275Y-5269048D02*
X3165037Y-5259524D01*
X3165037Y-5259524D02*
X3169799Y-5254762D01*
X3169799Y-5254762D02*
X3179323Y-5250000D01*
X3179323Y-5250000D02*
X3207894Y-5250000D01*
X3207894Y-5250000D02*
X3217418Y-5254762D01*
X3217418Y-5254762D02*
X3222180Y-5259524D01*
X3222180Y-5259524D02*
X3226942Y-5269048D01*
X3226942Y-5269048D02*
X3226942Y-5288095D01*
X3226942Y-5288095D02*
X3222180Y-5297619D01*
X3165037Y-5378571D02*
X3160275Y-5369048D01*
X3160275Y-5369048D02*
X3160275Y-5350000D01*
X3160275Y-5350000D02*
X3165037Y-5340476D01*
X3165037Y-5340476D02*
X3174561Y-5335714D01*
X3174561Y-5335714D02*
X3212656Y-5335714D01*
X3212656Y-5335714D02*
X3222180Y-5340476D01*
X3222180Y-5340476D02*
X3226942Y-5350000D01*
X3226942Y-5350000D02*
X3226942Y-5369048D01*
X3226942Y-5369048D02*
X3222180Y-5378571D01*
X3222180Y-5378571D02*
X3212656Y-5383333D01*
X3212656Y-5383333D02*
X3203132Y-5383333D01*
X3203132Y-5383333D02*
X3193609Y-5335714D01*
X2999281Y-4752381D02*
X3004043Y-4742857D01*
X3004043Y-4742857D02*
X3008805Y-4738095D01*
X3008805Y-4738095D02*
X3018328Y-4733333D01*
X3018328Y-4733333D02*
X3046900Y-4733333D01*
X3046900Y-4733333D02*
X3056424Y-4738095D01*
X3056424Y-4738095D02*
X3061186Y-4742857D01*
X3061186Y-4742857D02*
X3065947Y-4752381D01*
X3065947Y-4752381D02*
X3065947Y-4766667D01*
X3065947Y-4766667D02*
X3061186Y-4776190D01*
X3061186Y-4776190D02*
X3056424Y-4780952D01*
X3056424Y-4780952D02*
X3046900Y-4785714D01*
X3046900Y-4785714D02*
X3018328Y-4785714D01*
X3018328Y-4785714D02*
X3008805Y-4780952D01*
X3008805Y-4780952D02*
X3004043Y-4776190D01*
X3004043Y-4776190D02*
X2999281Y-4766667D01*
X2999281Y-4766667D02*
X2999281Y-4752381D01*
X3099281Y-4833333D02*
X3080233Y-4823810D01*
X3004043Y-4919048D02*
X2999281Y-4909524D01*
X2999281Y-4909524D02*
X2999281Y-4890476D01*
X2999281Y-4890476D02*
X3004043Y-4880952D01*
X3004043Y-4880952D02*
X3008805Y-4876190D01*
X3008805Y-4876190D02*
X3018328Y-4871429D01*
X3018328Y-4871429D02*
X3046900Y-4871429D01*
X3046900Y-4871429D02*
X3056424Y-4876190D01*
X3056424Y-4876190D02*
X3061186Y-4880952D01*
X3061186Y-4880952D02*
X3065947Y-4890476D01*
X3065947Y-4890476D02*
X3065947Y-4909524D01*
X3065947Y-4909524D02*
X3061186Y-4919048D01*
X2999281Y-5004762D02*
X3051662Y-5004762D01*
X3051662Y-5004762D02*
X3061186Y-5000000D01*
X3061186Y-5000000D02*
X3065947Y-4990476D01*
X3065947Y-4990476D02*
X3065947Y-4971429D01*
X3065947Y-4971429D02*
X3061186Y-4961905D01*
X3004043Y-5004762D02*
X2999281Y-4995238D01*
X2999281Y-4995238D02*
X2999281Y-4971429D01*
X2999281Y-4971429D02*
X3004043Y-4961905D01*
X3004043Y-4961905D02*
X3013567Y-4957143D01*
X3013567Y-4957143D02*
X3023090Y-4957143D01*
X3023090Y-4957143D02*
X3032614Y-4961905D01*
X3032614Y-4961905D02*
X3037376Y-4971429D01*
X3037376Y-4971429D02*
X3037376Y-4995238D01*
X3037376Y-4995238D02*
X3042138Y-5004762D01*
X3065947Y-5052381D02*
X2999281Y-5052381D01*
X3056424Y-5052381D02*
X3061186Y-5057143D01*
X3061186Y-5057143D02*
X3065947Y-5066667D01*
X3065947Y-5066667D02*
X3065947Y-5080952D01*
X3065947Y-5080952D02*
X3061186Y-5090476D01*
X3061186Y-5090476D02*
X3051662Y-5095238D01*
X3051662Y-5095238D02*
X2999281Y-5095238D01*
X2999281Y-5185714D02*
X3099281Y-5185714D01*
X3004043Y-5185714D02*
X2999281Y-5176190D01*
X2999281Y-5176190D02*
X2999281Y-5157143D01*
X2999281Y-5157143D02*
X3004043Y-5147619D01*
X3004043Y-5147619D02*
X3008805Y-5142857D01*
X3008805Y-5142857D02*
X3018328Y-5138095D01*
X3018328Y-5138095D02*
X3046900Y-5138095D01*
X3046900Y-5138095D02*
X3056424Y-5142857D01*
X3056424Y-5142857D02*
X3061186Y-5147619D01*
X3061186Y-5147619D02*
X3065947Y-5157143D01*
X3065947Y-5157143D02*
X3065947Y-5176190D01*
X3065947Y-5176190D02*
X3061186Y-5185714D01*
X3065947Y-5223810D02*
X2999281Y-5247619D01*
X3065947Y-5271429D02*
X2999281Y-5247619D01*
X2999281Y-5247619D02*
X2975471Y-5238095D01*
X2975471Y-5238095D02*
X2970709Y-5233333D01*
X2970709Y-5233333D02*
X2965947Y-5223810D01*
D11*
G36*
X5273129Y-5157910D02*
G01*
X5246322Y-5157910D01*
X5259726Y-5117699D01*
X5273129Y-5157910D01*
G37*
G36*
X5311611Y-5212534D02*
G01*
X5207840Y-5212534D01*
X5207840Y-5193044D01*
X5218951Y-5193044D01*
X5219159Y-5195963D01*
X5220467Y-5198580D01*
X5222678Y-5200498D01*
X5225454Y-5201423D01*
X5228373Y-5201216D01*
X5230991Y-5199907D01*
X5232908Y-5197696D01*
X5233507Y-5196354D01*
X5241322Y-5172910D01*
X5278129Y-5172910D01*
X5285944Y-5196354D01*
X5286543Y-5197696D01*
X5288461Y-5199907D01*
X5291078Y-5201216D01*
X5293997Y-5201423D01*
X5296773Y-5200498D01*
X5298984Y-5198580D01*
X5300292Y-5195963D01*
X5300500Y-5193044D01*
X5300174Y-5191610D01*
X5266841Y-5091610D01*
X5266241Y-5090268D01*
X5265890Y-5089863D01*
X5265651Y-5089384D01*
X5264940Y-5088767D01*
X5264324Y-5088057D01*
X5263844Y-5087817D01*
X5263440Y-5087466D01*
X5262548Y-5087169D01*
X5261707Y-5086748D01*
X5261172Y-5086710D01*
X5260664Y-5086541D01*
X5259726Y-5086607D01*
X5258788Y-5086541D01*
X5258279Y-5086710D01*
X5257745Y-5086748D01*
X5256904Y-5087169D01*
X5256011Y-5087466D01*
X5255606Y-5087818D01*
X5255127Y-5088057D01*
X5254511Y-5088767D01*
X5253801Y-5089384D01*
X5253561Y-5089863D01*
X5253210Y-5090268D01*
X5252610Y-5091610D01*
X5219277Y-5191610D01*
X5218951Y-5193044D01*
X5207840Y-5193044D01*
X5207840Y-5075430D01*
X5311611Y-5075430D01*
X5311611Y-5212534D01*
G37*
D10*
G36*
X3564389Y-4445267D02*
G01*
X3422167Y-4445267D01*
X3422167Y-4367205D01*
X3433278Y-4367205D01*
X3433278Y-4424348D01*
X3433470Y-4426299D01*
X3434963Y-4429904D01*
X3437722Y-4432663D01*
X3441327Y-4434156D01*
X3445229Y-4434156D01*
X3448834Y-4432663D01*
X3451593Y-4429904D01*
X3453086Y-4426299D01*
X3453278Y-4424348D01*
X3453278Y-4405777D01*
X3543278Y-4405777D01*
X3543285Y-4405776D01*
X3543288Y-4405777D01*
X3543299Y-4405775D01*
X3545229Y-4405585D01*
X3546144Y-4405206D01*
X3547114Y-4405012D01*
X3547928Y-4404466D01*
X3548834Y-4404092D01*
X3549534Y-4403392D01*
X3550356Y-4402841D01*
X3550900Y-4402025D01*
X3551593Y-4401333D01*
X3551971Y-4400418D01*
X3552521Y-4399594D01*
X3552711Y-4398633D01*
X3553086Y-4397728D01*
X3553086Y-4396738D01*
X3553278Y-4395766D01*
X3553086Y-4394806D01*
X3553086Y-4393826D01*
X3552707Y-4392911D01*
X3552513Y-4391940D01*
X3551968Y-4391126D01*
X3551593Y-4390221D01*
X3550893Y-4389521D01*
X3550342Y-4388698D01*
X3548841Y-4387469D01*
X3548834Y-4387462D01*
X3548830Y-4387461D01*
X3548825Y-4387456D01*
X3535363Y-4378482D01*
X3527687Y-4370806D01*
X3523651Y-4362733D01*
X3522607Y-4361074D01*
X3519659Y-4358518D01*
X3515957Y-4357284D01*
X3512065Y-4357561D01*
X3508575Y-4359305D01*
X3506019Y-4362253D01*
X3504785Y-4365955D01*
X3505062Y-4369847D01*
X3505762Y-4371678D01*
X3510524Y-4381201D01*
X3511053Y-4382041D01*
X3511154Y-4382285D01*
X3511379Y-4382560D01*
X3511568Y-4382860D01*
X3511768Y-4383033D01*
X3512397Y-4383800D01*
X3514374Y-4385777D01*
X3453278Y-4385777D01*
X3453278Y-4367205D01*
X3453086Y-4365255D01*
X3451593Y-4361650D01*
X3448834Y-4358891D01*
X3445229Y-4357398D01*
X3441327Y-4357398D01*
X3437722Y-4358891D01*
X3434963Y-4361650D01*
X3433470Y-4365255D01*
X3433278Y-4367205D01*
X3422167Y-4367205D01*
X3422167Y-4346173D01*
X3564389Y-4346173D01*
X3564389Y-4445267D01*
G37*
X3670748Y-5276284D02*
X3661224Y-5271522D01*
X3661224Y-5271522D02*
X3646939Y-5271522D01*
X3646939Y-5271522D02*
X3632653Y-5276284D01*
X3632653Y-5276284D02*
X3623129Y-5285808D01*
X3623129Y-5285808D02*
X3618367Y-5295331D01*
X3618367Y-5295331D02*
X3613605Y-5314379D01*
X3613605Y-5314379D02*
X3613605Y-5328665D01*
X3613605Y-5328665D02*
X3618367Y-5347712D01*
X3618367Y-5347712D02*
X3623129Y-5357236D01*
X3623129Y-5357236D02*
X3632653Y-5366760D01*
X3632653Y-5366760D02*
X3646939Y-5371522D01*
X3646939Y-5371522D02*
X3656462Y-5371522D01*
X3656462Y-5371522D02*
X3670748Y-5366760D01*
X3670748Y-5366760D02*
X3675510Y-5361998D01*
X3675510Y-5361998D02*
X3675510Y-5328665D01*
X3675510Y-5328665D02*
X3656462Y-5328665D01*
X3718367Y-5371522D02*
X3718367Y-5271522D01*
X3718367Y-5271522D02*
X3775510Y-5371522D01*
X3775510Y-5371522D02*
X3775510Y-5271522D01*
X3823129Y-5371522D02*
X3823129Y-5271522D01*
X3823129Y-5271522D02*
X3846939Y-5271522D01*
X3846939Y-5271522D02*
X3861224Y-5276284D01*
X3861224Y-5276284D02*
X3870748Y-5285808D01*
X3870748Y-5285808D02*
X3875510Y-5295331D01*
X3875510Y-5295331D02*
X3880272Y-5314379D01*
X3880272Y-5314379D02*
X3880272Y-5328665D01*
X3880272Y-5328665D02*
X3875510Y-5347712D01*
X3875510Y-5347712D02*
X3870748Y-5357236D01*
X3870748Y-5357236D02*
X3861224Y-5366760D01*
X3861224Y-5366760D02*
X3846939Y-5371522D01*
X3846939Y-5371522D02*
X3823129Y-5371522D01*
X4046939Y-5271522D02*
X3999320Y-5271522D01*
X3999320Y-5271522D02*
X3994558Y-5319141D01*
X3994558Y-5319141D02*
X3999320Y-5314379D01*
X3999320Y-5314379D02*
X4008843Y-5309617D01*
X4008843Y-5309617D02*
X4032653Y-5309617D01*
X4032653Y-5309617D02*
X4042177Y-5314379D01*
X4042177Y-5314379D02*
X4046939Y-5319141D01*
X4046939Y-5319141D02*
X4051701Y-5328665D01*
X4051701Y-5328665D02*
X4051701Y-5352474D01*
X4051701Y-5352474D02*
X4046939Y-5361998D01*
X4046939Y-5361998D02*
X4042177Y-5366760D01*
X4042177Y-5366760D02*
X4032653Y-5371522D01*
X4032653Y-5371522D02*
X4008843Y-5371522D01*
X4008843Y-5371522D02*
X3999320Y-5366760D01*
X3999320Y-5366760D02*
X3994558Y-5361998D01*
X4080272Y-5271522D02*
X4113605Y-5371522D01*
X4113605Y-5371522D02*
X4146939Y-5271522D01*
X4251701Y-5366760D02*
X4265986Y-5371522D01*
X4265986Y-5371522D02*
X4289796Y-5371522D01*
X4289796Y-5371522D02*
X4299320Y-5366760D01*
X4299320Y-5366760D02*
X4304082Y-5361998D01*
X4304082Y-5361998D02*
X4308844Y-5352474D01*
X4308844Y-5352474D02*
X4308844Y-5342950D01*
X4308844Y-5342950D02*
X4304082Y-5333427D01*
X4304082Y-5333427D02*
X4299320Y-5328665D01*
X4299320Y-5328665D02*
X4289796Y-5323903D01*
X4289796Y-5323903D02*
X4270748Y-5319141D01*
X4270748Y-5319141D02*
X4261225Y-5314379D01*
X4261225Y-5314379D02*
X4256463Y-5309617D01*
X4256463Y-5309617D02*
X4251701Y-5300093D01*
X4251701Y-5300093D02*
X4251701Y-5290570D01*
X4251701Y-5290570D02*
X4256463Y-5281046D01*
X4256463Y-5281046D02*
X4261225Y-5276284D01*
X4261225Y-5276284D02*
X4270748Y-5271522D01*
X4270748Y-5271522D02*
X4294558Y-5271522D01*
X4294558Y-5271522D02*
X4308844Y-5276284D01*
X4351701Y-5371522D02*
X4351701Y-5271522D01*
X4451701Y-5276284D02*
X4442177Y-5271522D01*
X4442177Y-5271522D02*
X4427891Y-5271522D01*
X4427891Y-5271522D02*
X4413605Y-5276284D01*
X4413605Y-5276284D02*
X4404082Y-5285808D01*
X4404082Y-5285808D02*
X4399320Y-5295331D01*
X4399320Y-5295331D02*
X4394558Y-5314379D01*
X4394558Y-5314379D02*
X4394558Y-5328665D01*
X4394558Y-5328665D02*
X4399320Y-5347712D01*
X4399320Y-5347712D02*
X4404082Y-5357236D01*
X4404082Y-5357236D02*
X4413605Y-5366760D01*
X4413605Y-5366760D02*
X4427891Y-5371522D01*
X4427891Y-5371522D02*
X4437415Y-5371522D01*
X4437415Y-5371522D02*
X4451701Y-5366760D01*
X4451701Y-5366760D02*
X4456463Y-5361998D01*
X4456463Y-5361998D02*
X4456463Y-5328665D01*
X4456463Y-5328665D02*
X4437415Y-5328665D01*
D11*
X4770958Y-4521667D02*
X4775720Y-4526429D01*
X4775720Y-4526429D02*
X4780482Y-4540714D01*
X4780482Y-4540714D02*
X4780482Y-4550238D01*
X4780482Y-4550238D02*
X4775720Y-4564524D01*
X4775720Y-4564524D02*
X4766196Y-4574048D01*
X4766196Y-4574048D02*
X4756672Y-4578809D01*
X4756672Y-4578809D02*
X4737625Y-4583571D01*
X4737625Y-4583571D02*
X4723339Y-4583571D01*
X4723339Y-4583571D02*
X4704291Y-4578809D01*
X4704291Y-4578809D02*
X4694768Y-4574048D01*
X4694768Y-4574048D02*
X4685244Y-4564524D01*
X4685244Y-4564524D02*
X4680482Y-4550238D01*
X4680482Y-4550238D02*
X4680482Y-4540714D01*
X4680482Y-4540714D02*
X4685244Y-4526429D01*
X4685244Y-4526429D02*
X4690006Y-4521667D01*
X4690006Y-4483571D02*
X4685244Y-4478809D01*
X4685244Y-4478809D02*
X4680482Y-4469286D01*
X4680482Y-4469286D02*
X4680482Y-4445476D01*
X4680482Y-4445476D02*
X4685244Y-4435952D01*
X4685244Y-4435952D02*
X4690006Y-4431190D01*
X4690006Y-4431190D02*
X4699530Y-4426429D01*
X4699530Y-4426429D02*
X4709053Y-4426429D01*
X4709053Y-4426429D02*
X4723339Y-4431190D01*
X4723339Y-4431190D02*
X4780482Y-4488333D01*
X4780482Y-4488333D02*
X4780482Y-4426429D01*
X4650591Y-5811282D02*
X4650591Y-5711282D01*
X4650591Y-5711282D02*
X4674400Y-5711282D01*
X4674400Y-5711282D02*
X4688686Y-5716044D01*
X4688686Y-5716044D02*
X4698210Y-5725568D01*
X4698210Y-5725568D02*
X4702971Y-5735091D01*
X4702971Y-5735091D02*
X4707733Y-5754139D01*
X4707733Y-5754139D02*
X4707733Y-5768425D01*
X4707733Y-5768425D02*
X4702971Y-5787472D01*
X4702971Y-5787472D02*
X4698210Y-5796996D01*
X4698210Y-5796996D02*
X4688686Y-5806520D01*
X4688686Y-5806520D02*
X4674400Y-5811282D01*
X4674400Y-5811282D02*
X4650591Y-5811282D01*
X4802971Y-5811282D02*
X4745829Y-5811282D01*
X4774400Y-5811282D02*
X4774400Y-5711282D01*
X4774400Y-5711282D02*
X4764876Y-5725568D01*
X4764876Y-5725568D02*
X4755352Y-5735091D01*
X4755352Y-5735091D02*
X4745829Y-5739853D01*
X6543333Y-5195958D02*
X6538571Y-5200720D01*
X6538571Y-5200720D02*
X6524286Y-5205482D01*
X6524286Y-5205482D02*
X6514762Y-5205482D01*
X6514762Y-5205482D02*
X6500476Y-5200720D01*
X6500476Y-5200720D02*
X6490952Y-5191196D01*
X6490952Y-5191196D02*
X6486190Y-5181672D01*
X6486190Y-5181672D02*
X6481429Y-5162625D01*
X6481429Y-5162625D02*
X6481429Y-5148339D01*
X6481429Y-5148339D02*
X6486190Y-5129291D01*
X6486190Y-5129291D02*
X6490952Y-5119768D01*
X6490952Y-5119768D02*
X6500476Y-5110244D01*
X6500476Y-5110244D02*
X6514762Y-5105482D01*
X6514762Y-5105482D02*
X6524286Y-5105482D01*
X6524286Y-5105482D02*
X6538571Y-5110244D01*
X6538571Y-5110244D02*
X6543333Y-5115006D01*
X6638571Y-5205482D02*
X6581429Y-5205482D01*
X6610000Y-5205482D02*
X6610000Y-5105482D01*
X6610000Y-5105482D02*
X6600476Y-5119768D01*
X6600476Y-5119768D02*
X6590952Y-5129291D01*
X6590952Y-5129291D02*
X6581429Y-5134053D01*
X5713733Y-5010830D02*
X5713733Y-5067972D01*
X5713733Y-5067972D02*
X5709924Y-5079401D01*
X5709924Y-5079401D02*
X5702305Y-5087020D01*
X5702305Y-5087020D02*
X5690876Y-5090830D01*
X5690876Y-5090830D02*
X5683257Y-5090830D01*
X5789924Y-5010830D02*
X5751829Y-5010830D01*
X5751829Y-5010830D02*
X5748019Y-5048925D01*
X5748019Y-5048925D02*
X5751829Y-5045115D01*
X5751829Y-5045115D02*
X5759448Y-5041306D01*
X5759448Y-5041306D02*
X5778495Y-5041306D01*
X5778495Y-5041306D02*
X5786114Y-5045115D01*
X5786114Y-5045115D02*
X5789924Y-5048925D01*
X5789924Y-5048925D02*
X5793733Y-5056544D01*
X5793733Y-5056544D02*
X5793733Y-5075591D01*
X5793733Y-5075591D02*
X5789924Y-5083210D01*
X5789924Y-5083210D02*
X5786114Y-5087020D01*
X5786114Y-5087020D02*
X5778495Y-5090830D01*
X5778495Y-5090830D02*
X5759448Y-5090830D01*
X5759448Y-5090830D02*
X5751829Y-5087020D01*
X5751829Y-5087020D02*
X5748019Y-5083210D01*
X4900933Y-5010830D02*
X4900933Y-5067972D01*
X4900933Y-5067972D02*
X4897124Y-5079401D01*
X4897124Y-5079401D02*
X4889505Y-5087020D01*
X4889505Y-5087020D02*
X4878076Y-5090830D01*
X4878076Y-5090830D02*
X4870457Y-5090830D01*
X4973314Y-5010830D02*
X4958076Y-5010830D01*
X4958076Y-5010830D02*
X4950457Y-5014639D01*
X4950457Y-5014639D02*
X4946648Y-5018449D01*
X4946648Y-5018449D02*
X4939029Y-5029877D01*
X4939029Y-5029877D02*
X4935219Y-5045115D01*
X4935219Y-5045115D02*
X4935219Y-5075591D01*
X4935219Y-5075591D02*
X4939029Y-5083210D01*
X4939029Y-5083210D02*
X4942838Y-5087020D01*
X4942838Y-5087020D02*
X4950457Y-5090830D01*
X4950457Y-5090830D02*
X4965695Y-5090830D01*
X4965695Y-5090830D02*
X4973314Y-5087020D01*
X4973314Y-5087020D02*
X4977124Y-5083210D01*
X4977124Y-5083210D02*
X4980933Y-5075591D01*
X4980933Y-5075591D02*
X4980933Y-5056544D01*
X4980933Y-5056544D02*
X4977124Y-5048925D01*
X4977124Y-5048925D02*
X4973314Y-5045115D01*
X4973314Y-5045115D02*
X4965695Y-5041306D01*
X4965695Y-5041306D02*
X4950457Y-5041306D01*
X4950457Y-5041306D02*
X4942838Y-5045115D01*
X4942838Y-5045115D02*
X4939029Y-5048925D01*
X4939029Y-5048925D02*
X4935219Y-5056544D01*
X4720333Y-5201682D02*
X4687000Y-5154063D01*
X4663191Y-5201682D02*
X4663191Y-5101682D01*
X4663191Y-5101682D02*
X4701286Y-5101682D01*
X4701286Y-5101682D02*
X4710810Y-5106444D01*
X4710810Y-5106444D02*
X4715571Y-5111206D01*
X4715571Y-5111206D02*
X4720333Y-5120730D01*
X4720333Y-5120730D02*
X4720333Y-5135015D01*
X4720333Y-5135015D02*
X4715571Y-5144539D01*
X4715571Y-5144539D02*
X4710810Y-5149301D01*
X4710810Y-5149301D02*
X4701286Y-5154063D01*
X4701286Y-5154063D02*
X4663191Y-5154063D01*
X4815571Y-5201682D02*
X4758429Y-5201682D01*
X4787000Y-5201682D02*
X4787000Y-5101682D01*
X4787000Y-5101682D02*
X4777476Y-5115968D01*
X4777476Y-5115968D02*
X4767952Y-5125491D01*
X4767952Y-5125491D02*
X4758429Y-5130253D01*
D12*
%TO.C,J1*%
X3564000Y-4174000D02*
X3564000Y-4586000D01*
X3564000Y-4586000D02*
X4576000Y-4586000D01*
X3664000Y-4074000D02*
X3564000Y-4174000D01*
X4576000Y-4074000D02*
X3664000Y-4074000D01*
X4576000Y-4586000D02*
X4576000Y-4074000D01*
X4606000Y-4044000D02*
X4365000Y-4044000D01*
X4606000Y-4285000D02*
X4606000Y-4044000D01*
%TO.C,C2*%
X4684000Y-4276558D02*
X4684000Y-4248442D01*
X4786000Y-4276558D02*
X4786000Y-4248442D01*
%TO.C,D1*%
X4886250Y-5861800D02*
X5154750Y-5861800D01*
X5154750Y-5669800D02*
X4886250Y-5669800D01*
X5154750Y-5861800D02*
X5154750Y-5669800D01*
%TO.C,J2*%
X3564000Y-4834400D02*
X3564000Y-5246400D01*
X3564000Y-5246400D02*
X4576000Y-5246400D01*
X3664000Y-4734400D02*
X3564000Y-4834400D01*
X4576000Y-4734400D02*
X3664000Y-4734400D01*
X4576000Y-5246400D02*
X4576000Y-4734400D01*
X4606000Y-4704400D02*
X4365000Y-4704400D01*
X4606000Y-4945400D02*
X4606000Y-4704400D01*
%TO.C,C1*%
X6308442Y-5109000D02*
X6336558Y-5109000D01*
X6308442Y-5211000D02*
X6336558Y-5211000D01*
D10*
%TO.C,J5*%
X5836000Y-4081000D02*
X5836000Y-4272000D01*
X5836000Y-5063000D02*
X5836000Y-5002000D01*
X5946000Y-4132000D02*
X5946000Y-4092000D01*
X6246000Y-4092000D02*
X6246000Y-4132000D01*
X6246000Y-4132000D02*
X5946000Y-4132000D01*
X6356000Y-4081000D02*
X5836000Y-4081000D01*
X6356000Y-4152000D02*
X6356000Y-4081000D01*
X6356000Y-4872000D02*
X6356000Y-5063000D01*
X6356000Y-5063000D02*
X5836000Y-5063000D01*
X6406000Y-4132000D02*
G75*
G02*
X6386000Y-4132000I-10000J0D01*
G01*
X6386000Y-4132000D02*
G75*
G02*
X6406000Y-4132000I10000J0D01*
G01*
D12*
%TO.C,J3*%
X3564000Y-5507500D02*
X3564000Y-5919500D01*
X3564000Y-5919500D02*
X4576000Y-5919500D01*
X3664000Y-5407500D02*
X3564000Y-5507500D01*
X4576000Y-5407500D02*
X3664000Y-5407500D01*
X4576000Y-5919500D02*
X4576000Y-5407500D01*
X4606000Y-5377500D02*
X4365000Y-5377500D01*
X4606000Y-5618500D02*
X4606000Y-5377500D01*
D10*
%TO.C,J6*%
X5010500Y-4081000D02*
X5010500Y-4272000D01*
X5010500Y-5063000D02*
X5010500Y-5002000D01*
X5120500Y-4132000D02*
X5120500Y-4092000D01*
X5420500Y-4092000D02*
X5420500Y-4132000D01*
X5420500Y-4132000D02*
X5120500Y-4132000D01*
X5530500Y-4081000D02*
X5010500Y-4081000D01*
X5530500Y-4152000D02*
X5530500Y-4081000D01*
X5530500Y-4872000D02*
X5530500Y-5063000D01*
X5530500Y-5063000D02*
X5010500Y-5063000D01*
X5580500Y-4132000D02*
G75*
G02*
X5560500Y-4132000I-10000J0D01*
G01*
X5560500Y-4132000D02*
G75*
G02*
X5580500Y-4132000I10000J0D01*
G01*
D12*
%TO.C,R1*%
X5033826Y-5103950D02*
X4986374Y-5103950D01*
X5033826Y-5208450D02*
X4986374Y-5208450D01*
%TD*%
M02*
