%TF.GenerationSoftware,KiCad,Pcbnew,9.0.5-9.0.5~ubuntu25.04.1*%
%TF.CreationDate,2026-03-12T18:03:06+01:00*%
%TF.ProjectId,Repartiteur,52657061-7274-4697-9465-75722e6b6963,1.0*%
%TF.SameCoordinates,Original*%
%TF.FileFunction,Paste,Top*%
%TF.FilePolarity,Positive*%
%FSLAX45Y45*%
G04 Gerber Fmt 4.5, Leading zero omitted, Abs format (unit mm)*
G04 Created by KiCad (PCBNEW 9.0.5-9.0.5~ubuntu25.04.1) date 2026-03-12 18:03:06*
%MOMM*%
%LPD*%
G01*
G04 APERTURE LIST*
G04 Aperture macros list*
%AMRoundRect*
0 Rectangle with rounded corners*
0 $1 Rounding radius*
0 $2 $3 $4 $5 $6 $7 $8 $9 X,Y pos of 4 corners*
0 Add a 4 corners polygon primitive as box body*
4,1,4,$2,$3,$4,$5,$6,$7,$8,$9,$2,$3,0*
0 Add four circle primitives for the rounded corners*
1,1,$1+$1,$2,$3*
1,1,$1+$1,$4,$5*
1,1,$1+$1,$6,$7*
1,1,$1+$1,$8,$9*
0 Add four rect primitives between the rounded corners*
20,1,$1+$1,$2,$3,$4,$5,0*
20,1,$1+$1,$4,$5,$6,$7,0*
20,1,$1+$1,$6,$7,$8,$9,0*
20,1,$1+$1,$8,$9,$2,$3,0*%
G04 Aperture macros list end*
%ADD10RoundRect,0.100000X-0.637500X-0.100000X0.637500X-0.100000X0.637500X0.100000X-0.637500X0.100000X0*%
%ADD11RoundRect,0.200000X0.200000X0.275000X-0.200000X0.275000X-0.200000X-0.275000X0.200000X-0.275000X0*%
%ADD12R,1.500000X3.000000*%
%ADD13RoundRect,0.200000X-0.200000X-0.275000X0.200000X-0.275000X0.200000X0.275000X-0.200000X0.275000X0*%
%ADD14RoundRect,0.225000X-0.225000X-0.250000X0.225000X-0.250000X0.225000X0.250000X-0.225000X0.250000X0*%
%ADD15RoundRect,0.225000X-0.250000X0.225000X-0.250000X-0.225000X0.250000X-0.225000X0.250000X0.225000X0*%
%ADD16RoundRect,0.200000X0.275000X-0.200000X0.275000X0.200000X-0.275000X0.200000X-0.275000X-0.200000X0*%
%ADD17RoundRect,0.225000X0.225000X0.250000X-0.225000X0.250000X-0.225000X-0.250000X0.225000X-0.250000X0*%
%ADD18RoundRect,0.200000X-0.275000X0.200000X-0.275000X-0.200000X0.275000X-0.200000X0.275000X0.200000X0*%
%ADD19RoundRect,0.150000X-0.512500X-0.150000X0.512500X-0.150000X0.512500X0.150000X-0.512500X0.150000X0*%
G04 APERTURE END LIST*
D10*
%TO.C,U2*%
X7880000Y-10365000D03*
X7880000Y-10430000D03*
X7880000Y-10495000D03*
X7880000Y-10560000D03*
X7880000Y-10625000D03*
X7880000Y-10690000D03*
X7880000Y-10755000D03*
X7880000Y-10820000D03*
X7880000Y-10885000D03*
X7880000Y-10950000D03*
X7880000Y-11015000D03*
X7880000Y-11080000D03*
X7880000Y-11145000D03*
X7880000Y-11210000D03*
X8452500Y-11210000D03*
X8452500Y-11145000D03*
X8452500Y-11080000D03*
X8452500Y-11015000D03*
X8452500Y-10950000D03*
X8452500Y-10885000D03*
X8452500Y-10820000D03*
X8452500Y-10755000D03*
X8452500Y-10690000D03*
X8452500Y-10625000D03*
X8452500Y-10560000D03*
X8452500Y-10495000D03*
X8452500Y-10430000D03*
X8452500Y-10365000D03*
%TD*%
D11*
%TO.C,R13*%
X7628750Y-10347500D03*
X7463750Y-10347500D03*
%TD*%
D12*
%TO.C,J7*%
X14139000Y-8550000D03*
X14266000Y-9000000D03*
X14393000Y-8550000D03*
X14520000Y-9000000D03*
X14647000Y-8550000D03*
X14774000Y-9000000D03*
%TD*%
D10*
%TO.C,U3*%
X11573750Y-9842500D03*
X11573750Y-9907500D03*
X11573750Y-9972500D03*
X11573750Y-10037500D03*
X11573750Y-10102500D03*
X11573750Y-10167500D03*
X11573750Y-10232500D03*
X11573750Y-10297500D03*
X11573750Y-10362500D03*
X11573750Y-10427500D03*
X11573750Y-10492500D03*
X11573750Y-10557500D03*
X12146250Y-10557500D03*
X12146250Y-10492500D03*
X12146250Y-10427500D03*
X12146250Y-10362500D03*
X12146250Y-10297500D03*
X12146250Y-10232500D03*
X12146250Y-10167500D03*
X12146250Y-10102500D03*
X12146250Y-10037500D03*
X12146250Y-9972500D03*
X12146250Y-9907500D03*
X12146250Y-9842500D03*
%TD*%
D11*
%TO.C,R14*%
X7631250Y-10507500D03*
X7466250Y-10507500D03*
%TD*%
D13*
%TO.C,R21*%
X8706250Y-10427500D03*
X8871250Y-10427500D03*
%TD*%
D14*
%TO.C,C9*%
X8288750Y-10187500D03*
X8443750Y-10187500D03*
%TD*%
D11*
%TO.C,R15*%
X7631250Y-10667500D03*
X7466250Y-10667500D03*
%TD*%
%TO.C,R1*%
X11279900Y-9965100D03*
X11114900Y-9965100D03*
%TD*%
D12*
%TO.C,J2*%
X5219000Y-9370000D03*
X5346000Y-9820000D03*
X5473000Y-9370000D03*
X5600000Y-9820000D03*
X5727000Y-9370000D03*
X5854000Y-9820000D03*
%TD*%
D13*
%TO.C,R25*%
X8706250Y-11067500D03*
X8871250Y-11067500D03*
%TD*%
D15*
%TO.C,C6*%
X8886250Y-9670000D03*
X8886250Y-9825000D03*
%TD*%
D11*
%TO.C,R9*%
X11279900Y-10605100D03*
X11114900Y-10605100D03*
%TD*%
D12*
%TO.C,J6*%
X5219000Y-10190000D03*
X5346000Y-10640000D03*
X5473000Y-10190000D03*
X5600000Y-10640000D03*
X5727000Y-10190000D03*
X5854000Y-10640000D03*
%TD*%
D11*
%TO.C,R16*%
X7631250Y-10827500D03*
X7466250Y-10827500D03*
%TD*%
%TO.C,R3*%
X11279900Y-10285100D03*
X11114900Y-10285100D03*
%TD*%
D16*
%TO.C,R7*%
X8446250Y-11552500D03*
X8446250Y-11387500D03*
%TD*%
D12*
%TO.C,J5*%
X5219000Y-11010000D03*
X5346000Y-11460000D03*
X5473000Y-11010000D03*
X5600000Y-11460000D03*
X5727000Y-11010000D03*
X5854000Y-11460000D03*
%TD*%
D11*
%TO.C,R8*%
X11279900Y-10125100D03*
X11114900Y-10125100D03*
%TD*%
D13*
%TO.C,R22*%
X8706250Y-10587500D03*
X8871250Y-10587500D03*
%TD*%
D15*
%TO.C,C5*%
X8246250Y-9667500D03*
X8246250Y-9822500D03*
%TD*%
D17*
%TO.C,C7*%
X12157500Y-9700000D03*
X12002500Y-9700000D03*
%TD*%
D12*
%TO.C,J1*%
X5219000Y-8550000D03*
X5346000Y-9000000D03*
X5473000Y-8550000D03*
X5600000Y-9000000D03*
X5727000Y-8550000D03*
X5854000Y-9000000D03*
%TD*%
D11*
%TO.C,R20*%
X7631250Y-11467500D03*
X7466250Y-11467500D03*
%TD*%
D13*
%TO.C,R24*%
X8706250Y-10907500D03*
X8871250Y-10907500D03*
%TD*%
%TO.C,R27*%
X8706250Y-11387500D03*
X8871250Y-11387500D03*
%TD*%
D18*
%TO.C,R11*%
X11540000Y-10757500D03*
X11540000Y-10922500D03*
%TD*%
D13*
%TO.C,R31*%
X11114900Y-9645100D03*
X11279900Y-9645100D03*
%TD*%
D11*
%TO.C,R18*%
X7631250Y-11147500D03*
X7466250Y-11147500D03*
%TD*%
D13*
%TO.C,R26*%
X8706250Y-11227500D03*
X8871250Y-11227500D03*
%TD*%
D11*
%TO.C,R10*%
X11279900Y-10445100D03*
X11114900Y-10445100D03*
%TD*%
D13*
%TO.C,R23*%
X8706250Y-10747500D03*
X8871250Y-10747500D03*
%TD*%
D11*
%TO.C,R5*%
X12522500Y-10020000D03*
X12357500Y-10020000D03*
%TD*%
%TO.C,R2*%
X11279900Y-9805100D03*
X11114900Y-9805100D03*
%TD*%
D13*
%TO.C,R28*%
X8701250Y-11567500D03*
X8866250Y-11567500D03*
%TD*%
D19*
%TO.C,U1*%
X8472500Y-9650000D03*
X8472500Y-9745000D03*
X8472500Y-9840000D03*
X8700000Y-9840000D03*
X8700000Y-9650000D03*
%TD*%
D11*
%TO.C,R17*%
X7631250Y-10987500D03*
X7466250Y-10987500D03*
%TD*%
%TO.C,R4*%
X12522500Y-9860000D03*
X12357500Y-9860000D03*
%TD*%
%TO.C,R19*%
X7631250Y-11307500D03*
X7466250Y-11307500D03*
%TD*%
D12*
%TO.C,J3*%
X14139000Y-11010000D03*
X14266000Y-11460000D03*
X14393000Y-11010000D03*
X14520000Y-11460000D03*
X14647000Y-11010000D03*
X14774000Y-11460000D03*
%TD*%
%TO.C,J4*%
X14139000Y-10190000D03*
X14266000Y-10640000D03*
X14393000Y-10190000D03*
X14520000Y-10640000D03*
X14647000Y-10190000D03*
X14774000Y-10640000D03*
%TD*%
%TO.C,J8*%
X14139000Y-9370000D03*
X14266000Y-9820000D03*
X14393000Y-9370000D03*
X14520000Y-9820000D03*
X14647000Y-9370000D03*
X14774000Y-9820000D03*
%TD*%
D18*
%TO.C,R12*%
X11380000Y-10757500D03*
X11380000Y-10922500D03*
%TD*%
M02*
