%TF.GenerationSoftware,KiCad,Pcbnew,9.0.5-9.0.5~ubuntu25.04.1*%
%TF.CreationDate,2026-03-12T18:03:06+01:00*%
%TF.ProjectId,Repartiteur,52657061-7274-4697-9465-75722e6b6963,1.0*%
%TF.SameCoordinates,Original*%
%TF.FileFunction,Soldermask,Bot*%
%TF.FilePolarity,Negative*%
%FSLAX45Y45*%
G04 Gerber Fmt 4.5, Leading zero omitted, Abs format (unit mm)*
G04 Created by KiCad (PCBNEW 9.0.5-9.0.5~ubuntu25.04.1) date 2026-03-12 18:03:06*
%MOMM*%
%LPD*%
G01*
G04 APERTURE LIST*
G04 Aperture macros list*
%AMRoundRect*
0 Rectangle with rounded corners*
0 $1 Rounding radius*
0 $2 $3 $4 $5 $6 $7 $8 $9 X,Y pos of 4 corners*
0 Add a 4 corners polygon primitive as box body*
4,1,4,$2,$3,$4,$5,$6,$7,$8,$9,$2,$3,0*
0 Add four circle primitives for the rounded corners*
1,1,$1+$1,$2,$3*
1,1,$1+$1,$4,$5*
1,1,$1+$1,$6,$7*
1,1,$1+$1,$8,$9*
0 Add four rect primitives between the rounded corners*
20,1,$1+$1,$2,$3,$4,$5,0*
20,1,$1+$1,$4,$5,$6,$7,0*
20,1,$1+$1,$6,$7,$8,$9,0*
20,1,$1+$1,$8,$9,$2,$3,0*%
G04 Aperture macros list end*
%ADD10RoundRect,0.250000X-0.600000X-0.675000X0.600000X-0.675000X0.600000X0.675000X-0.600000X0.675000X0*%
%ADD11O,1.700000X1.850000*%
%ADD12C,0.800000*%
%ADD13C,6.400000*%
%ADD14C,1.020000*%
%ADD15C,1.530000*%
%ADD16R,1.500000X3.000000*%
%ADD17RoundRect,0.250000X0.675000X-0.600000X0.675000X0.600000X-0.675000X0.600000X-0.675000X-0.600000X0*%
%ADD18O,1.850000X1.700000*%
G04 APERTURE END LIST*
D10*
%TO.C,J14*%
X9750000Y-9720000D03*
D11*
X10000000Y-9720000D03*
X10250000Y-9720000D03*
%TD*%
D12*
%TO.C,H1*%
X6660000Y-9700000D03*
X6730294Y-9530294D03*
X6730294Y-9869706D03*
X6900000Y-9460000D03*
D13*
X6900000Y-9700000D03*
D12*
X6900000Y-9940000D03*
X7069706Y-9530294D03*
X7069706Y-9869706D03*
X7140000Y-9700000D03*
%TD*%
%TO.C,H2*%
X6660000Y-11250000D03*
X6730294Y-11080294D03*
X6730294Y-11419706D03*
X6900000Y-11010000D03*
D13*
X6900000Y-11250000D03*
D12*
X6900000Y-11490000D03*
X7069706Y-11080294D03*
X7069706Y-11419706D03*
X7140000Y-11250000D03*
%TD*%
%TO.C,H3*%
X12860000Y-9700000D03*
X12930294Y-9530294D03*
X12930294Y-9869706D03*
X13100000Y-9460000D03*
D13*
X13100000Y-9700000D03*
D12*
X13100000Y-9940000D03*
X13269706Y-9530294D03*
X13269706Y-9869706D03*
X13340000Y-9700000D03*
%TD*%
%TO.C,H4*%
X12860000Y-11250000D03*
X12930294Y-11080294D03*
X12930294Y-11419706D03*
X13100000Y-11010000D03*
D13*
X13100000Y-11250000D03*
D12*
X13100000Y-11490000D03*
X13269706Y-11080294D03*
X13269706Y-11419706D03*
X13340000Y-11250000D03*
%TD*%
D14*
%TO.C,J10*%
X6900000Y-8476000D03*
X6300000Y-8476000D03*
D15*
X6600000Y-8870000D03*
X6600000Y-8570000D03*
%TD*%
D14*
%TO.C,J11*%
X7660000Y-8476000D03*
X7060000Y-8476000D03*
D15*
X7360000Y-8870000D03*
X7360000Y-8570000D03*
%TD*%
D16*
%TO.C,J9*%
X5339000Y-8990000D03*
X5466000Y-8540000D03*
X5593000Y-8990000D03*
X5720000Y-8540000D03*
X5847000Y-8990000D03*
X5974000Y-8540000D03*
%TD*%
D17*
%TO.C,J15*%
X7980000Y-9150000D03*
D18*
X7980000Y-8900000D03*
X7980000Y-8650000D03*
%TD*%
D17*
%TO.C,J13*%
X11280000Y-9150000D03*
D18*
X11280000Y-8900000D03*
X11280000Y-8650000D03*
%TD*%
D17*
%TO.C,J12*%
X8600000Y-9150000D03*
D18*
X8600000Y-8900000D03*
X8600000Y-8650000D03*
%TD*%
M02*
