%TF.GenerationSoftware,KiCad,Pcbnew,9.0.5-9.0.5~ubuntu25.04.1*%
%TF.CreationDate,2026-03-12T18:03:06+01:00*%
%TF.ProjectId,Repartiteur,52657061-7274-4697-9465-75722e6b6963,1.0*%
%TF.SameCoordinates,Original*%
%TF.FileFunction,Copper,L2,Bot*%
%TF.FilePolarity,Positive*%
%FSLAX45Y45*%
G04 Gerber Fmt 4.5, Leading zero omitted, Abs format (unit mm)*
G04 Created by KiCad (PCBNEW 9.0.5-9.0.5~ubuntu25.04.1) date 2026-03-12 18:03:06*
%MOMM*%
%LPD*%
G01*
G04 APERTURE LIST*
G04 Aperture macros list*
%AMRoundRect*
0 Rectangle with rounded corners*
0 $1 Rounding radius*
0 $2 $3 $4 $5 $6 $7 $8 $9 X,Y pos of 4 corners*
0 Add a 4 corners polygon primitive as box body*
4,1,4,$2,$3,$4,$5,$6,$7,$8,$9,$2,$3,0*
0 Add four circle primitives for the rounded corners*
1,1,$1+$1,$2,$3*
1,1,$1+$1,$4,$5*
1,1,$1+$1,$6,$7*
1,1,$1+$1,$8,$9*
0 Add four rect primitives between the rounded corners*
20,1,$1+$1,$2,$3,$4,$5,0*
20,1,$1+$1,$4,$5,$6,$7,0*
20,1,$1+$1,$6,$7,$8,$9,0*
20,1,$1+$1,$8,$9,$2,$3,0*%
G04 Aperture macros list end*
%TA.AperFunction,ComponentPad*%
%ADD10RoundRect,0.250000X-0.600000X-0.675000X0.600000X-0.675000X0.600000X0.675000X-0.600000X0.675000X0*%
%TD*%
%TA.AperFunction,ComponentPad*%
%ADD11O,1.700000X1.850000*%
%TD*%
%TA.AperFunction,ComponentPad*%
%ADD12C,0.800000*%
%TD*%
%TA.AperFunction,ComponentPad*%
%ADD13C,6.400000*%
%TD*%
%TA.AperFunction,ComponentPad*%
%ADD14C,1.530000*%
%TD*%
%TA.AperFunction,SMDPad,CuDef*%
%ADD15R,1.500000X3.000000*%
%TD*%
%TA.AperFunction,ComponentPad*%
%ADD16RoundRect,0.250000X0.675000X-0.600000X0.675000X0.600000X-0.675000X0.600000X-0.675000X-0.600000X0*%
%TD*%
%TA.AperFunction,ComponentPad*%
%ADD17O,1.850000X1.700000*%
%TD*%
%TA.AperFunction,ViaPad*%
%ADD18C,0.600000*%
%TD*%
%TA.AperFunction,Conductor*%
%ADD19C,0.250000*%
%TD*%
%TA.AperFunction,Conductor*%
%ADD20C,2.000000*%
%TD*%
%TA.AperFunction,Conductor*%
%ADD21C,0.500000*%
%TD*%
G04 APERTURE END LIST*
D10*
%TO.P,J14,1,Pin_1*%
%TO.N,Net-(J12-Pin_1)*%
X9750000Y-9720000D03*
D11*
%TO.P,J14,2,Pin_2*%
%TO.N,+12P*%
X10000000Y-9720000D03*
%TO.P,J14,3,Pin_3*%
%TO.N,GND*%
X10250000Y-9720000D03*
%TD*%
D12*
%TO.P,H1,1,1*%
%TO.N,GND*%
X6660000Y-9700000D03*
X6730294Y-9530294D03*
X6730294Y-9869706D03*
X6900000Y-9460000D03*
D13*
X6900000Y-9700000D03*
D12*
X6900000Y-9940000D03*
X7069706Y-9530294D03*
X7069706Y-9869706D03*
X7140000Y-9700000D03*
%TD*%
%TO.P,H2,1,1*%
%TO.N,GND*%
X6660000Y-11250000D03*
X6730294Y-11080294D03*
X6730294Y-11419706D03*
X6900000Y-11010000D03*
D13*
X6900000Y-11250000D03*
D12*
X6900000Y-11490000D03*
X7069706Y-11080294D03*
X7069706Y-11419706D03*
X7140000Y-11250000D03*
%TD*%
%TO.P,H3,1,1*%
%TO.N,GND*%
X12860000Y-9700000D03*
X12930294Y-9530294D03*
X12930294Y-9869706D03*
X13100000Y-9460000D03*
D13*
X13100000Y-9700000D03*
D12*
X13100000Y-9940000D03*
X13269706Y-9530294D03*
X13269706Y-9869706D03*
X13340000Y-9700000D03*
%TD*%
%TO.P,H4,1,1*%
%TO.N,GND*%
X12860000Y-11250000D03*
X12930294Y-11080294D03*
X12930294Y-11419706D03*
X13100000Y-11010000D03*
D13*
X13100000Y-11250000D03*
D12*
X13100000Y-11490000D03*
X13269706Y-11080294D03*
X13269706Y-11419706D03*
X13340000Y-11250000D03*
%TD*%
D14*
%TO.P,J10,1,Pin_1*%
%TO.N,+5VP*%
X6600000Y-8870000D03*
%TO.P,J10,2,Pin_2*%
%TO.N,GND*%
X6600000Y-8570000D03*
%TD*%
%TO.P,J11,1,Pin_1*%
%TO.N,+12P*%
X7360000Y-8870000D03*
%TO.P,J11,2,Pin_2*%
%TO.N,GND*%
X7360000Y-8570000D03*
%TD*%
D15*
%TO.P,J9,1,Pin_1*%
%TO.N,+5VL*%
X5339000Y-8990000D03*
%TO.P,J9,2,Pin_2*%
%TO.N,unconnected-(J9-Pin_2-Pad2)*%
X5466000Y-8540000D03*
%TO.P,J9,3,Pin_3*%
%TO.N,GND*%
X5593000Y-8990000D03*
%TO.P,J9,4,Pin_4*%
%TO.N,unconnected-(J9-Pin_4-Pad4)*%
X5720000Y-8540000D03*
%TO.P,J9,5,Pin_5*%
%TO.N,/SDA*%
X5847000Y-8990000D03*
%TO.P,J9,6,Pin_6*%
%TO.N,/SCL*%
X5974000Y-8540000D03*
%TD*%
D16*
%TO.P,J15,1,Pin_1*%
%TO.N,Net-(J12-Pin_1)*%
X7980000Y-9150000D03*
D17*
%TO.P,J15,2,Pin_2*%
%TO.N,+12P*%
X7980000Y-8900000D03*
%TO.P,J15,3,Pin_3*%
%TO.N,GND*%
X7980000Y-8650000D03*
%TD*%
D16*
%TO.P,J13,1,Pin_1*%
%TO.N,Net-(J12-Pin_1)*%
X11280000Y-9150000D03*
D17*
%TO.P,J13,2,Pin_2*%
%TO.N,+12P*%
X11280000Y-8900000D03*
%TO.P,J13,3,Pin_3*%
%TO.N,GND*%
X11280000Y-8650000D03*
%TD*%
D16*
%TO.P,J12,1,Pin_1*%
%TO.N,Net-(J12-Pin_1)*%
X8600000Y-9150000D03*
D17*
%TO.P,J12,2,Pin_2*%
%TO.N,+12P*%
X8600000Y-8900000D03*
%TO.P,J12,3,Pin_3*%
%TO.N,GND*%
X8600000Y-8650000D03*
%TD*%
D18*
%TO.N,GND*%
X10700000Y-8720000D03*
X14375000Y-9110000D03*
X11820000Y-10000000D03*
X8960000Y-9960000D03*
X12795000Y-9205000D03*
X14320000Y-9260000D03*
X13940000Y-10620000D03*
X9380000Y-9060000D03*
X11100000Y-9060000D03*
X14340000Y-11340000D03*
X10640000Y-9060000D03*
X8155000Y-9215000D03*
X11200000Y-11560000D03*
X8280000Y-10600000D03*
X7355000Y-10320000D03*
X5725000Y-9165000D03*
X8300000Y-11560000D03*
X5900000Y-11160000D03*
X8800000Y-8720000D03*
X7125000Y-10500000D03*
X10900000Y-10300000D03*
X5080000Y-10640000D03*
X9700000Y-9060000D03*
X12840000Y-8860000D03*
X9080000Y-9060000D03*
X8563750Y-10567500D03*
X5940000Y-10410000D03*
X7800000Y-9060000D03*
X7220000Y-11560000D03*
X9040000Y-9640000D03*
X9440000Y-8720000D03*
X8780000Y-9060000D03*
X5135000Y-11535000D03*
X5475000Y-10805000D03*
X13645000Y-10955000D03*
X13500000Y-10060000D03*
X13240000Y-10280000D03*
X7355000Y-10590000D03*
X11000000Y-11040000D03*
X14400000Y-10460000D03*
X7300000Y-9700000D03*
X10200000Y-9215000D03*
X13620000Y-10765000D03*
X14100000Y-9120000D03*
X11825000Y-9200000D03*
X14320000Y-9360000D03*
X9835000Y-9215000D03*
X12060000Y-8860000D03*
X5080000Y-9160000D03*
X12640000Y-9935000D03*
X12920000Y-10280000D03*
X9080000Y-9215000D03*
X6050000Y-10160000D03*
X10140000Y-8720000D03*
X6600000Y-11560000D03*
X12620000Y-11540000D03*
X8220000Y-11240000D03*
X14340000Y-11580000D03*
X9380000Y-9215000D03*
X10020000Y-11560000D03*
X5475000Y-9720000D03*
X13290000Y-9205000D03*
X7760000Y-11560000D03*
X13760000Y-9180000D03*
X13760000Y-9520000D03*
X5600000Y-11195000D03*
X13960000Y-8440000D03*
X7180000Y-8800000D03*
X9080000Y-11560000D03*
X11400000Y-11260000D03*
X14820000Y-10060000D03*
X6410000Y-10495000D03*
X8420000Y-9215000D03*
X11670000Y-9430000D03*
X7200000Y-10020000D03*
X11100000Y-9215000D03*
X13980000Y-9540000D03*
X5080000Y-8820000D03*
X12620000Y-11140000D03*
X6225000Y-10705000D03*
X13980000Y-9900000D03*
X14320000Y-9480000D03*
X11920000Y-9800000D03*
X5205000Y-10800000D03*
X5985000Y-9185000D03*
X5250000Y-11220000D03*
X8960000Y-10060000D03*
X11460000Y-9040000D03*
X8340000Y-9940000D03*
X13880000Y-9900000D03*
X14060000Y-10720000D03*
X12340000Y-10460000D03*
X8560000Y-11560000D03*
X6005000Y-8880000D03*
X6485000Y-10320000D03*
X12600000Y-10380000D03*
X7090000Y-10735000D03*
X11020000Y-8720000D03*
X8300000Y-10060000D03*
X12260000Y-9600000D03*
X8140000Y-9980000D03*
X8200000Y-8720000D03*
X9580000Y-9640000D03*
X11820000Y-10480000D03*
X12540000Y-10170000D03*
X8780000Y-9215000D03*
X12440000Y-11140000D03*
X14380000Y-8895000D03*
X10200000Y-9060000D03*
X7600000Y-10000000D03*
X6020000Y-11560000D03*
X10420000Y-10300000D03*
X12275000Y-9200000D03*
X7520000Y-9060000D03*
X8060000Y-10720000D03*
X10980000Y-9640000D03*
X8160000Y-9060000D03*
X7580000Y-8720000D03*
X6375000Y-9020000D03*
X10320000Y-11040000D03*
X7780000Y-8720000D03*
X9880000Y-10300000D03*
X9360000Y-10300000D03*
X8420000Y-8720000D03*
X11720000Y-10380000D03*
X10640000Y-9215000D03*
X8580000Y-9960000D03*
X5345000Y-11095000D03*
X8580000Y-10060000D03*
X7540000Y-11560000D03*
X5640000Y-10410000D03*
X11420000Y-9640000D03*
X8600000Y-9740000D03*
X8120000Y-10100000D03*
X8040000Y-11240000D03*
X5470000Y-9165000D03*
X8420000Y-9060000D03*
X9670000Y-9215000D03*
X13980000Y-9660000D03*
X9780000Y-8720000D03*
X5100000Y-11220000D03*
X13480000Y-8880000D03*
X9600000Y-11040000D03*
X14110000Y-8970000D03*
%TO.N,+5VP*%
X5456353Y-11270800D03*
X14365000Y-10720000D03*
X14865000Y-11270000D03*
X5220000Y-9620000D03*
X5220000Y-9840000D03*
X5220000Y-9940000D03*
X5220000Y-9740000D03*
X5976694Y-9483306D03*
%TO.N,+5VL*%
X6450000Y-9055000D03*
%TO.N,+3.3V*%
X6754900Y-9020000D03*
X11460000Y-11140000D03*
X12060000Y-11140000D03*
X5305000Y-11015000D03*
%TO.N,/LED_B*%
X6100000Y-8600000D03*
X6070200Y-9119900D03*
%TO.N,/SDA_B*%
X6240400Y-9155572D03*
X8266250Y-10367500D03*
X11720000Y-10180000D03*
X5598000Y-9259800D03*
%TO.N,/SCL_B*%
X6180000Y-8725000D03*
X8204225Y-10305000D03*
X6254684Y-9059047D03*
X11780348Y-10127482D03*
%TO.N,/SCL_C*%
X14500000Y-11000000D03*
X11260000Y-11028400D03*
%TO.N,/LED_C*%
X14760000Y-11000000D03*
X8946250Y-11067500D03*
%TO.N,/SDA_C*%
X14420000Y-11460000D03*
X11330783Y-11073500D03*
%TO.N,/SERVO_1C*%
X14560000Y-10420000D03*
X8946250Y-11567500D03*
%TO.N,/SERVO_2C*%
X14640000Y-10420000D03*
X8946250Y-11387500D03*
%TO.N,/SERVO_3C*%
X8946250Y-11227500D03*
X14720000Y-10420000D03*
%TO.N,/SDA_A*%
X5720000Y-11460000D03*
X11700000Y-9980000D03*
%TO.N,/SCL_A*%
X11739294Y-10054900D03*
X5580000Y-11020000D03*
%TO.N,/SDA_D*%
X14420000Y-9000000D03*
X11369900Y-10587700D03*
%TO.N,/LED_D*%
X14800000Y-8540000D03*
X8946250Y-10907500D03*
%TO.N,/SCL_D*%
X14500000Y-8540000D03*
X11449900Y-10587700D03*
%TO.N,/SERVO_2D*%
X14660000Y-9580000D03*
X8946250Y-10587500D03*
%TO.N,/SERVO_3D*%
X8946250Y-10747500D03*
X14740000Y-9580000D03*
%TO.N,/SERVO_1D*%
X14580000Y-9580000D03*
X8946250Y-10427500D03*
%TO.N,/SCL*%
X6070907Y-9039903D03*
X12000000Y-9980000D03*
X8616250Y-10427557D03*
%TO.N,/SDA*%
X12000000Y-9900000D03*
X8606250Y-10347500D03*
X6072400Y-8959917D03*
%TO.N,Net-(J12-Pin_1)*%
X9760000Y-9150000D03*
%TO.N,Net-(JP1-C)*%
X7880000Y-10320000D03*
X7580000Y-9860000D03*
%TO.N,Net-(JP2-C)*%
X7840000Y-9862500D03*
X7740000Y-10320000D03*
%TO.N,Net-(JP3-C)*%
X8007771Y-10417410D03*
X8100000Y-9860000D03*
%TD*%
D19*
%TO.N,+5VP*%
X14865000Y-11270000D02*
X14865000Y-11220000D01*
X5420801Y-11270800D02*
X5242400Y-11092400D01*
D20*
X6240100Y-9479900D02*
X5300100Y-9479900D01*
X6600000Y-8870000D02*
X6600000Y-9075000D01*
X5220000Y-9560000D02*
X5220000Y-9940000D01*
D19*
X5307500Y-10027500D02*
X5220000Y-9940000D01*
X5242400Y-11092400D02*
X5242400Y-10982600D01*
X5307500Y-10917500D02*
X5307500Y-10027500D01*
D20*
X6600000Y-9120000D02*
X6240100Y-9479900D01*
D19*
X14865000Y-11220000D02*
X14365000Y-10720000D01*
D20*
X5300100Y-9479900D02*
X5220000Y-9560000D01*
D19*
X5456353Y-11270800D02*
X5420801Y-11270800D01*
X5242400Y-10982600D02*
X5307500Y-10917500D01*
D20*
X6600000Y-8870000D02*
X6600000Y-9120000D01*
D21*
%TO.N,+5VL*%
X6410000Y-9093934D02*
X6169134Y-9334800D01*
X5479800Y-9334800D02*
X5339000Y-9194000D01*
X6411066Y-9093934D02*
X6410000Y-9093934D01*
X6450000Y-9055000D02*
X6411066Y-9093934D01*
X6169134Y-9334800D02*
X5479800Y-9334800D01*
X5339000Y-9194000D02*
X5339000Y-8990000D01*
%TO.N,+3.3V*%
X5365100Y-10954900D02*
X5365100Y-9723693D01*
D19*
X11498800Y-11101200D02*
X12021200Y-11101200D01*
D21*
X6754900Y-9170302D02*
X6754900Y-9020000D01*
X5365100Y-9723693D02*
X5463793Y-9625000D01*
D19*
X12021200Y-11101200D02*
X12060000Y-11140000D01*
D21*
X6300202Y-9625000D02*
X6754900Y-9170302D01*
X5463793Y-9625000D02*
X6300202Y-9625000D01*
D19*
X11460000Y-11140000D02*
X11498800Y-11101200D01*
D21*
X5305000Y-11015000D02*
X5365100Y-10954900D01*
D19*
%TO.N,/LED_B*%
X6100000Y-8776219D02*
X6180000Y-8856219D01*
X6180000Y-8856219D02*
X6180000Y-8915206D01*
X6180000Y-9020000D02*
X6080100Y-9119900D01*
X6180000Y-8915206D02*
X6180100Y-8915306D01*
X6180100Y-8915306D02*
X6180100Y-9004528D01*
X6180000Y-9004628D02*
X6180000Y-9020000D01*
X6180100Y-9004528D02*
X6180000Y-9004628D01*
X6100000Y-8600000D02*
X6100000Y-8776219D01*
X6080100Y-9119900D02*
X6070200Y-9119900D01*
%TO.N,/SDA_B*%
X6240400Y-9157468D02*
X6138068Y-9259800D01*
X9037162Y-10274700D02*
X8359050Y-10274700D01*
X11222638Y-10514900D02*
X9277362Y-10514900D01*
X9277362Y-10514900D02*
X9037162Y-10274700D01*
X8359050Y-10274700D02*
X8266250Y-10367500D01*
X6240400Y-9155572D02*
X6240400Y-9157468D01*
X6138068Y-9259800D02*
X5598000Y-9259800D01*
X11557538Y-10180000D02*
X11222638Y-10514900D01*
X11720000Y-10180000D02*
X11557538Y-10180000D01*
%TO.N,/SCL_B*%
X8279625Y-10229600D02*
X8204225Y-10305000D01*
X9296043Y-10469800D02*
X9055843Y-10229600D01*
X11203957Y-10469800D02*
X9296043Y-10469800D01*
X6289450Y-9024281D02*
X6289450Y-8834450D01*
X11780348Y-10127482D02*
X11770266Y-10117400D01*
X9055843Y-10229600D02*
X8279625Y-10229600D01*
X6289450Y-8834450D02*
X6180000Y-8725000D01*
X6254684Y-9059047D02*
X6289450Y-9024281D01*
X11770266Y-10117400D02*
X11556357Y-10117400D01*
X11556357Y-10117400D02*
X11203957Y-10469800D01*
%TO.N,/SCL_C*%
X11304754Y-11011000D02*
X11277400Y-11011000D01*
X11356713Y-11010900D02*
X11304854Y-11010900D01*
X11356813Y-11011000D02*
X11356713Y-11010900D01*
X14448781Y-11000000D02*
X14283881Y-10835100D01*
X14500000Y-11000000D02*
X14448781Y-11000000D01*
X14283881Y-10835100D02*
X12936810Y-10835100D01*
X12760910Y-11011000D02*
X11356813Y-11011000D01*
X11277400Y-11011000D02*
X11260000Y-11028400D01*
X12936810Y-10835100D02*
X12760910Y-11011000D01*
X11304854Y-11010900D02*
X11304754Y-11011000D01*
%TO.N,/LED_C*%
X14760000Y-11000000D02*
X14760000Y-10719854D01*
X14745930Y-10357400D02*
X14745789Y-10357400D01*
X14638189Y-10249800D02*
X13838857Y-10249800D01*
X13838857Y-10249800D02*
X13433957Y-10654700D01*
X14760000Y-10719854D02*
X14782600Y-10697254D01*
X12862086Y-10654700D02*
X12686186Y-10830600D01*
X14782600Y-10697254D02*
X14782600Y-10394070D01*
X14745789Y-10357400D02*
X14638189Y-10249800D01*
X13433957Y-10654700D02*
X12862086Y-10654700D01*
X12686186Y-10830600D02*
X9183150Y-10830600D01*
X9183150Y-10830600D02*
X8946250Y-11067500D01*
X14782600Y-10394070D02*
X14745930Y-10357400D01*
%TO.N,/SDA_C*%
X14420000Y-11035000D02*
X14420000Y-11460000D01*
X12779591Y-11056100D02*
X12955491Y-10880200D01*
X11330783Y-11073500D02*
X11348183Y-11056100D01*
X14265200Y-10880200D02*
X14420000Y-11035000D01*
X11348183Y-11056100D02*
X12779591Y-11056100D01*
X12955491Y-10880200D02*
X14265200Y-10880200D01*
%TO.N,/SERVO_1C*%
X13894900Y-10385100D02*
X14525100Y-10385100D01*
X12742229Y-10965900D02*
X12918129Y-10790000D01*
X14525100Y-10385100D02*
X14560000Y-10420000D01*
X12918129Y-10790000D02*
X13490000Y-10790000D01*
X13490000Y-10790000D02*
X13894900Y-10385100D01*
X9547850Y-10965900D02*
X12742229Y-10965900D01*
X8946250Y-11567500D02*
X9547850Y-10965900D01*
%TO.N,/SERVO_2C*%
X14640000Y-10411470D02*
X14568530Y-10340000D01*
X14640000Y-10420000D02*
X14640000Y-10411470D01*
X12899448Y-10744900D02*
X12723548Y-10920800D01*
X13876219Y-10340000D02*
X13471319Y-10744900D01*
X12723548Y-10920800D02*
X9400000Y-10920800D01*
X8946250Y-11387500D02*
X8946250Y-11374550D01*
X13471319Y-10744900D02*
X12899448Y-10744900D01*
X8946250Y-11374550D02*
X9400000Y-10920800D01*
X14568530Y-10340000D02*
X13876219Y-10340000D01*
%TO.N,/SERVO_3C*%
X14603430Y-10294900D02*
X14720000Y-10411471D01*
X13857538Y-10294900D02*
X14603430Y-10294900D01*
X9298050Y-10875700D02*
X12704867Y-10875700D01*
X12704867Y-10875700D02*
X12880767Y-10699800D01*
X13452638Y-10699800D02*
X13857538Y-10294900D01*
X8946250Y-11227500D02*
X9298050Y-10875700D01*
X12880767Y-10699800D02*
X13452638Y-10699800D01*
X14720000Y-10411471D02*
X14720000Y-10420000D01*
%TO.N,/SDA_A*%
X5700100Y-10799900D02*
X7816319Y-10799900D01*
X11166595Y-10379600D02*
X11566195Y-9980000D01*
X7816319Y-10799900D02*
X8094900Y-10521319D01*
X8217514Y-10139400D02*
X9093205Y-10139400D01*
X5517400Y-11257400D02*
X5517400Y-10982600D01*
X5517400Y-10982600D02*
X5700100Y-10799900D01*
X8094900Y-10262014D02*
X8217514Y-10139400D01*
X11566195Y-9980000D02*
X11700000Y-9980000D01*
X8094900Y-10521319D02*
X8094900Y-10262014D01*
X9093205Y-10139400D02*
X9333405Y-10379600D01*
X5720000Y-11460000D02*
X5517400Y-11257400D01*
X9333405Y-10379600D02*
X11166595Y-10379600D01*
%TO.N,/SCL_A*%
X9314724Y-10424700D02*
X11185276Y-10424700D01*
X5580000Y-10983781D02*
X5718781Y-10845000D01*
X7835000Y-10845000D02*
X8140000Y-10540000D01*
X5718781Y-10845000D02*
X7835000Y-10845000D01*
X11185276Y-10424700D02*
X11555076Y-10054900D01*
X9074524Y-10184500D02*
X9314724Y-10424700D01*
X8236195Y-10184500D02*
X9074524Y-10184500D01*
X8140000Y-10540000D02*
X8140000Y-10280695D01*
X8140000Y-10280695D02*
X8236195Y-10184500D01*
X11555076Y-10054900D02*
X11739294Y-10054900D01*
X5580000Y-11020000D02*
X5580000Y-10983781D01*
%TO.N,/SDA_D*%
X14449800Y-9890200D02*
X14360800Y-9979200D01*
X12574100Y-10560000D02*
X11510730Y-10560000D01*
X11510730Y-10560000D02*
X11475830Y-10525100D01*
X11369900Y-10575200D02*
X11369900Y-10587700D01*
X14449800Y-9029800D02*
X14449800Y-9890200D01*
X13726771Y-9979200D02*
X13321871Y-10384100D01*
X11475830Y-10525100D02*
X11420000Y-10525100D01*
X12750000Y-10384100D02*
X12574100Y-10560000D01*
X13321871Y-10384100D02*
X12750000Y-10384100D01*
X11420000Y-10525100D02*
X11369900Y-10575200D01*
X14360800Y-9979200D02*
X13726771Y-9979200D01*
X14420000Y-9000000D02*
X14449800Y-9029800D01*
%TO.N,/LED_D*%
X14675300Y-9983605D02*
X14454205Y-10204700D01*
X14802600Y-8542600D02*
X14802600Y-9617400D01*
X13415276Y-10609600D02*
X12843405Y-10609600D01*
X12843405Y-10609600D02*
X12667505Y-10785500D01*
X8946250Y-10907500D02*
X9068250Y-10785500D01*
X14800000Y-8540000D02*
X14802600Y-8542600D01*
X14675300Y-9744700D02*
X14675300Y-9983605D01*
X13820176Y-10204700D02*
X13415276Y-10609600D01*
X14454205Y-10204700D02*
X13820176Y-10204700D01*
X14802600Y-9617400D02*
X14675300Y-9744700D01*
X12667505Y-10785500D02*
X9068250Y-10785500D01*
%TO.N,/SCL_D*%
X13745452Y-10024300D02*
X14379481Y-10024300D01*
X12592781Y-10605100D02*
X12768681Y-10429200D01*
X12768681Y-10429200D02*
X13340552Y-10429200D01*
X14379481Y-10024300D02*
X14494900Y-9908881D01*
X14494900Y-9908881D02*
X14494900Y-8545100D01*
X11467300Y-10605100D02*
X12592781Y-10605100D01*
X11449900Y-10587700D02*
X11467300Y-10605100D01*
X14494900Y-8545100D02*
X14500000Y-8540000D01*
X13340552Y-10429200D02*
X13745452Y-10024300D01*
%TO.N,/SERVO_2D*%
X13377914Y-10519400D02*
X13782814Y-10114500D01*
X8946250Y-10587500D02*
X9054050Y-10695300D01*
X14660000Y-9603780D02*
X14660000Y-9580000D01*
X12630143Y-10695300D02*
X12806043Y-10519400D01*
X14585100Y-9678680D02*
X14660000Y-9603780D01*
X12806043Y-10519400D02*
X13377914Y-10519400D01*
X14585100Y-9946243D02*
X14585100Y-9678680D01*
X9054050Y-10695300D02*
X12630143Y-10695300D01*
X14416843Y-10114500D02*
X14585100Y-9946243D01*
X13782814Y-10114500D02*
X14416843Y-10114500D01*
%TO.N,/SERVO_3D*%
X14435524Y-10159600D02*
X14630200Y-9964924D01*
X14630200Y-9700000D02*
X14740000Y-9590200D01*
X13801495Y-10159600D02*
X14435524Y-10159600D01*
X12648824Y-10740400D02*
X12824724Y-10564500D01*
X8953350Y-10740400D02*
X12648824Y-10740400D01*
X13396595Y-10564500D02*
X13801495Y-10159600D01*
X8946250Y-10747500D02*
X8953350Y-10740400D01*
X14630200Y-9964924D02*
X14630200Y-9700000D01*
X14740000Y-9590200D02*
X14740000Y-9580000D01*
X12824724Y-10564500D02*
X13396595Y-10564500D01*
%TO.N,/SERVO_1D*%
X12611462Y-10650200D02*
X12787362Y-10474300D01*
X14540000Y-9927562D02*
X14540000Y-9659999D01*
X14540000Y-9659999D02*
X14580000Y-9620000D01*
X8946250Y-10427500D02*
X9168950Y-10650200D01*
X9168950Y-10650200D02*
X12611462Y-10650200D01*
X13359233Y-10474300D02*
X13764133Y-10069400D01*
X13764133Y-10069400D02*
X14398162Y-10069400D01*
X12787362Y-10474300D02*
X13359233Y-10474300D01*
X14580000Y-9620000D02*
X14580000Y-9580000D01*
X14398162Y-10069400D02*
X14540000Y-9927562D01*
%TO.N,/SCL*%
X6098330Y-9022517D02*
X6135000Y-8985847D01*
X12000000Y-9980000D02*
X12000000Y-10060000D01*
X8999800Y-10364900D02*
X8678907Y-10364900D01*
X6080097Y-9039903D02*
X6097483Y-9022517D01*
X11260000Y-10605100D02*
X9240000Y-10605100D01*
X11561890Y-10303210D02*
X11260000Y-10605100D01*
X12000000Y-10060000D02*
X11756790Y-10303210D01*
X5974000Y-8714000D02*
X5974000Y-8540000D01*
X6135000Y-8985847D02*
X6135000Y-8933987D01*
X6134900Y-8874900D02*
X5974000Y-8714000D01*
X11756790Y-10303210D02*
X11561890Y-10303210D01*
X6134900Y-8933887D02*
X6134900Y-8874900D01*
X6135000Y-8933987D02*
X6134900Y-8933887D01*
X8678907Y-10364900D02*
X8616250Y-10427557D01*
X6097483Y-9022517D02*
X6098330Y-9022517D01*
X9240000Y-10605100D02*
X8999800Y-10364900D01*
X6070907Y-9039903D02*
X6080097Y-9039903D01*
%TO.N,/SDA*%
X9258681Y-10560000D02*
X9420000Y-10560000D01*
X8606250Y-10347500D02*
X8633950Y-10319800D01*
X11738109Y-10258110D02*
X11908110Y-10088109D01*
X11241319Y-10560000D02*
X11543209Y-10258110D01*
X9018481Y-10319800D02*
X9258681Y-10560000D01*
X11991470Y-9900000D02*
X12000000Y-9900000D01*
X6072400Y-8959917D02*
X5877083Y-8959917D01*
X11543209Y-10258110D02*
X11738109Y-10258110D01*
X11908110Y-9983361D02*
X11991470Y-9900000D01*
X5877083Y-8959917D02*
X5847000Y-8990000D01*
X8633950Y-10319800D02*
X9018481Y-10319800D01*
X11908110Y-10088109D02*
X11908110Y-9983361D01*
X9420000Y-10560000D02*
X11241319Y-10560000D01*
%TO.N,Net-(J12-Pin_1)*%
X9750000Y-9160000D02*
X9750000Y-9720000D01*
X9760000Y-9150000D02*
X9750000Y-9160000D01*
D20*
%TO.N,+12P*%
X10000000Y-9720000D02*
X10000000Y-8900000D01*
X7980000Y-8900000D02*
X8600000Y-8900000D01*
X7390000Y-8900000D02*
X7360000Y-8870000D01*
X8600000Y-8900000D02*
X10000000Y-8900000D01*
X10000000Y-8900000D02*
X11280000Y-8900000D01*
X7980000Y-8900000D02*
X7390000Y-8900000D01*
D19*
%TO.N,Net-(JP1-C)*%
X7880000Y-9800000D02*
X7640000Y-9800000D01*
X7640000Y-9800000D02*
X7580000Y-9860000D01*
X7920000Y-9840000D02*
X7880000Y-9800000D01*
X7880000Y-10320000D02*
X7920000Y-10280000D01*
X7920000Y-10280000D02*
X7920000Y-9840000D01*
%TO.N,Net-(JP2-C)*%
X7840000Y-10220000D02*
X7840000Y-9862500D01*
X7740000Y-10320000D02*
X7840000Y-10220000D01*
%TO.N,Net-(JP3-C)*%
X8007771Y-9952229D02*
X8100000Y-9860000D01*
X8007771Y-10417410D02*
X8007771Y-9952229D01*
%TD*%
%TA.AperFunction,Conductor*%
%TO.N,GND*%
G36*
X5366869Y-8396482D02*
G01*
X5370466Y-8401432D01*
X5370950Y-8404491D01*
X5370950Y-8691975D01*
X5370950Y-8691976D01*
X5372113Y-8697823D01*
X5372113Y-8697823D01*
X5374785Y-8701822D01*
X5376545Y-8704455D01*
X5383177Y-8708887D01*
X5387623Y-8709771D01*
X5389024Y-8710050D01*
X5389025Y-8710050D01*
X5389025Y-8710050D01*
X5389025Y-8710050D01*
X5542975Y-8710050D01*
X5542975Y-8710050D01*
X5548823Y-8708887D01*
X5555455Y-8704455D01*
X5559887Y-8697823D01*
X5561050Y-8691975D01*
X5561050Y-8404491D01*
X5562941Y-8398672D01*
X5567891Y-8395075D01*
X5570950Y-8394591D01*
X5615050Y-8394591D01*
X5620869Y-8396482D01*
X5624465Y-8401432D01*
X5624950Y-8404491D01*
X5624950Y-8691975D01*
X5624950Y-8691976D01*
X5626113Y-8697823D01*
X5626113Y-8697823D01*
X5628785Y-8701822D01*
X5630545Y-8704455D01*
X5637177Y-8708887D01*
X5641623Y-8709771D01*
X5643024Y-8710050D01*
X5643025Y-8710050D01*
X5643025Y-8710050D01*
X5643025Y-8710050D01*
X5796975Y-8710050D01*
X5796975Y-8710050D01*
X5802823Y-8708887D01*
X5809455Y-8704455D01*
X5813887Y-8697823D01*
X5815050Y-8691975D01*
X5815050Y-8404491D01*
X5816941Y-8398672D01*
X5821891Y-8395075D01*
X5824950Y-8394591D01*
X5869050Y-8394591D01*
X5874869Y-8396482D01*
X5878465Y-8401432D01*
X5878950Y-8404491D01*
X5878950Y-8691975D01*
X5878950Y-8691976D01*
X5880113Y-8697823D01*
X5880113Y-8697823D01*
X5882785Y-8701822D01*
X5884545Y-8704455D01*
X5891177Y-8708887D01*
X5895623Y-8709771D01*
X5897024Y-8710050D01*
X5897025Y-8710050D01*
X5897025Y-8710050D01*
X5931684Y-8710050D01*
X5937503Y-8711941D01*
X5941099Y-8716891D01*
X5941273Y-8717661D01*
X5941282Y-8717659D01*
X5941450Y-8718285D01*
X5941450Y-8718285D01*
X5941484Y-8718411D01*
X5943668Y-8726564D01*
X5947953Y-8733986D01*
X5947953Y-8733986D01*
X5947953Y-8733986D01*
X6028431Y-8814464D01*
X6099450Y-8885483D01*
X6099813Y-8886195D01*
X6100459Y-8886664D01*
X6101176Y-8888869D01*
X6102228Y-8890935D01*
X6102350Y-8892483D01*
X6102350Y-8903224D01*
X6100459Y-8909043D01*
X6095509Y-8912640D01*
X6089888Y-8912787D01*
X6082859Y-8910904D01*
X6078989Y-8909867D01*
X6065811Y-8909867D01*
X6058020Y-8911954D01*
X6053081Y-8913278D01*
X6041669Y-8919866D01*
X6041668Y-8919867D01*
X6037068Y-8924467D01*
X6031616Y-8927245D01*
X6030068Y-8927367D01*
X5951950Y-8927367D01*
X5946131Y-8925476D01*
X5942534Y-8920526D01*
X5942050Y-8917467D01*
X5942050Y-8838025D01*
X5942050Y-8838024D01*
X5941491Y-8835218D01*
X5940887Y-8832177D01*
X5936455Y-8825545D01*
X5934019Y-8823917D01*
X5929823Y-8821113D01*
X5929823Y-8821113D01*
X5929823Y-8821113D01*
X5929823Y-8821113D01*
X5923976Y-8819950D01*
X5923975Y-8819950D01*
X5770025Y-8819950D01*
X5770025Y-8819950D01*
X5770024Y-8819950D01*
X5764177Y-8821113D01*
X5764177Y-8821113D01*
X5757545Y-8825545D01*
X5757544Y-8825545D01*
X5753113Y-8832177D01*
X5753113Y-8832177D01*
X5751950Y-8838024D01*
X5751950Y-8838025D01*
X5751950Y-9141975D01*
X5751950Y-9141976D01*
X5753113Y-9147823D01*
X5753113Y-9147823D01*
X5757544Y-9154455D01*
X5757545Y-9154455D01*
X5764177Y-9158887D01*
X5768623Y-9159771D01*
X5770024Y-9160050D01*
X5770025Y-9160050D01*
X5770025Y-9160050D01*
X5770025Y-9160050D01*
X5923975Y-9160050D01*
X5923975Y-9160050D01*
X5929823Y-9158887D01*
X5936455Y-9154455D01*
X5940887Y-9147823D01*
X5942050Y-9141975D01*
X5942050Y-9002367D01*
X5943941Y-8996548D01*
X5948891Y-8992951D01*
X5951950Y-8992467D01*
X6023661Y-8992467D01*
X6029480Y-8994358D01*
X6033076Y-8999308D01*
X6033076Y-9005426D01*
X6031146Y-9008576D01*
X6031252Y-9008657D01*
X6030856Y-9009172D01*
X6024268Y-9020584D01*
X6023317Y-9024131D01*
X6020857Y-9033314D01*
X6020857Y-9046492D01*
X6022455Y-9052457D01*
X6024268Y-9059222D01*
X6030856Y-9070634D01*
X6030857Y-9070634D01*
X6032770Y-9072548D01*
X6035548Y-9078000D01*
X6034591Y-9084043D01*
X6032770Y-9086548D01*
X6030150Y-9089168D01*
X6030150Y-9089169D01*
X6023561Y-9100581D01*
X6022816Y-9103361D01*
X6020150Y-9113311D01*
X6020150Y-9126489D01*
X6022766Y-9136253D01*
X6023561Y-9139219D01*
X6030150Y-9150631D01*
X6030150Y-9150631D01*
X6030150Y-9150631D01*
X6039469Y-9159950D01*
X6039469Y-9159950D01*
X6039469Y-9159950D01*
X6050881Y-9166539D01*
X6050881Y-9166539D01*
X6050881Y-9166539D01*
X6050881Y-9166539D01*
X6063611Y-9169950D01*
X6063611Y-9169950D01*
X6076789Y-9169950D01*
X6076789Y-9169950D01*
X6089519Y-9166539D01*
X6089519Y-9166539D01*
X6089519Y-9166539D01*
X6100931Y-9159950D01*
X6100931Y-9159950D01*
X6100931Y-9159950D01*
X6110250Y-9150631D01*
X6116839Y-9139219D01*
X6119822Y-9128086D01*
X6122384Y-9123649D01*
X6187734Y-9058299D01*
X6193185Y-9055521D01*
X6199229Y-9056478D01*
X6203555Y-9060805D01*
X6204634Y-9065299D01*
X6204634Y-9065636D01*
X6205974Y-9070634D01*
X6208045Y-9078366D01*
X6214634Y-9089778D01*
X6214634Y-9089778D01*
X6214634Y-9089778D01*
X6220015Y-9095158D01*
X6222792Y-9100610D01*
X6221835Y-9106653D01*
X6217964Y-9110732D01*
X6209669Y-9115522D01*
X6200350Y-9124841D01*
X6193761Y-9136253D01*
X6192966Y-9139219D01*
X6190661Y-9147823D01*
X6190350Y-9148983D01*
X6190350Y-9157384D01*
X6188459Y-9163203D01*
X6187450Y-9164385D01*
X6127485Y-9224350D01*
X6122033Y-9227128D01*
X6120484Y-9227250D01*
X5640332Y-9227250D01*
X5634513Y-9225359D01*
X5633332Y-9224350D01*
X5628732Y-9219750D01*
X5628731Y-9219750D01*
X5617319Y-9213161D01*
X5617319Y-9213161D01*
X5612380Y-9211838D01*
X5604589Y-9209750D01*
X5591411Y-9209750D01*
X5583620Y-9211838D01*
X5578681Y-9213161D01*
X5567269Y-9219750D01*
X5557950Y-9229069D01*
X5551361Y-9240481D01*
X5551361Y-9240481D01*
X5547950Y-9253211D01*
X5547950Y-9266389D01*
X5550870Y-9277288D01*
X5550550Y-9283398D01*
X5546700Y-9288153D01*
X5541308Y-9289750D01*
X5502561Y-9289750D01*
X5496742Y-9287859D01*
X5495561Y-9286850D01*
X5386950Y-9178239D01*
X5386587Y-9177527D01*
X5385941Y-9177058D01*
X5385224Y-9174853D01*
X5384172Y-9172788D01*
X5384050Y-9171239D01*
X5384050Y-9169950D01*
X5385941Y-9164131D01*
X5390891Y-9160535D01*
X5393950Y-9160050D01*
X5415975Y-9160050D01*
X5415975Y-9160050D01*
X5421823Y-9158887D01*
X5428455Y-9154455D01*
X5432887Y-9147823D01*
X5433492Y-9144782D01*
X5468000Y-9144782D01*
X5468640Y-9150737D01*
X5468640Y-9150738D01*
X5473665Y-9164209D01*
X5473665Y-9164209D01*
X5482281Y-9175718D01*
X5482282Y-9175719D01*
X5493791Y-9184335D01*
X5493791Y-9184335D01*
X5507262Y-9189360D01*
X5507263Y-9189360D01*
X5513218Y-9190000D01*
X5568000Y-9190000D01*
X5568000Y-9190000D01*
X5568000Y-9015000D01*
X5618000Y-9015000D01*
X5618000Y-9190000D01*
X5618000Y-9190000D01*
X5672782Y-9190000D01*
X5678737Y-9189360D01*
X5678738Y-9189360D01*
X5692209Y-9184335D01*
X5692209Y-9184335D01*
X5703718Y-9175719D01*
X5703719Y-9175718D01*
X5712335Y-9164209D01*
X5712335Y-9164209D01*
X5717360Y-9150738D01*
X5717360Y-9150737D01*
X5718000Y-9144782D01*
X5718000Y-9015000D01*
X5718000Y-9015000D01*
X5618000Y-9015000D01*
X5618000Y-9015000D01*
X5568000Y-9015000D01*
X5568000Y-9015000D01*
X5468000Y-9015000D01*
X5468000Y-9015000D01*
X5468000Y-9144782D01*
X5468000Y-9144782D01*
X5433492Y-9144782D01*
X5434050Y-9141975D01*
X5434050Y-8838025D01*
X5433823Y-8836883D01*
X5433823Y-8836883D01*
X5433492Y-8835218D01*
X5468000Y-8835218D01*
X5468000Y-8965000D01*
X5468000Y-8965000D01*
X5568000Y-8965000D01*
X5568000Y-8965000D01*
X5568000Y-8790000D01*
X5618000Y-8790000D01*
X5618000Y-8965000D01*
X5618000Y-8965000D01*
X5718000Y-8965000D01*
X5718000Y-8965000D01*
X5718000Y-8835218D01*
X5717360Y-8829263D01*
X5717360Y-8829262D01*
X5712335Y-8815791D01*
X5712335Y-8815791D01*
X5703719Y-8804282D01*
X5703718Y-8804281D01*
X5692209Y-8795665D01*
X5692209Y-8795665D01*
X5678738Y-8790640D01*
X5678737Y-8790640D01*
X5672782Y-8790000D01*
X5618000Y-8790000D01*
X5618000Y-8790000D01*
X5568000Y-8790000D01*
X5568000Y-8790000D01*
X5513218Y-8790000D01*
X5507263Y-8790640D01*
X5507262Y-8790640D01*
X5493791Y-8795665D01*
X5493791Y-8795665D01*
X5482282Y-8804281D01*
X5482281Y-8804282D01*
X5473665Y-8815791D01*
X5473665Y-8815791D01*
X5468640Y-8829262D01*
X5468640Y-8829263D01*
X5468000Y-8835218D01*
X5433492Y-8835218D01*
X5433361Y-8834562D01*
X5432887Y-8832177D01*
X5428455Y-8825545D01*
X5426019Y-8823917D01*
X5421823Y-8821113D01*
X5421823Y-8821113D01*
X5421823Y-8821113D01*
X5421823Y-8821113D01*
X5415976Y-8819950D01*
X5415975Y-8819950D01*
X5262025Y-8819950D01*
X5262025Y-8819950D01*
X5262024Y-8819950D01*
X5256177Y-8821113D01*
X5256177Y-8821113D01*
X5249545Y-8825545D01*
X5249545Y-8825545D01*
X5245113Y-8832177D01*
X5245113Y-8832177D01*
X5243950Y-8838024D01*
X5243950Y-8838025D01*
X5243950Y-9141975D01*
X5243950Y-9141976D01*
X5245113Y-9147823D01*
X5245113Y-9147823D01*
X5249545Y-9154455D01*
X5249545Y-9154455D01*
X5256177Y-9158887D01*
X5260623Y-9159771D01*
X5262024Y-9160050D01*
X5262025Y-9160050D01*
X5262025Y-9160050D01*
X5284050Y-9160050D01*
X5289869Y-9161941D01*
X5293466Y-9166891D01*
X5293950Y-9169950D01*
X5293950Y-9199931D01*
X5295475Y-9205622D01*
X5295475Y-9205622D01*
X5297020Y-9211389D01*
X5297020Y-9211389D01*
X5302951Y-9221661D01*
X5302951Y-9221661D01*
X5302951Y-9221661D01*
X5302951Y-9221661D01*
X5334501Y-9253211D01*
X5424239Y-9342950D01*
X5427017Y-9348401D01*
X5426060Y-9354445D01*
X5421733Y-9358771D01*
X5417239Y-9359850D01*
X5290652Y-9359850D01*
X5271989Y-9362806D01*
X5254017Y-9368645D01*
X5237180Y-9377224D01*
X5221893Y-9388331D01*
X5128431Y-9481793D01*
X5122544Y-9489895D01*
X5117324Y-9497080D01*
X5108745Y-9513917D01*
X5102906Y-9531889D01*
X5099950Y-9550552D01*
X5099950Y-9949448D01*
X5102906Y-9968111D01*
X5108745Y-9986083D01*
X5115489Y-9999319D01*
X5117324Y-10002920D01*
X5128431Y-10018207D01*
X5141793Y-10031569D01*
X5157080Y-10042676D01*
X5173917Y-10051255D01*
X5191888Y-10057094D01*
X5191888Y-10057094D01*
X5191889Y-10057094D01*
X5210552Y-10060050D01*
X5210552Y-10060050D01*
X5229448Y-10060050D01*
X5248112Y-10057094D01*
X5261991Y-10052585D01*
X5268109Y-10052584D01*
X5273059Y-10056181D01*
X5274950Y-10062000D01*
X5274950Y-10899917D01*
X5273059Y-10905736D01*
X5272050Y-10906917D01*
X5216353Y-10962614D01*
X5212068Y-10970036D01*
X5212068Y-10970036D01*
X5212068Y-10970036D01*
X5210020Y-10977679D01*
X5209850Y-10978315D01*
X5209850Y-11088115D01*
X5209850Y-11096685D01*
X5210264Y-11098231D01*
X5212068Y-11104964D01*
X5216353Y-11112386D01*
X5216353Y-11112386D01*
X5216354Y-11112386D01*
X5400814Y-11296847D01*
X5400815Y-11296847D01*
X5400815Y-11296847D01*
X5408236Y-11301132D01*
X5408236Y-11301132D01*
X5408237Y-11301132D01*
X5416148Y-11303252D01*
X5420586Y-11305814D01*
X5425622Y-11310850D01*
X5425622Y-11310851D01*
X5425622Y-11310851D01*
X5437034Y-11317439D01*
X5437034Y-11317439D01*
X5437035Y-11317440D01*
X5437035Y-11317440D01*
X5449764Y-11320850D01*
X5449764Y-11320850D01*
X5462942Y-11320850D01*
X5462943Y-11320850D01*
X5475672Y-11317440D01*
X5475672Y-11317439D01*
X5475672Y-11317439D01*
X5487084Y-11310851D01*
X5487084Y-11310851D01*
X5487085Y-11310850D01*
X5496403Y-11301532D01*
X5496942Y-11300599D01*
X5501489Y-11296505D01*
X5507574Y-11295865D01*
X5512516Y-11298549D01*
X5667050Y-11453083D01*
X5669828Y-11458535D01*
X5669950Y-11460083D01*
X5669950Y-11466589D01*
X5672958Y-11477815D01*
X5673361Y-11479319D01*
X5679950Y-11490731D01*
X5679950Y-11490731D01*
X5679950Y-11490731D01*
X5689269Y-11500050D01*
X5689269Y-11500050D01*
X5689269Y-11500050D01*
X5700681Y-11506639D01*
X5700681Y-11506639D01*
X5700681Y-11506639D01*
X5700681Y-11506639D01*
X5713411Y-11510050D01*
X5713411Y-11510050D01*
X5726589Y-11510050D01*
X5726589Y-11510050D01*
X5739319Y-11506639D01*
X5739319Y-11506639D01*
X5739319Y-11506639D01*
X5750731Y-11500050D01*
X5750731Y-11500050D01*
X5750731Y-11500050D01*
X5760050Y-11490731D01*
X5761247Y-11488658D01*
X5766639Y-11479319D01*
X5766639Y-11479319D01*
X5766639Y-11479319D01*
X5770050Y-11466589D01*
X5770050Y-11453411D01*
X5766639Y-11440681D01*
X5766639Y-11440681D01*
X5766639Y-11440681D01*
X5760050Y-11429269D01*
X5760050Y-11429269D01*
X5760050Y-11429269D01*
X5750731Y-11419950D01*
X5750731Y-11419950D01*
X5750731Y-11419950D01*
X5739319Y-11413361D01*
X5739319Y-11413361D01*
X5734380Y-11412037D01*
X5726589Y-11409950D01*
X5726589Y-11409950D01*
X5720083Y-11409950D01*
X5714264Y-11408059D01*
X5713083Y-11407050D01*
X5552850Y-11246817D01*
X5550072Y-11241365D01*
X5549950Y-11239816D01*
X5549950Y-11076666D01*
X5551841Y-11070847D01*
X5556791Y-11067250D01*
X5562412Y-11067103D01*
X5573411Y-11070050D01*
X5573411Y-11070050D01*
X5586589Y-11070050D01*
X5586589Y-11070050D01*
X5599319Y-11066639D01*
X5599319Y-11066639D01*
X5599319Y-11066639D01*
X5610731Y-11060050D01*
X5610731Y-11060050D01*
X5610731Y-11060050D01*
X5620050Y-11050731D01*
X5620443Y-11050050D01*
X5626639Y-11039319D01*
X5626639Y-11039319D01*
X5626639Y-11039319D01*
X5630050Y-11026589D01*
X5630050Y-11013411D01*
X5626639Y-11000681D01*
X5624029Y-10996161D01*
X5622757Y-10990176D01*
X5625246Y-10984587D01*
X5625601Y-10984213D01*
X5729364Y-10880450D01*
X5734816Y-10877672D01*
X5736364Y-10877550D01*
X7839285Y-10877550D01*
X7839285Y-10877550D01*
X7847564Y-10875332D01*
X7847564Y-10875332D01*
X7847564Y-10875332D01*
X7854986Y-10871047D01*
X7854986Y-10871047D01*
X7854986Y-10871047D01*
X8166046Y-10559986D01*
X8167558Y-10557368D01*
X8170332Y-10552564D01*
X8172550Y-10544285D01*
X8172550Y-10361230D01*
X8174441Y-10355411D01*
X8179391Y-10351815D01*
X8185012Y-10351667D01*
X8197636Y-10355050D01*
X8197636Y-10355050D01*
X8206300Y-10355050D01*
X8212119Y-10356941D01*
X8215715Y-10361891D01*
X8216200Y-10364950D01*
X8216200Y-10374089D01*
X8218024Y-10380897D01*
X8219611Y-10386819D01*
X8226200Y-10398231D01*
X8226200Y-10398231D01*
X8226200Y-10398231D01*
X8235519Y-10407550D01*
X8235519Y-10407550D01*
X8235519Y-10407550D01*
X8246931Y-10414139D01*
X8246931Y-10414139D01*
X8246931Y-10414139D01*
X8246931Y-10414139D01*
X8259661Y-10417550D01*
X8259661Y-10417550D01*
X8272839Y-10417550D01*
X8272839Y-10417550D01*
X8285569Y-10414139D01*
X8285569Y-10414139D01*
X8285569Y-10414139D01*
X8296981Y-10407550D01*
X8296981Y-10407550D01*
X8296981Y-10407550D01*
X8306300Y-10398231D01*
X8306381Y-10398091D01*
X8312889Y-10386819D01*
X8312889Y-10386819D01*
X8312889Y-10386819D01*
X8316300Y-10374089D01*
X8316300Y-10367584D01*
X8318191Y-10361764D01*
X8319200Y-10360583D01*
X8369633Y-10310150D01*
X8375085Y-10307372D01*
X8376633Y-10307250D01*
X8554548Y-10307250D01*
X8560367Y-10309141D01*
X8563964Y-10314091D01*
X8563964Y-10320209D01*
X8563122Y-10322100D01*
X8559611Y-10328181D01*
X8559009Y-10330429D01*
X8556200Y-10340911D01*
X8556200Y-10354089D01*
X8558290Y-10361891D01*
X8559611Y-10366819D01*
X8566200Y-10378231D01*
X8566200Y-10378231D01*
X8566200Y-10378231D01*
X8573974Y-10386006D01*
X8576752Y-10391457D01*
X8575795Y-10397500D01*
X8575548Y-10397956D01*
X8569611Y-10408238D01*
X8567337Y-10416725D01*
X8566200Y-10420968D01*
X8566200Y-10434146D01*
X8566892Y-10436728D01*
X8569611Y-10446876D01*
X8576200Y-10458288D01*
X8576200Y-10458288D01*
X8576200Y-10458289D01*
X8585519Y-10467607D01*
X8585519Y-10467607D01*
X8585519Y-10467608D01*
X8596931Y-10474196D01*
X8596931Y-10474196D01*
X8596931Y-10474196D01*
X8596931Y-10474196D01*
X8609661Y-10477607D01*
X8609661Y-10477607D01*
X8622839Y-10477607D01*
X8622839Y-10477607D01*
X8635569Y-10474196D01*
X8635569Y-10474196D01*
X8635569Y-10474196D01*
X8646981Y-10467608D01*
X8646981Y-10467607D01*
X8646981Y-10467607D01*
X8656300Y-10458289D01*
X8660664Y-10450731D01*
X8662889Y-10446876D01*
X8662889Y-10446876D01*
X8662889Y-10446876D01*
X8666300Y-10434146D01*
X8666300Y-10427641D01*
X8668191Y-10421822D01*
X8669200Y-10420640D01*
X8689490Y-10400350D01*
X8694942Y-10397572D01*
X8696491Y-10397450D01*
X8889584Y-10397450D01*
X8895404Y-10399341D01*
X8899000Y-10404291D01*
X8899147Y-10409912D01*
X8896200Y-10420911D01*
X8896200Y-10434089D01*
X8897601Y-10439319D01*
X8899611Y-10446819D01*
X8906200Y-10458231D01*
X8906200Y-10458231D01*
X8906200Y-10458231D01*
X8915519Y-10467550D01*
X8915519Y-10467550D01*
X8915519Y-10467550D01*
X8926931Y-10474139D01*
X8926931Y-10474139D01*
X8926931Y-10474139D01*
X8926931Y-10474139D01*
X8939661Y-10477550D01*
X8946167Y-10477550D01*
X8951986Y-10479441D01*
X8953167Y-10480450D01*
X9040899Y-10568181D01*
X9118567Y-10645850D01*
X9121345Y-10651301D01*
X9120388Y-10657345D01*
X9116061Y-10661671D01*
X9111567Y-10662750D01*
X9071634Y-10662750D01*
X9065814Y-10660859D01*
X9064633Y-10659850D01*
X8999200Y-10594417D01*
X8996422Y-10588965D01*
X8996300Y-10587417D01*
X8996300Y-10580911D01*
X8996300Y-10580911D01*
X8992889Y-10568181D01*
X8992889Y-10568181D01*
X8992889Y-10568181D01*
X8986300Y-10556769D01*
X8986300Y-10556769D01*
X8986300Y-10556769D01*
X8976981Y-10547450D01*
X8976981Y-10547450D01*
X8976981Y-10547450D01*
X8965569Y-10540861D01*
X8965569Y-10540861D01*
X8960630Y-10539538D01*
X8952839Y-10537450D01*
X8939661Y-10537450D01*
X8931870Y-10539538D01*
X8926931Y-10540861D01*
X8915519Y-10547450D01*
X8906200Y-10556769D01*
X8899611Y-10568181D01*
X8899611Y-10568181D01*
X8896200Y-10580911D01*
X8896200Y-10594089D01*
X8899208Y-10605315D01*
X8899611Y-10606819D01*
X8906200Y-10618231D01*
X8906200Y-10618231D01*
X8906200Y-10618231D01*
X8915519Y-10627550D01*
X8915519Y-10627550D01*
X8915519Y-10627550D01*
X8926931Y-10634139D01*
X8926931Y-10634139D01*
X8926931Y-10634139D01*
X8926931Y-10634139D01*
X8939661Y-10637550D01*
X8946167Y-10637550D01*
X8951986Y-10639441D01*
X8953167Y-10640450D01*
X9003667Y-10690950D01*
X9004719Y-10693015D01*
X9006082Y-10694891D01*
X9006082Y-10695690D01*
X9006445Y-10696401D01*
X9006082Y-10698691D01*
X9006082Y-10701009D01*
X9005612Y-10701656D01*
X9005488Y-10702445D01*
X9003848Y-10704084D01*
X9002486Y-10705959D01*
X9001726Y-10706206D01*
X9001161Y-10706771D01*
X8996667Y-10707850D01*
X8980327Y-10707850D01*
X8975377Y-10706524D01*
X8965569Y-10700861D01*
X8965569Y-10700861D01*
X8960630Y-10699538D01*
X8952839Y-10697450D01*
X8939661Y-10697450D01*
X8931870Y-10699538D01*
X8926931Y-10700861D01*
X8915519Y-10707450D01*
X8906200Y-10716769D01*
X8899611Y-10728181D01*
X8899611Y-10728181D01*
X8896200Y-10740911D01*
X8896200Y-10754089D01*
X8899208Y-10765315D01*
X8899611Y-10766819D01*
X8906200Y-10778231D01*
X8906200Y-10778231D01*
X8906200Y-10778231D01*
X8915519Y-10787550D01*
X8915519Y-10787550D01*
X8915519Y-10787550D01*
X8926931Y-10794139D01*
X8926931Y-10794139D01*
X8926931Y-10794139D01*
X8926931Y-10794139D01*
X8939661Y-10797550D01*
X8939661Y-10797550D01*
X8952839Y-10797550D01*
X8952839Y-10797550D01*
X8965569Y-10794139D01*
X8965569Y-10794139D01*
X8965569Y-10794139D01*
X8976981Y-10787550D01*
X8976981Y-10787550D01*
X8976981Y-10787550D01*
X8986300Y-10778231D01*
X8986492Y-10777900D01*
X8991039Y-10773806D01*
X8995065Y-10772950D01*
X9010867Y-10772950D01*
X9016686Y-10774841D01*
X9020282Y-10779791D01*
X9020282Y-10785909D01*
X9017867Y-10789850D01*
X8982827Y-10824891D01*
X8953167Y-10854550D01*
X8947715Y-10857328D01*
X8946167Y-10857450D01*
X8939661Y-10857450D01*
X8931870Y-10859538D01*
X8926931Y-10860861D01*
X8915519Y-10867450D01*
X8906200Y-10876769D01*
X8899611Y-10888181D01*
X8899611Y-10888181D01*
X8896200Y-10900911D01*
X8896200Y-10914089D01*
X8898108Y-10921209D01*
X8899611Y-10926819D01*
X8906200Y-10938231D01*
X8906200Y-10938231D01*
X8906200Y-10938231D01*
X8915519Y-10947550D01*
X8915519Y-10947550D01*
X8915519Y-10947550D01*
X8926931Y-10954139D01*
X8926931Y-10954139D01*
X8926931Y-10954139D01*
X8926931Y-10954139D01*
X8939661Y-10957550D01*
X8939661Y-10957550D01*
X8952839Y-10957550D01*
X8952839Y-10957550D01*
X8965569Y-10954139D01*
X8965569Y-10954139D01*
X8965569Y-10954139D01*
X8976981Y-10947550D01*
X8976981Y-10947550D01*
X8976981Y-10947550D01*
X8986300Y-10938231D01*
X8992889Y-10926819D01*
X8996300Y-10914089D01*
X8996300Y-10907583D01*
X8998191Y-10901764D01*
X8999200Y-10900583D01*
X9078833Y-10820950D01*
X9084285Y-10818172D01*
X9085833Y-10818050D01*
X9125767Y-10818050D01*
X9131586Y-10819941D01*
X9135182Y-10824891D01*
X9135182Y-10831009D01*
X9132767Y-10834950D01*
X8953167Y-11014550D01*
X8947715Y-11017328D01*
X8946167Y-11017450D01*
X8939661Y-11017450D01*
X8931870Y-11019538D01*
X8926931Y-11020861D01*
X8915519Y-11027450D01*
X8906200Y-11036769D01*
X8899611Y-11048181D01*
X8898821Y-11051129D01*
X8896200Y-11060911D01*
X8896200Y-11074089D01*
X8897369Y-11078450D01*
X8899611Y-11086819D01*
X8906200Y-11098231D01*
X8906200Y-11098231D01*
X8906200Y-11098231D01*
X8915519Y-11107550D01*
X8915519Y-11107550D01*
X8915519Y-11107550D01*
X8926931Y-11114139D01*
X8926931Y-11114139D01*
X8926931Y-11114139D01*
X8926931Y-11114139D01*
X8939661Y-11117550D01*
X8939661Y-11117550D01*
X8952839Y-11117550D01*
X8952839Y-11117550D01*
X8965569Y-11114139D01*
X8965569Y-11114139D01*
X8965569Y-11114139D01*
X8976981Y-11107550D01*
X8976981Y-11107550D01*
X8976981Y-11107550D01*
X8986300Y-11098231D01*
X8986300Y-11098231D01*
X8992889Y-11086819D01*
X8992889Y-11086819D01*
X8992889Y-11086819D01*
X8996300Y-11074089D01*
X8996300Y-11067584D01*
X8998191Y-11061764D01*
X8999200Y-11060583D01*
X9193733Y-10866050D01*
X9199185Y-10863272D01*
X9200734Y-10863150D01*
X9240667Y-10863150D01*
X9246486Y-10865041D01*
X9250082Y-10869991D01*
X9250082Y-10876109D01*
X9247667Y-10880050D01*
X8953167Y-11174550D01*
X8947715Y-11177328D01*
X8946167Y-11177450D01*
X8939661Y-11177450D01*
X8931870Y-11179538D01*
X8926931Y-11180861D01*
X8915519Y-11187450D01*
X8906200Y-11196769D01*
X8899611Y-11208181D01*
X8899611Y-11208181D01*
X8896200Y-11220911D01*
X8896200Y-11234089D01*
X8897588Y-11239269D01*
X8899611Y-11246819D01*
X8906200Y-11258231D01*
X8906200Y-11258231D01*
X8906200Y-11258231D01*
X8915519Y-11267550D01*
X8915519Y-11267550D01*
X8915519Y-11267550D01*
X8926931Y-11274139D01*
X8926931Y-11274139D01*
X8926931Y-11274139D01*
X8926931Y-11274139D01*
X8939661Y-11277550D01*
X8939661Y-11277550D01*
X8952839Y-11277550D01*
X8952839Y-11277550D01*
X8965569Y-11274139D01*
X8965569Y-11274139D01*
X8965569Y-11274139D01*
X8976981Y-11267550D01*
X8976981Y-11267550D01*
X8976981Y-11267550D01*
X8986300Y-11258231D01*
X8992889Y-11246819D01*
X8996300Y-11234089D01*
X8996300Y-11227583D01*
X8998191Y-11221764D01*
X8999200Y-11220583D01*
X9308633Y-10911150D01*
X9314085Y-10908372D01*
X9315634Y-10908250D01*
X9342617Y-10908250D01*
X9348436Y-10910141D01*
X9352032Y-10915091D01*
X9352032Y-10921209D01*
X9349617Y-10925150D01*
X8938335Y-11336432D01*
X8933897Y-11338994D01*
X8926931Y-11340861D01*
X8926931Y-11340861D01*
X8915519Y-11347450D01*
X8906200Y-11356769D01*
X8899611Y-11368181D01*
X8898393Y-11372726D01*
X8896200Y-11380911D01*
X8896200Y-11394089D01*
X8899208Y-11405315D01*
X8899611Y-11406819D01*
X8906200Y-11418231D01*
X8906200Y-11418231D01*
X8906200Y-11418231D01*
X8915519Y-11427550D01*
X8915519Y-11427550D01*
X8915519Y-11427550D01*
X8926931Y-11434139D01*
X8926931Y-11434139D01*
X8926931Y-11434139D01*
X8926931Y-11434139D01*
X8939661Y-11437550D01*
X8939661Y-11437550D01*
X8952839Y-11437550D01*
X8952839Y-11437550D01*
X8965569Y-11434139D01*
X8965569Y-11434139D01*
X8965569Y-11434139D01*
X8976981Y-11427550D01*
X8976981Y-11427550D01*
X8976981Y-11427550D01*
X8986300Y-11418231D01*
X8989112Y-11413361D01*
X8992889Y-11406819D01*
X8992889Y-11406819D01*
X8992889Y-11406819D01*
X8996300Y-11394089D01*
X8996300Y-11380911D01*
X8995586Y-11378247D01*
X8995906Y-11372137D01*
X8998148Y-11368684D01*
X9410583Y-10956250D01*
X9416035Y-10953472D01*
X9417584Y-10953350D01*
X9490467Y-10953350D01*
X9496286Y-10955241D01*
X9499882Y-10960191D01*
X9499882Y-10966309D01*
X9497467Y-10970250D01*
X9223800Y-11243917D01*
X8953167Y-11514550D01*
X8947715Y-11517328D01*
X8946167Y-11517450D01*
X8939661Y-11517450D01*
X8931870Y-11519537D01*
X8926931Y-11520861D01*
X8915519Y-11527450D01*
X8906200Y-11536769D01*
X8899611Y-11548181D01*
X8897704Y-11555298D01*
X8896200Y-11560911D01*
X8896200Y-11574089D01*
X8897328Y-11578299D01*
X8899611Y-11586819D01*
X8901770Y-11590559D01*
X8903043Y-11596544D01*
X8900554Y-11602133D01*
X8895255Y-11605193D01*
X8893197Y-11605409D01*
X5189279Y-11605409D01*
X5188503Y-11605379D01*
X5167876Y-11603755D01*
X5166341Y-11603512D01*
X5146602Y-11598773D01*
X5145124Y-11598293D01*
X5129714Y-11591910D01*
X5126369Y-11590525D01*
X5124985Y-11589819D01*
X5107676Y-11579213D01*
X5106419Y-11578299D01*
X5090983Y-11565115D01*
X5089885Y-11564017D01*
X5076701Y-11548580D01*
X5075788Y-11547324D01*
X5065180Y-11530014D01*
X5064476Y-11528631D01*
X5056707Y-11509875D01*
X5056227Y-11508398D01*
X5051487Y-11488658D01*
X5051245Y-11487125D01*
X5049621Y-11466497D01*
X5049591Y-11465720D01*
X5049591Y-8534279D01*
X5049621Y-8533503D01*
X5049961Y-8529190D01*
X5051245Y-8512875D01*
X5051487Y-8511342D01*
X5056227Y-8491601D01*
X5056706Y-8490125D01*
X5064476Y-8471368D01*
X5065180Y-8469987D01*
X5075788Y-8452675D01*
X5076700Y-8451420D01*
X5089885Y-8435983D01*
X5090983Y-8434885D01*
X5106420Y-8421700D01*
X5107675Y-8420788D01*
X5124987Y-8410180D01*
X5126368Y-8409476D01*
X5145125Y-8401706D01*
X5146601Y-8401227D01*
X5166342Y-8396487D01*
X5167875Y-8396245D01*
X5188503Y-8394621D01*
X5189280Y-8394591D01*
X5195480Y-8394591D01*
X5361050Y-8394591D01*
X5366869Y-8396482D01*
G37*
%TD.AperFunction*%
%TA.AperFunction,Conductor*%
G36*
X6258134Y-8396482D02*
G01*
X6261731Y-8401432D01*
X6261731Y-8407550D01*
X6258134Y-8412500D01*
X6257815Y-8412722D01*
X6251521Y-8416928D01*
X6251520Y-8416928D01*
X6240928Y-8427521D01*
X6240928Y-8427521D01*
X6232605Y-8439977D01*
X6232605Y-8439977D01*
X6226872Y-8453817D01*
X6226872Y-8453817D01*
X6223950Y-8468509D01*
X6223950Y-8483491D01*
X6226872Y-8498183D01*
X6226872Y-8498183D01*
X6232605Y-8512023D01*
X6232605Y-8512023D01*
X6235322Y-8516089D01*
X6240928Y-8524479D01*
X6251521Y-8535072D01*
X6263977Y-8543395D01*
X6277817Y-8549128D01*
X6292510Y-8552050D01*
X6292510Y-8552050D01*
X6307490Y-8552050D01*
X6307490Y-8552050D01*
X6322183Y-8549128D01*
X6336023Y-8543395D01*
X6348479Y-8535072D01*
X6359072Y-8524479D01*
X6367395Y-8512023D01*
X6373127Y-8498183D01*
X6376050Y-8483490D01*
X6376050Y-8468510D01*
X6373127Y-8453817D01*
X6367395Y-8439977D01*
X6367395Y-8439977D01*
X6363992Y-8434885D01*
X6359072Y-8427521D01*
X6348479Y-8416928D01*
X6342185Y-8412722D01*
X6338397Y-8407917D01*
X6338157Y-8401804D01*
X6341556Y-8396716D01*
X6347296Y-8394598D01*
X6347685Y-8394591D01*
X6852315Y-8394591D01*
X6858134Y-8396482D01*
X6861731Y-8401432D01*
X6861731Y-8407550D01*
X6858134Y-8412500D01*
X6857815Y-8412722D01*
X6851521Y-8416928D01*
X6851520Y-8416928D01*
X6840928Y-8427521D01*
X6840928Y-8427521D01*
X6832605Y-8439977D01*
X6832605Y-8439977D01*
X6826872Y-8453817D01*
X6826872Y-8453817D01*
X6823950Y-8468509D01*
X6823950Y-8483491D01*
X6826872Y-8498183D01*
X6826872Y-8498183D01*
X6832605Y-8512023D01*
X6832605Y-8512023D01*
X6835322Y-8516089D01*
X6840928Y-8524479D01*
X6851521Y-8535072D01*
X6863977Y-8543395D01*
X6877817Y-8549128D01*
X6892510Y-8552050D01*
X6892510Y-8552050D01*
X6907490Y-8552050D01*
X6907490Y-8552050D01*
X6922183Y-8549128D01*
X6936023Y-8543395D01*
X6948479Y-8535072D01*
X6959072Y-8524479D01*
X6967395Y-8512023D01*
X6970854Y-8503673D01*
X6974827Y-8499020D01*
X6980777Y-8497592D01*
X6986429Y-8499933D01*
X6989146Y-8503673D01*
X6992605Y-8512023D01*
X6992605Y-8512023D01*
X6995322Y-8516089D01*
X7000928Y-8524479D01*
X7011521Y-8535072D01*
X7023977Y-8543395D01*
X7037817Y-8549128D01*
X7052510Y-8552050D01*
X7052510Y-8552050D01*
X7067490Y-8552050D01*
X7067490Y-8552050D01*
X7082183Y-8549128D01*
X7096023Y-8543395D01*
X7108479Y-8535072D01*
X7119072Y-8524479D01*
X7127395Y-8512023D01*
X7133127Y-8498183D01*
X7136050Y-8483490D01*
X7136050Y-8468510D01*
X7133127Y-8453817D01*
X7127395Y-8439977D01*
X7127395Y-8439977D01*
X7123992Y-8434885D01*
X7119072Y-8427521D01*
X7108479Y-8416928D01*
X7102185Y-8412722D01*
X7098397Y-8407917D01*
X7098157Y-8401804D01*
X7101556Y-8396716D01*
X7107296Y-8394598D01*
X7107685Y-8394591D01*
X7612315Y-8394591D01*
X7618134Y-8396482D01*
X7621731Y-8401432D01*
X7621731Y-8407550D01*
X7618134Y-8412500D01*
X7617815Y-8412722D01*
X7611521Y-8416928D01*
X7611520Y-8416928D01*
X7600928Y-8427521D01*
X7600928Y-8427521D01*
X7592605Y-8439977D01*
X7592605Y-8439977D01*
X7586872Y-8453817D01*
X7586872Y-8453817D01*
X7583950Y-8468509D01*
X7583950Y-8483491D01*
X7586872Y-8498183D01*
X7586872Y-8498183D01*
X7592605Y-8512023D01*
X7592605Y-8512023D01*
X7595322Y-8516089D01*
X7600928Y-8524479D01*
X7611521Y-8535072D01*
X7623977Y-8543395D01*
X7637817Y-8549128D01*
X7652510Y-8552050D01*
X7652510Y-8552050D01*
X7667490Y-8552050D01*
X7667490Y-8552050D01*
X7682183Y-8549128D01*
X7696023Y-8543395D01*
X7708479Y-8535072D01*
X7719072Y-8524479D01*
X7727395Y-8512023D01*
X7733127Y-8498183D01*
X7736050Y-8483490D01*
X7736050Y-8468510D01*
X7733127Y-8453817D01*
X7727395Y-8439977D01*
X7727395Y-8439977D01*
X7723992Y-8434885D01*
X7719072Y-8427521D01*
X7708479Y-8416928D01*
X7702185Y-8412722D01*
X7698397Y-8407917D01*
X7698157Y-8401804D01*
X7701556Y-8396716D01*
X7707296Y-8394598D01*
X7707685Y-8394591D01*
X14804520Y-8394591D01*
X14810720Y-8394591D01*
X14811497Y-8394621D01*
X14832125Y-8396245D01*
X14833658Y-8396487D01*
X14853399Y-8401227D01*
X14854875Y-8401707D01*
X14873631Y-8409476D01*
X14875014Y-8410180D01*
X14892324Y-8420788D01*
X14893580Y-8421700D01*
X14900395Y-8427521D01*
X14909017Y-8434885D01*
X14910115Y-8435983D01*
X14923299Y-8451419D01*
X14924213Y-8452676D01*
X14934819Y-8469985D01*
X14935525Y-8471370D01*
X14943293Y-8490124D01*
X14943773Y-8491602D01*
X14948512Y-8511341D01*
X14948755Y-8512876D01*
X14950379Y-8533503D01*
X14950409Y-8534279D01*
X14950409Y-11465720D01*
X14950379Y-11466497D01*
X14948755Y-11487124D01*
X14948512Y-11488658D01*
X14943773Y-11508398D01*
X14943293Y-11509876D01*
X14935525Y-11528630D01*
X14934819Y-11530014D01*
X14924213Y-11547324D01*
X14923299Y-11548580D01*
X14910115Y-11564017D01*
X14909017Y-11565115D01*
X14893580Y-11578299D01*
X14892324Y-11579213D01*
X14875014Y-11589819D01*
X14873630Y-11590525D01*
X14854876Y-11598293D01*
X14853398Y-11598773D01*
X14833658Y-11603512D01*
X14832124Y-11603755D01*
X14813859Y-11605193D01*
X14811498Y-11605379D01*
X14810722Y-11605409D01*
X8999303Y-11605409D01*
X8993484Y-11603518D01*
X8989888Y-11598568D01*
X8989888Y-11592450D01*
X8990730Y-11590559D01*
X8992889Y-11586819D01*
X8992889Y-11586819D01*
X8992889Y-11586819D01*
X8996300Y-11574089D01*
X8996300Y-11567583D01*
X8998191Y-11561764D01*
X8999200Y-11560583D01*
X9558433Y-11001350D01*
X9563885Y-10998572D01*
X9565433Y-10998450D01*
X11203308Y-10998450D01*
X11209127Y-11000341D01*
X11212723Y-11005291D01*
X11212870Y-11010912D01*
X11209950Y-11021811D01*
X11209950Y-11034989D01*
X11211970Y-11042528D01*
X11213361Y-11047719D01*
X11219950Y-11059131D01*
X11219950Y-11059131D01*
X11219950Y-11059131D01*
X11229269Y-11068450D01*
X11229269Y-11068450D01*
X11229269Y-11068450D01*
X11240681Y-11075039D01*
X11240681Y-11075039D01*
X11240681Y-11075039D01*
X11240681Y-11075039D01*
X11253411Y-11078450D01*
X11253411Y-11078450D01*
X11266589Y-11078450D01*
X11266589Y-11078450D01*
X11269813Y-11077586D01*
X11275923Y-11077906D01*
X11280678Y-11081757D01*
X11281938Y-11084586D01*
X11284144Y-11092819D01*
X11290733Y-11104231D01*
X11290733Y-11104231D01*
X11290733Y-11104231D01*
X11300052Y-11113550D01*
X11300052Y-11113550D01*
X11300052Y-11113550D01*
X11311464Y-11120139D01*
X11311464Y-11120139D01*
X11311465Y-11120139D01*
X11311465Y-11120139D01*
X11324194Y-11123550D01*
X11324194Y-11123550D01*
X11337372Y-11123550D01*
X11337373Y-11123550D01*
X11350102Y-11120139D01*
X11350102Y-11120139D01*
X11350102Y-11120139D01*
X11361514Y-11113550D01*
X11361514Y-11113550D01*
X11361515Y-11113550D01*
X11370833Y-11104231D01*
X11376971Y-11093600D01*
X11381518Y-11089506D01*
X11385545Y-11088650D01*
X11416668Y-11088650D01*
X11422487Y-11090541D01*
X11426083Y-11095491D01*
X11426083Y-11101609D01*
X11423668Y-11105550D01*
X11421669Y-11107550D01*
X11419950Y-11109269D01*
X11419950Y-11109269D01*
X11413361Y-11120681D01*
X11411454Y-11127798D01*
X11409950Y-11133411D01*
X11409950Y-11146589D01*
X11412958Y-11157815D01*
X11413361Y-11159319D01*
X11419950Y-11170731D01*
X11419950Y-11170731D01*
X11419950Y-11170731D01*
X11429269Y-11180050D01*
X11429269Y-11180050D01*
X11429269Y-11180050D01*
X11440681Y-11186639D01*
X11440681Y-11186639D01*
X11440681Y-11186639D01*
X11440681Y-11186639D01*
X11453411Y-11190050D01*
X11453411Y-11190050D01*
X11466589Y-11190050D01*
X11466589Y-11190050D01*
X11479319Y-11186639D01*
X11479319Y-11186639D01*
X11479319Y-11186639D01*
X11490731Y-11180050D01*
X11490731Y-11180050D01*
X11490731Y-11180050D01*
X11500050Y-11170731D01*
X11506639Y-11159319D01*
X11510050Y-11146589D01*
X11510050Y-11143650D01*
X11511941Y-11137831D01*
X11516891Y-11134235D01*
X11519950Y-11133750D01*
X12000050Y-11133750D01*
X12005869Y-11135641D01*
X12009465Y-11140591D01*
X12009950Y-11143650D01*
X12009950Y-11146589D01*
X12012958Y-11157815D01*
X12013361Y-11159319D01*
X12019950Y-11170731D01*
X12019950Y-11170731D01*
X12019950Y-11170731D01*
X12029269Y-11180050D01*
X12029269Y-11180050D01*
X12029269Y-11180050D01*
X12040681Y-11186639D01*
X12040681Y-11186639D01*
X12040681Y-11186639D01*
X12040681Y-11186639D01*
X12053411Y-11190050D01*
X12053411Y-11190050D01*
X12066589Y-11190050D01*
X12066589Y-11190050D01*
X12079319Y-11186639D01*
X12079319Y-11186639D01*
X12079319Y-11186639D01*
X12090731Y-11180050D01*
X12090731Y-11180050D01*
X12090731Y-11180050D01*
X12100050Y-11170731D01*
X12106639Y-11159319D01*
X12110050Y-11146589D01*
X12110050Y-11133411D01*
X12106639Y-11120681D01*
X12106639Y-11120681D01*
X12106639Y-11120681D01*
X12100050Y-11109269D01*
X12100050Y-11109269D01*
X12100050Y-11109269D01*
X12096331Y-11105550D01*
X12093554Y-11100099D01*
X12094511Y-11094056D01*
X12098838Y-11089729D01*
X12103332Y-11088650D01*
X12783876Y-11088650D01*
X12783876Y-11088650D01*
X12792155Y-11086432D01*
X12792155Y-11086432D01*
X12792155Y-11086432D01*
X12799577Y-11082147D01*
X12799577Y-11082147D01*
X12799577Y-11082147D01*
X12966074Y-10915650D01*
X12971526Y-10912872D01*
X12973074Y-10912750D01*
X14247616Y-10912750D01*
X14253436Y-10914641D01*
X14254617Y-10915650D01*
X14384550Y-11045583D01*
X14387328Y-11051035D01*
X14387450Y-11052583D01*
X14387450Y-11417668D01*
X14385559Y-11423487D01*
X14384550Y-11424668D01*
X14379950Y-11429268D01*
X14379950Y-11429269D01*
X14373361Y-11440681D01*
X14373361Y-11440681D01*
X14369950Y-11453411D01*
X14369950Y-11466589D01*
X14372958Y-11477815D01*
X14373361Y-11479319D01*
X14379950Y-11490731D01*
X14379950Y-11490731D01*
X14379950Y-11490731D01*
X14389269Y-11500050D01*
X14389269Y-11500050D01*
X14389269Y-11500050D01*
X14400681Y-11506639D01*
X14400681Y-11506639D01*
X14400681Y-11506639D01*
X14400681Y-11506639D01*
X14413411Y-11510050D01*
X14413411Y-11510050D01*
X14426589Y-11510050D01*
X14426589Y-11510050D01*
X14439319Y-11506639D01*
X14439319Y-11506639D01*
X14439319Y-11506639D01*
X14450731Y-11500050D01*
X14450731Y-11500050D01*
X14450731Y-11500050D01*
X14460050Y-11490731D01*
X14461247Y-11488658D01*
X14466639Y-11479319D01*
X14466639Y-11479319D01*
X14466639Y-11479319D01*
X14470050Y-11466589D01*
X14470050Y-11453411D01*
X14466639Y-11440681D01*
X14466639Y-11440681D01*
X14466639Y-11440681D01*
X14460050Y-11429269D01*
X14460050Y-11429268D01*
X14455450Y-11424668D01*
X14452672Y-11419216D01*
X14452550Y-11417668D01*
X14452550Y-11047232D01*
X14454441Y-11041413D01*
X14459391Y-11037817D01*
X14465509Y-11037817D01*
X14468676Y-11039757D01*
X14468754Y-11039655D01*
X14469269Y-11040050D01*
X14480681Y-11046639D01*
X14480681Y-11046639D01*
X14480681Y-11046639D01*
X14480681Y-11046639D01*
X14493411Y-11050050D01*
X14493411Y-11050050D01*
X14506589Y-11050050D01*
X14506589Y-11050050D01*
X14519319Y-11046639D01*
X14519319Y-11046639D01*
X14519319Y-11046639D01*
X14530731Y-11040050D01*
X14530731Y-11040050D01*
X14530731Y-11040050D01*
X14540050Y-11030731D01*
X14545200Y-11021811D01*
X14546639Y-11019319D01*
X14546639Y-11019319D01*
X14546639Y-11019319D01*
X14550050Y-11006589D01*
X14550050Y-10993411D01*
X14546639Y-10980681D01*
X14546639Y-10980681D01*
X14546639Y-10980681D01*
X14540050Y-10969269D01*
X14540050Y-10969269D01*
X14540050Y-10969269D01*
X14530731Y-10959950D01*
X14530731Y-10959950D01*
X14530731Y-10959950D01*
X14519319Y-10953361D01*
X14519319Y-10953361D01*
X14514380Y-10952038D01*
X14506589Y-10949950D01*
X14493411Y-10949950D01*
X14485620Y-10952038D01*
X14480681Y-10953361D01*
X14469268Y-10959950D01*
X14469268Y-10959950D01*
X14469015Y-10960203D01*
X14468788Y-10960319D01*
X14468754Y-10960345D01*
X14468749Y-10960339D01*
X14463563Y-10962980D01*
X14457520Y-10962022D01*
X14455016Y-10960202D01*
X14382995Y-10888181D01*
X14303867Y-10809054D01*
X14303867Y-10809053D01*
X14303867Y-10809053D01*
X14303867Y-10809053D01*
X14296445Y-10804768D01*
X14296445Y-10804768D01*
X14293233Y-10803908D01*
X14288166Y-10802550D01*
X14288166Y-10802550D01*
X13547383Y-10802550D01*
X13541564Y-10800659D01*
X13537968Y-10795709D01*
X13537968Y-10789591D01*
X13540383Y-10785650D01*
X13905483Y-10420550D01*
X13910935Y-10417772D01*
X13912483Y-10417650D01*
X14500091Y-10417650D01*
X14505910Y-10419541D01*
X14509507Y-10424491D01*
X14509906Y-10426258D01*
X14509950Y-10426589D01*
X14513361Y-10439319D01*
X14519950Y-10450731D01*
X14519950Y-10450731D01*
X14519950Y-10450731D01*
X14529269Y-10460050D01*
X14529269Y-10460050D01*
X14529269Y-10460050D01*
X14540681Y-10466639D01*
X14540681Y-10466639D01*
X14540681Y-10466639D01*
X14540681Y-10466639D01*
X14553411Y-10470050D01*
X14553411Y-10470050D01*
X14566589Y-10470050D01*
X14566589Y-10470050D01*
X14579319Y-10466639D01*
X14579319Y-10466639D01*
X14579319Y-10466639D01*
X14590731Y-10460050D01*
X14590731Y-10460050D01*
X14590731Y-10460050D01*
X14593000Y-10457782D01*
X14598451Y-10455004D01*
X14604494Y-10455961D01*
X14607000Y-10457781D01*
X14609269Y-10460050D01*
X14609269Y-10460050D01*
X14609269Y-10460050D01*
X14620681Y-10466639D01*
X14620681Y-10466639D01*
X14620681Y-10466639D01*
X14620681Y-10466639D01*
X14633411Y-10470050D01*
X14633411Y-10470050D01*
X14646589Y-10470050D01*
X14646589Y-10470050D01*
X14659319Y-10466639D01*
X14659319Y-10466639D01*
X14659319Y-10466639D01*
X14663806Y-10464049D01*
X14670731Y-10460050D01*
X14673000Y-10457782D01*
X14678451Y-10455004D01*
X14684494Y-10455961D01*
X14687000Y-10457781D01*
X14689269Y-10460050D01*
X14689269Y-10460050D01*
X14689269Y-10460050D01*
X14700681Y-10466639D01*
X14700681Y-10466639D01*
X14700681Y-10466639D01*
X14700682Y-10466639D01*
X14713411Y-10470050D01*
X14713411Y-10470050D01*
X14726589Y-10470050D01*
X14726589Y-10470050D01*
X14737588Y-10467103D01*
X14743698Y-10467423D01*
X14748453Y-10471274D01*
X14750050Y-10476666D01*
X14750050Y-10679671D01*
X14748160Y-10685490D01*
X14747151Y-10686671D01*
X14733953Y-10699868D01*
X14733953Y-10699869D01*
X14729668Y-10707290D01*
X14729668Y-10707290D01*
X14729668Y-10707290D01*
X14728312Y-10712350D01*
X14728312Y-10712350D01*
X14727450Y-10715569D01*
X14727450Y-10957668D01*
X14725559Y-10963487D01*
X14724550Y-10964668D01*
X14719950Y-10969268D01*
X14719950Y-10969269D01*
X14713361Y-10980681D01*
X14711454Y-10987798D01*
X14710817Y-10990176D01*
X14709950Y-10993411D01*
X14709950Y-10995017D01*
X14708059Y-11000836D01*
X14703109Y-11004432D01*
X14696991Y-11004432D01*
X14693050Y-11002017D01*
X14417950Y-10726917D01*
X14415172Y-10721465D01*
X14415050Y-10719917D01*
X14415050Y-10713411D01*
X14414766Y-10712350D01*
X14411639Y-10700681D01*
X14411639Y-10700681D01*
X14411639Y-10700681D01*
X14405050Y-10689269D01*
X14405050Y-10689269D01*
X14405050Y-10689269D01*
X14395731Y-10679950D01*
X14395731Y-10679950D01*
X14395731Y-10679950D01*
X14384319Y-10673361D01*
X14384319Y-10673361D01*
X14379380Y-10672038D01*
X14371589Y-10669950D01*
X14358411Y-10669950D01*
X14350620Y-10672038D01*
X14345681Y-10673361D01*
X14334269Y-10679950D01*
X14324950Y-10689269D01*
X14318361Y-10700681D01*
X14318131Y-10701539D01*
X14314950Y-10713411D01*
X14314950Y-10726589D01*
X14315981Y-10730437D01*
X14318361Y-10739319D01*
X14324950Y-10750731D01*
X14324950Y-10750731D01*
X14324950Y-10750731D01*
X14334269Y-10760050D01*
X14334269Y-10760050D01*
X14334269Y-10760050D01*
X14345681Y-10766639D01*
X14345681Y-10766639D01*
X14345681Y-10766639D01*
X14345681Y-10766639D01*
X14358411Y-10770050D01*
X14364916Y-10770050D01*
X14370736Y-10771941D01*
X14371917Y-10772950D01*
X14824592Y-11225625D01*
X14827370Y-11231077D01*
X14826413Y-11237120D01*
X14825269Y-11238696D01*
X14825345Y-11238754D01*
X14824950Y-11239268D01*
X14818361Y-11250681D01*
X14818361Y-11250681D01*
X14814950Y-11263411D01*
X14814950Y-11276589D01*
X14817958Y-11287815D01*
X14818361Y-11289319D01*
X14824950Y-11300731D01*
X14824950Y-11300731D01*
X14824950Y-11300731D01*
X14834269Y-11310050D01*
X14834269Y-11310050D01*
X14834269Y-11310050D01*
X14845681Y-11316639D01*
X14845681Y-11316639D01*
X14845681Y-11316639D01*
X14845681Y-11316639D01*
X14858411Y-11320050D01*
X14858411Y-11320050D01*
X14871589Y-11320050D01*
X14871589Y-11320050D01*
X14884319Y-11316639D01*
X14884319Y-11316639D01*
X14884319Y-11316639D01*
X14895731Y-11310050D01*
X14895731Y-11310050D01*
X14895731Y-11310050D01*
X14905050Y-11300731D01*
X14907859Y-11295865D01*
X14911639Y-11289319D01*
X14911639Y-11289319D01*
X14911639Y-11289319D01*
X14915050Y-11276589D01*
X14915050Y-11263411D01*
X14911639Y-11250681D01*
X14911639Y-11250681D01*
X14911639Y-11250681D01*
X14905050Y-11239269D01*
X14905050Y-11239268D01*
X14900450Y-11234668D01*
X14897672Y-11229216D01*
X14897550Y-11227668D01*
X14897550Y-11215715D01*
X14897550Y-11215715D01*
X14895332Y-11207436D01*
X14895332Y-11207436D01*
X14895332Y-11207436D01*
X14893189Y-11203725D01*
X14893189Y-11203725D01*
X14891046Y-11200014D01*
X14884986Y-11193953D01*
X14884986Y-11193953D01*
X14757983Y-11066950D01*
X14755205Y-11061499D01*
X14756162Y-11055456D01*
X14760489Y-11051129D01*
X14764983Y-11050050D01*
X14766589Y-11050050D01*
X14766589Y-11050050D01*
X14779319Y-11046639D01*
X14779319Y-11046639D01*
X14779319Y-11046639D01*
X14790731Y-11040050D01*
X14790731Y-11040050D01*
X14790731Y-11040050D01*
X14800050Y-11030731D01*
X14805200Y-11021811D01*
X14806639Y-11019319D01*
X14806639Y-11019319D01*
X14806639Y-11019319D01*
X14810050Y-11006589D01*
X14810050Y-10993411D01*
X14806639Y-10980681D01*
X14806639Y-10980681D01*
X14806639Y-10980681D01*
X14800050Y-10969269D01*
X14800050Y-10969268D01*
X14795450Y-10964668D01*
X14792672Y-10959216D01*
X14792550Y-10957668D01*
X14792550Y-10737438D01*
X14794441Y-10731619D01*
X14795450Y-10730437D01*
X14801870Y-10724017D01*
X14802586Y-10723301D01*
X14802586Y-10723301D01*
X14808647Y-10717240D01*
X14812932Y-10709818D01*
X14815150Y-10701539D01*
X14815150Y-10692969D01*
X14815150Y-10692363D01*
X14815150Y-10692361D01*
X14815150Y-10389785D01*
X14815150Y-10389785D01*
X14813569Y-10383885D01*
X14812932Y-10381506D01*
X14808647Y-10374084D01*
X14765916Y-10331354D01*
X14765916Y-10331353D01*
X14765915Y-10331353D01*
X14765824Y-10331282D01*
X14764850Y-10330429D01*
X14713472Y-10279050D01*
X14658175Y-10223754D01*
X14658175Y-10223753D01*
X14658174Y-10223753D01*
X14650753Y-10219468D01*
X14650753Y-10219468D01*
X14647541Y-10218608D01*
X14642474Y-10217250D01*
X14642474Y-10217250D01*
X14511588Y-10217250D01*
X14505769Y-10215359D01*
X14502173Y-10210409D01*
X14502173Y-10204291D01*
X14504588Y-10200350D01*
X14528399Y-10176538D01*
X14701346Y-10003591D01*
X14703813Y-9999319D01*
X14705632Y-9996169D01*
X14707850Y-9987890D01*
X14707850Y-9762283D01*
X14709741Y-9756464D01*
X14710749Y-9755284D01*
X14828647Y-9637386D01*
X14832209Y-9631216D01*
X14832932Y-9629964D01*
X14832932Y-9629964D01*
X14832932Y-9629964D01*
X14835150Y-9621685D01*
X14835150Y-9613114D01*
X14835150Y-8579732D01*
X14837041Y-8573913D01*
X14838049Y-8572732D01*
X14840050Y-8570731D01*
X14846639Y-8559319D01*
X14850050Y-8546589D01*
X14850050Y-8533411D01*
X14846639Y-8520681D01*
X14846639Y-8520681D01*
X14846639Y-8520681D01*
X14840050Y-8509269D01*
X14840050Y-8509269D01*
X14840050Y-8509269D01*
X14830731Y-8499950D01*
X14830731Y-8499950D01*
X14830731Y-8499950D01*
X14819319Y-8493361D01*
X14819319Y-8493361D01*
X14814380Y-8492038D01*
X14806589Y-8489950D01*
X14793411Y-8489950D01*
X14785620Y-8492038D01*
X14780681Y-8493361D01*
X14769269Y-8499950D01*
X14759950Y-8509269D01*
X14753361Y-8520681D01*
X14753361Y-8520681D01*
X14749950Y-8533411D01*
X14749950Y-8546589D01*
X14751413Y-8552050D01*
X14753361Y-8559319D01*
X14759950Y-8570731D01*
X14759950Y-8570731D01*
X14759950Y-8570731D01*
X14767151Y-8577932D01*
X14769928Y-8583384D01*
X14770050Y-8584932D01*
X14770050Y-9523334D01*
X14768160Y-9529153D01*
X14763210Y-9532750D01*
X14757588Y-9532897D01*
X14751141Y-9531170D01*
X14746589Y-9529950D01*
X14733411Y-9529950D01*
X14726178Y-9531888D01*
X14720681Y-9533361D01*
X14709269Y-9539950D01*
X14707000Y-9542219D01*
X14701549Y-9544996D01*
X14695505Y-9544039D01*
X14693000Y-9542219D01*
X14690731Y-9539950D01*
X14690731Y-9539950D01*
X14690731Y-9539950D01*
X14679319Y-9533361D01*
X14679319Y-9533361D01*
X14673823Y-9531888D01*
X14666589Y-9529950D01*
X14653411Y-9529950D01*
X14646177Y-9531888D01*
X14640681Y-9533361D01*
X14629269Y-9539950D01*
X14627000Y-9542219D01*
X14621548Y-9544996D01*
X14615505Y-9544039D01*
X14613000Y-9542219D01*
X14610731Y-9539950D01*
X14610731Y-9539950D01*
X14610731Y-9539950D01*
X14599319Y-9533361D01*
X14599319Y-9533361D01*
X14593822Y-9531888D01*
X14586589Y-9529950D01*
X14573410Y-9529950D01*
X14566177Y-9531888D01*
X14560681Y-9533361D01*
X14549269Y-9539950D01*
X14549269Y-9539950D01*
X14549268Y-9539950D01*
X14549268Y-9539950D01*
X14544350Y-9544868D01*
X14538899Y-9547646D01*
X14532855Y-9546689D01*
X14528529Y-9542362D01*
X14527450Y-9537868D01*
X14527450Y-8587432D01*
X14529341Y-8581613D01*
X14530350Y-8580432D01*
X14530731Y-8580050D01*
X14530731Y-8580050D01*
X14540050Y-8570731D01*
X14546639Y-8559319D01*
X14550050Y-8546589D01*
X14550050Y-8533411D01*
X14546639Y-8520681D01*
X14546639Y-8520681D01*
X14546639Y-8520681D01*
X14540050Y-8509269D01*
X14540050Y-8509269D01*
X14540050Y-8509269D01*
X14530731Y-8499950D01*
X14530731Y-8499950D01*
X14530731Y-8499950D01*
X14519319Y-8493361D01*
X14519319Y-8493361D01*
X14514380Y-8492038D01*
X14506589Y-8489950D01*
X14493411Y-8489950D01*
X14485620Y-8492038D01*
X14480681Y-8493361D01*
X14469269Y-8499950D01*
X14459950Y-8509269D01*
X14453361Y-8520681D01*
X14453361Y-8520681D01*
X14449950Y-8533411D01*
X14449950Y-8546589D01*
X14451413Y-8552050D01*
X14453361Y-8559319D01*
X14459950Y-8570731D01*
X14460304Y-8571193D01*
X14462347Y-8576960D01*
X14462350Y-8577220D01*
X14462350Y-8949511D01*
X14460459Y-8955330D01*
X14455509Y-8958926D01*
X14449391Y-8958926D01*
X14447500Y-8958084D01*
X14439319Y-8953361D01*
X14435075Y-8952224D01*
X14426589Y-8949950D01*
X14413411Y-8949950D01*
X14405620Y-8952038D01*
X14400681Y-8953361D01*
X14389269Y-8959950D01*
X14379950Y-8969269D01*
X14373361Y-8980681D01*
X14373361Y-8980681D01*
X14369950Y-8993411D01*
X14369950Y-9006589D01*
X14372204Y-9015000D01*
X14373361Y-9019319D01*
X14379950Y-9030731D01*
X14379950Y-9030731D01*
X14379950Y-9030731D01*
X14389269Y-9040050D01*
X14389269Y-9040050D01*
X14389269Y-9040050D01*
X14400681Y-9046639D01*
X14400681Y-9046639D01*
X14400681Y-9046639D01*
X14400681Y-9046639D01*
X14409912Y-9049113D01*
X14415044Y-9052445D01*
X14417236Y-9058157D01*
X14417250Y-9058675D01*
X14417250Y-9872617D01*
X14415359Y-9878436D01*
X14414350Y-9879617D01*
X14350217Y-9943750D01*
X14344765Y-9946528D01*
X14343216Y-9946650D01*
X13731664Y-9946650D01*
X13731663Y-9946650D01*
X13731056Y-9946650D01*
X13722486Y-9946650D01*
X13716967Y-9948129D01*
X13714207Y-9948868D01*
X13711332Y-9950528D01*
X13711332Y-9950528D01*
X13706785Y-9953154D01*
X13700724Y-9959214D01*
X13700724Y-9959214D01*
X13311288Y-10348650D01*
X13305836Y-10351428D01*
X13304287Y-10351550D01*
X12754893Y-10351550D01*
X12754892Y-10351550D01*
X12754285Y-10351550D01*
X12745715Y-10351550D01*
X12745714Y-10351550D01*
X12737436Y-10353768D01*
X12737436Y-10353768D01*
X12730014Y-10358053D01*
X12723953Y-10364114D01*
X12723953Y-10364114D01*
X12563517Y-10524550D01*
X12558065Y-10527328D01*
X12556516Y-10527450D01*
X11528313Y-10527450D01*
X11522494Y-10525559D01*
X11521313Y-10524550D01*
X11495816Y-10499054D01*
X11495816Y-10499053D01*
X11488394Y-10494768D01*
X11488394Y-10494768D01*
X11485182Y-10493908D01*
X11480115Y-10492550D01*
X11480115Y-10492550D01*
X11442483Y-10492550D01*
X11436664Y-10490659D01*
X11433068Y-10485709D01*
X11433068Y-10479591D01*
X11435483Y-10475650D01*
X11572474Y-10338659D01*
X11577925Y-10335881D01*
X11579474Y-10335760D01*
X11761076Y-10335760D01*
X11761076Y-10335760D01*
X11769354Y-10333541D01*
X11769355Y-10333541D01*
X11769355Y-10333541D01*
X11776776Y-10329256D01*
X11776776Y-10329256D01*
X11776777Y-10329256D01*
X12019986Y-10086047D01*
X12019986Y-10086047D01*
X12026046Y-10079986D01*
X12029684Y-10073685D01*
X12030332Y-10072564D01*
X12032550Y-10064285D01*
X12032550Y-10055715D01*
X12032550Y-10055109D01*
X12032550Y-10055107D01*
X12032550Y-10022332D01*
X12034441Y-10016513D01*
X12035449Y-10015333D01*
X12040050Y-10010732D01*
X12040867Y-10009317D01*
X12046639Y-9999319D01*
X12046639Y-9999319D01*
X12046639Y-9999319D01*
X12050050Y-9986590D01*
X12050050Y-9973411D01*
X12046639Y-9960682D01*
X12046639Y-9960681D01*
X12046639Y-9960681D01*
X12040050Y-9949269D01*
X12040050Y-9949269D01*
X12040050Y-9949269D01*
X12037781Y-9947000D01*
X12035004Y-9941549D01*
X12035961Y-9935506D01*
X12037781Y-9933000D01*
X12040050Y-9930731D01*
X12046639Y-9919319D01*
X12050050Y-9906589D01*
X12050050Y-9893411D01*
X12046639Y-9880681D01*
X12046639Y-9880681D01*
X12046639Y-9880681D01*
X12040050Y-9869269D01*
X12040050Y-9869269D01*
X12040050Y-9869269D01*
X12030731Y-9859950D01*
X12030731Y-9859950D01*
X12030731Y-9859950D01*
X12019319Y-9853361D01*
X12019319Y-9853361D01*
X12014380Y-9852038D01*
X12006589Y-9849950D01*
X11993411Y-9849950D01*
X11985620Y-9852038D01*
X11980681Y-9853361D01*
X11969269Y-9859950D01*
X11959950Y-9869269D01*
X11953361Y-9880681D01*
X11949876Y-9893686D01*
X11947314Y-9898124D01*
X11882063Y-9963375D01*
X11882063Y-9963375D01*
X11877778Y-9970796D01*
X11877778Y-9970797D01*
X11877778Y-9970797D01*
X11876030Y-9977321D01*
X11876030Y-9977321D01*
X11875560Y-9979075D01*
X11875560Y-10070526D01*
X11873669Y-10076345D01*
X11872660Y-10077526D01*
X11841614Y-10108573D01*
X11836162Y-10111350D01*
X11830119Y-10110393D01*
X11826040Y-10106522D01*
X11820398Y-10096751D01*
X11811080Y-10087432D01*
X11811079Y-10087432D01*
X11811079Y-10087432D01*
X11799667Y-10080843D01*
X11799667Y-10080843D01*
X11796469Y-10079986D01*
X11794760Y-10079528D01*
X11789628Y-10076196D01*
X11787436Y-10070484D01*
X11787759Y-10067404D01*
X11789344Y-10061489D01*
X11789344Y-10048311D01*
X11785933Y-10035581D01*
X11785933Y-10035581D01*
X11785933Y-10035581D01*
X11779344Y-10024169D01*
X11779344Y-10024169D01*
X11779344Y-10024169D01*
X11770025Y-10014850D01*
X11770025Y-10014850D01*
X11770025Y-10014850D01*
X11758613Y-10008261D01*
X11758613Y-10008261D01*
X11754768Y-10007231D01*
X11749637Y-10003898D01*
X11747444Y-9998186D01*
X11747768Y-9995106D01*
X11750050Y-9986589D01*
X11750050Y-9973411D01*
X11746639Y-9960681D01*
X11746639Y-9960681D01*
X11746639Y-9960681D01*
X11740050Y-9949269D01*
X11740050Y-9949269D01*
X11740050Y-9949269D01*
X11730731Y-9939950D01*
X11730731Y-9939950D01*
X11730731Y-9939950D01*
X11719319Y-9933361D01*
X11719319Y-9933361D01*
X11714380Y-9932038D01*
X11706589Y-9929950D01*
X11693411Y-9929950D01*
X11685620Y-9932038D01*
X11680681Y-9933361D01*
X11669269Y-9939950D01*
X11669268Y-9939950D01*
X11664668Y-9944550D01*
X11659216Y-9947328D01*
X11657668Y-9947450D01*
X11561910Y-9947450D01*
X11557770Y-9948559D01*
X11553631Y-9949668D01*
X11546806Y-9953608D01*
X11546806Y-9953608D01*
X11546209Y-9953953D01*
X11546209Y-9953954D01*
X11156012Y-10344150D01*
X11150560Y-10346928D01*
X11149012Y-10347050D01*
X9350989Y-10347050D01*
X9345169Y-10345159D01*
X9343988Y-10344150D01*
X9230015Y-10230178D01*
X9113191Y-10113354D01*
X9113191Y-10113353D01*
X9113191Y-10113353D01*
X9113191Y-10113353D01*
X9105769Y-10109068D01*
X9105769Y-10109068D01*
X9102393Y-10108164D01*
X9097490Y-10106850D01*
X8213229Y-10106850D01*
X8204951Y-10109068D01*
X8197942Y-10113115D01*
X8197942Y-10113115D01*
X8197528Y-10113354D01*
X8068853Y-10242029D01*
X8068853Y-10242029D01*
X8064568Y-10249450D01*
X8064568Y-10249451D01*
X8062908Y-10255647D01*
X8062908Y-10255647D01*
X8062908Y-10255647D01*
X8062350Y-10257729D01*
X8062350Y-10377306D01*
X8061634Y-10379511D01*
X8061271Y-10381801D01*
X8060706Y-10382366D01*
X8060459Y-10383125D01*
X8058584Y-10384488D01*
X8056944Y-10386127D01*
X8056155Y-10386252D01*
X8055509Y-10386722D01*
X8053191Y-10386722D01*
X8050901Y-10387084D01*
X8050190Y-10386722D01*
X8049391Y-10386722D01*
X8045450Y-10384307D01*
X8043221Y-10382078D01*
X8040443Y-10376626D01*
X8040321Y-10375077D01*
X8040321Y-9969812D01*
X8042212Y-9963993D01*
X8043221Y-9962812D01*
X8093083Y-9912950D01*
X8098535Y-9910172D01*
X8100083Y-9910050D01*
X8106589Y-9910050D01*
X8106589Y-9910050D01*
X8119319Y-9906639D01*
X8119319Y-9906639D01*
X8119319Y-9906639D01*
X8130731Y-9900050D01*
X8130731Y-9900050D01*
X8130731Y-9900050D01*
X8140050Y-9890731D01*
X8146639Y-9879319D01*
X8150050Y-9866589D01*
X8150050Y-9853411D01*
X8146639Y-9840681D01*
X8146639Y-9840681D01*
X8146639Y-9840681D01*
X8140050Y-9829269D01*
X8140050Y-9829269D01*
X8140050Y-9829269D01*
X8130731Y-9819950D01*
X8130731Y-9819950D01*
X8130731Y-9819950D01*
X8119319Y-9813361D01*
X8119319Y-9813361D01*
X8112631Y-9811569D01*
X8106589Y-9809950D01*
X8093411Y-9809950D01*
X8087369Y-9811569D01*
X8080681Y-9813361D01*
X8069269Y-9819950D01*
X8059950Y-9829269D01*
X8053361Y-9840681D01*
X8049950Y-9853411D01*
X8049950Y-9859917D01*
X8048059Y-9865736D01*
X8047050Y-9866917D01*
X7981724Y-9932243D01*
X7977439Y-9939664D01*
X7977439Y-9939665D01*
X7975327Y-9947548D01*
X7975221Y-9947944D01*
X7975221Y-10375077D01*
X7973330Y-10380897D01*
X7972322Y-10382078D01*
X7967721Y-10386678D01*
X7967721Y-10386679D01*
X7961132Y-10398091D01*
X7961065Y-10398340D01*
X7957721Y-10410820D01*
X7957721Y-10423999D01*
X7958415Y-10426589D01*
X7961132Y-10436729D01*
X7967721Y-10448141D01*
X7967721Y-10448141D01*
X7967721Y-10448141D01*
X7977040Y-10457460D01*
X7977040Y-10457460D01*
X7977040Y-10457460D01*
X7988452Y-10464049D01*
X7988452Y-10464049D01*
X7988452Y-10464049D01*
X7988453Y-10464049D01*
X8001182Y-10467460D01*
X8001182Y-10467460D01*
X8014360Y-10467460D01*
X8014360Y-10467460D01*
X8027090Y-10464049D01*
X8027090Y-10464049D01*
X8027090Y-10464049D01*
X8038502Y-10457460D01*
X8038502Y-10457460D01*
X8038503Y-10457460D01*
X8045450Y-10450512D01*
X8050901Y-10447735D01*
X8056944Y-10448692D01*
X8061271Y-10453018D01*
X8062350Y-10457513D01*
X8062350Y-10503736D01*
X8060459Y-10509555D01*
X8059450Y-10510736D01*
X7805736Y-10764450D01*
X7800284Y-10767228D01*
X7798735Y-10767350D01*
X5704385Y-10767350D01*
X5695815Y-10767350D01*
X5690748Y-10768708D01*
X5687536Y-10769568D01*
X5680114Y-10773853D01*
X5491353Y-10962614D01*
X5487068Y-10970036D01*
X5487068Y-10970036D01*
X5487068Y-10970036D01*
X5485750Y-10974955D01*
X5485021Y-10977679D01*
X5485020Y-10977679D01*
X5484850Y-10978315D01*
X5484850Y-11213719D01*
X5482959Y-11219538D01*
X5478009Y-11223134D01*
X5472388Y-11223281D01*
X5462943Y-11220750D01*
X5449764Y-11220750D01*
X5439567Y-11223483D01*
X5437034Y-11224161D01*
X5432937Y-11226527D01*
X5426952Y-11227799D01*
X5421362Y-11225310D01*
X5420987Y-11224954D01*
X5277850Y-11081817D01*
X5277487Y-11081105D01*
X5276841Y-11080636D01*
X5276124Y-11078431D01*
X5275072Y-11076365D01*
X5274950Y-11074817D01*
X5274950Y-11071666D01*
X5276841Y-11065847D01*
X5281791Y-11062250D01*
X5287412Y-11062103D01*
X5298411Y-11065050D01*
X5298411Y-11065050D01*
X5311589Y-11065050D01*
X5311589Y-11065050D01*
X5324319Y-11061639D01*
X5324319Y-11061639D01*
X5324319Y-11061639D01*
X5335731Y-11055050D01*
X5335731Y-11055050D01*
X5335731Y-11055050D01*
X5345050Y-11045731D01*
X5351639Y-11034319D01*
X5351775Y-11033811D01*
X5354337Y-11029373D01*
X5401149Y-10982561D01*
X5403968Y-10977679D01*
X5405541Y-10974955D01*
X5405542Y-10974952D01*
X5405543Y-10974950D01*
X5407080Y-10972289D01*
X5410150Y-10960831D01*
X5410150Y-9853411D01*
X7529950Y-9853411D01*
X7529950Y-9866589D01*
X7531565Y-9872617D01*
X7533361Y-9879319D01*
X7539950Y-9890731D01*
X7539950Y-9890731D01*
X7539950Y-9890731D01*
X7549269Y-9900050D01*
X7549269Y-9900050D01*
X7549269Y-9900050D01*
X7560681Y-9906639D01*
X7560681Y-9906639D01*
X7560681Y-9906639D01*
X7560681Y-9906639D01*
X7573411Y-9910050D01*
X7573411Y-9910050D01*
X7586589Y-9910050D01*
X7586589Y-9910050D01*
X7599319Y-9906639D01*
X7599319Y-9906639D01*
X7599319Y-9906639D01*
X7610731Y-9900050D01*
X7610731Y-9900050D01*
X7610731Y-9900050D01*
X7620050Y-9890731D01*
X7626639Y-9879319D01*
X7630050Y-9866589D01*
X7630050Y-9860084D01*
X7631941Y-9854264D01*
X7632950Y-9853083D01*
X7650583Y-9835450D01*
X7656035Y-9832672D01*
X7657583Y-9832550D01*
X7783308Y-9832550D01*
X7789127Y-9834441D01*
X7792723Y-9839391D01*
X7792870Y-9845012D01*
X7789950Y-9855911D01*
X7789950Y-9869089D01*
X7791994Y-9876717D01*
X7793361Y-9881819D01*
X7799950Y-9893231D01*
X7799950Y-9893231D01*
X7799950Y-9893231D01*
X7804550Y-9897832D01*
X7807328Y-9903283D01*
X7807450Y-9904832D01*
X7807450Y-10202417D01*
X7805559Y-10208236D01*
X7804550Y-10209417D01*
X7746917Y-10267050D01*
X7741465Y-10269828D01*
X7739916Y-10269950D01*
X7733411Y-10269950D01*
X7725620Y-10272038D01*
X7720681Y-10273361D01*
X7709269Y-10279950D01*
X7699950Y-10289269D01*
X7693361Y-10300681D01*
X7692181Y-10305084D01*
X7689950Y-10313411D01*
X7689950Y-10326589D01*
X7691813Y-10333541D01*
X7693361Y-10339319D01*
X7699950Y-10350731D01*
X7699950Y-10350731D01*
X7699950Y-10350731D01*
X7709269Y-10360050D01*
X7709269Y-10360050D01*
X7709269Y-10360050D01*
X7720681Y-10366639D01*
X7720681Y-10366639D01*
X7720681Y-10366639D01*
X7720681Y-10366639D01*
X7733411Y-10370050D01*
X7733411Y-10370050D01*
X7746589Y-10370050D01*
X7746589Y-10370050D01*
X7759319Y-10366639D01*
X7759319Y-10366639D01*
X7759319Y-10366639D01*
X7770731Y-10360050D01*
X7770731Y-10360050D01*
X7770731Y-10360050D01*
X7780050Y-10350731D01*
X7782175Y-10347050D01*
X7786639Y-10339319D01*
X7786639Y-10339319D01*
X7786639Y-10339319D01*
X7790050Y-10326589D01*
X7790050Y-10320083D01*
X7791941Y-10314264D01*
X7792949Y-10313084D01*
X7818449Y-10287583D01*
X7823901Y-10284805D01*
X7829944Y-10285763D01*
X7834271Y-10290089D01*
X7835228Y-10296132D01*
X7834024Y-10299533D01*
X7833361Y-10300681D01*
X7833361Y-10300681D01*
X7833361Y-10300681D01*
X7829950Y-10313411D01*
X7829950Y-10326589D01*
X7831813Y-10333541D01*
X7833361Y-10339319D01*
X7839950Y-10350731D01*
X7839950Y-10350731D01*
X7839950Y-10350731D01*
X7849269Y-10360050D01*
X7849269Y-10360050D01*
X7849269Y-10360050D01*
X7860681Y-10366639D01*
X7860681Y-10366639D01*
X7860681Y-10366639D01*
X7860681Y-10366639D01*
X7873411Y-10370050D01*
X7873411Y-10370050D01*
X7886589Y-10370050D01*
X7886589Y-10370050D01*
X7899319Y-10366639D01*
X7899319Y-10366639D01*
X7899319Y-10366639D01*
X7910731Y-10360050D01*
X7910731Y-10360050D01*
X7910731Y-10360050D01*
X7920050Y-10350731D01*
X7922175Y-10347050D01*
X7926639Y-10339319D01*
X7926639Y-10339319D01*
X7926639Y-10339319D01*
X7930050Y-10326589D01*
X7930050Y-10320083D01*
X7931941Y-10314264D01*
X7932949Y-10313084D01*
X7946046Y-10299986D01*
X7946660Y-10298924D01*
X7950332Y-10292564D01*
X7952550Y-10284285D01*
X7952550Y-9835715D01*
X7950332Y-9827436D01*
X7946046Y-9820014D01*
X7945747Y-9819714D01*
X7939986Y-9813954D01*
X7899986Y-9773954D01*
X7899986Y-9773953D01*
X7892564Y-9769668D01*
X7892564Y-9769668D01*
X7889352Y-9768808D01*
X7884285Y-9767450D01*
X7644285Y-9767450D01*
X7635715Y-9767450D01*
X7630648Y-9768808D01*
X7627436Y-9769668D01*
X7620014Y-9773953D01*
X7620014Y-9773954D01*
X7586917Y-9807050D01*
X7581465Y-9809828D01*
X7579916Y-9809950D01*
X7573411Y-9809950D01*
X7567369Y-9811569D01*
X7560681Y-9813361D01*
X7549269Y-9819950D01*
X7539950Y-9829269D01*
X7533361Y-9840681D01*
X7533361Y-9840681D01*
X7529950Y-9853411D01*
X5410150Y-9853411D01*
X5410150Y-9746454D01*
X5412041Y-9740635D01*
X5413050Y-9739453D01*
X5479553Y-9672950D01*
X5485005Y-9670172D01*
X5486554Y-9670050D01*
X6306133Y-9670050D01*
X6315169Y-9667629D01*
X6315170Y-9667629D01*
X6316493Y-9667274D01*
X6317591Y-9666980D01*
X6327864Y-9661049D01*
X6341840Y-9647073D01*
X9644950Y-9647073D01*
X9644950Y-9792927D01*
X9645235Y-9795969D01*
X9645236Y-9795970D01*
X9649721Y-9808788D01*
X9657785Y-9819714D01*
X9657785Y-9819715D01*
X9657785Y-9819715D01*
X9657785Y-9819715D01*
X9657786Y-9819715D01*
X9668712Y-9827779D01*
X9668712Y-9827779D01*
X9668712Y-9827779D01*
X9681530Y-9832265D01*
X9684573Y-9832550D01*
X9684573Y-9832550D01*
X9684573Y-9832550D01*
X9815427Y-9832550D01*
X9815427Y-9832550D01*
X9818470Y-9832265D01*
X9831288Y-9827779D01*
X9842215Y-9819715D01*
X9850279Y-9808788D01*
X9854765Y-9795970D01*
X9855050Y-9792927D01*
X9855050Y-9792927D01*
X9855050Y-9647073D01*
X9855050Y-9647073D01*
X9854765Y-9644031D01*
X9854765Y-9644030D01*
X9850279Y-9631212D01*
X9843248Y-9621685D01*
X9842215Y-9620286D01*
X9842215Y-9620285D01*
X9842215Y-9620285D01*
X9842215Y-9620285D01*
X9842214Y-9620285D01*
X9831288Y-9612221D01*
X9818470Y-9607736D01*
X9818469Y-9607735D01*
X9815427Y-9607450D01*
X9815427Y-9607450D01*
X9792450Y-9607450D01*
X9786631Y-9605559D01*
X9783035Y-9600609D01*
X9782550Y-9597550D01*
X9782550Y-9200489D01*
X9784441Y-9194670D01*
X9787500Y-9191916D01*
X9790731Y-9190050D01*
X9800050Y-9180731D01*
X9801489Y-9178239D01*
X9806639Y-9169319D01*
X9806639Y-9169319D01*
X9806639Y-9169319D01*
X9810050Y-9156589D01*
X9810050Y-9143411D01*
X9806639Y-9130681D01*
X9806639Y-9130681D01*
X9806639Y-9130681D01*
X9800050Y-9119269D01*
X9800050Y-9119269D01*
X9800050Y-9119269D01*
X9790731Y-9109950D01*
X9790731Y-9109950D01*
X9790731Y-9109950D01*
X9779319Y-9103361D01*
X9779319Y-9103361D01*
X9774380Y-9102038D01*
X9766589Y-9099950D01*
X9753411Y-9099950D01*
X9745620Y-9102038D01*
X9740681Y-9103361D01*
X9729269Y-9109950D01*
X9719950Y-9119269D01*
X9713361Y-9130681D01*
X9711454Y-9137798D01*
X9709950Y-9143411D01*
X9709950Y-9156589D01*
X9712616Y-9166539D01*
X9713361Y-9169319D01*
X9716124Y-9174104D01*
X9717450Y-9179054D01*
X9717450Y-9597550D01*
X9715559Y-9603369D01*
X9710609Y-9606966D01*
X9707550Y-9607450D01*
X9684573Y-9607450D01*
X9681531Y-9607735D01*
X9681530Y-9607736D01*
X9668712Y-9612221D01*
X9657786Y-9620285D01*
X9657785Y-9620286D01*
X9649721Y-9631212D01*
X9645236Y-9644030D01*
X9645235Y-9644031D01*
X9644950Y-9647073D01*
X6341840Y-9647073D01*
X6790949Y-9197964D01*
X6796880Y-9187691D01*
X6797174Y-9186593D01*
X6797529Y-9185270D01*
X6797529Y-9185269D01*
X6799950Y-9176233D01*
X6799950Y-9084573D01*
X7867450Y-9084573D01*
X7867450Y-9215427D01*
X7867735Y-9218469D01*
X7867735Y-9218470D01*
X7872221Y-9231288D01*
X7880284Y-9242214D01*
X7880285Y-9242215D01*
X7880285Y-9242215D01*
X7880285Y-9242215D01*
X7880285Y-9242215D01*
X7891212Y-9250279D01*
X7891212Y-9250279D01*
X7891212Y-9250279D01*
X7904030Y-9254765D01*
X7907072Y-9255050D01*
X7907073Y-9255050D01*
X7907073Y-9255050D01*
X8052927Y-9255050D01*
X8052927Y-9255050D01*
X8055970Y-9254765D01*
X8068788Y-9250279D01*
X8079715Y-9242215D01*
X8087779Y-9231288D01*
X8092265Y-9218470D01*
X8092550Y-9215427D01*
X8092550Y-9215427D01*
X8092550Y-9084573D01*
X8092550Y-9084573D01*
X8487450Y-9084573D01*
X8487450Y-9215427D01*
X8487735Y-9218469D01*
X8487736Y-9218470D01*
X8492221Y-9231288D01*
X8500285Y-9242214D01*
X8500285Y-9242215D01*
X8500285Y-9242215D01*
X8500285Y-9242215D01*
X8500286Y-9242215D01*
X8511212Y-9250279D01*
X8511212Y-9250279D01*
X8511212Y-9250279D01*
X8524030Y-9254765D01*
X8527073Y-9255050D01*
X8527073Y-9255050D01*
X8527073Y-9255050D01*
X8672927Y-9255050D01*
X8672927Y-9255050D01*
X8675970Y-9254765D01*
X8688788Y-9250279D01*
X8699715Y-9242215D01*
X8707779Y-9231288D01*
X8712265Y-9218470D01*
X8712550Y-9215427D01*
X8712550Y-9215427D01*
X8712550Y-9084573D01*
X8712550Y-9084573D01*
X8712265Y-9081531D01*
X8712265Y-9081530D01*
X8707779Y-9068712D01*
X8705509Y-9065636D01*
X8699715Y-9057786D01*
X8699715Y-9057785D01*
X8699715Y-9057785D01*
X8699715Y-9057785D01*
X8699714Y-9057785D01*
X8688788Y-9049721D01*
X8675970Y-9045236D01*
X8675969Y-9045235D01*
X8672927Y-9044950D01*
X8672927Y-9044950D01*
X8527073Y-9044950D01*
X8527073Y-9044950D01*
X8524031Y-9045235D01*
X8524030Y-9045236D01*
X8511212Y-9049721D01*
X8500286Y-9057785D01*
X8500285Y-9057786D01*
X8492221Y-9068712D01*
X8487736Y-9081530D01*
X8487735Y-9081531D01*
X8487450Y-9084573D01*
X8092550Y-9084573D01*
X8092265Y-9081531D01*
X8092265Y-9081530D01*
X8087779Y-9068712D01*
X8085509Y-9065636D01*
X8079715Y-9057786D01*
X8079715Y-9057785D01*
X8079715Y-9057785D01*
X8079715Y-9057785D01*
X8079714Y-9057785D01*
X8068788Y-9049721D01*
X8055970Y-9045236D01*
X8055969Y-9045235D01*
X8052927Y-9044950D01*
X8052927Y-9044950D01*
X7907073Y-9044950D01*
X7907072Y-9044950D01*
X7904030Y-9045235D01*
X7904030Y-9045236D01*
X7891212Y-9049721D01*
X7880285Y-9057785D01*
X7880284Y-9057786D01*
X7872221Y-9068712D01*
X7867735Y-9081530D01*
X7867735Y-9081531D01*
X7867450Y-9084573D01*
X6799950Y-9084573D01*
X6799950Y-9044724D01*
X6801276Y-9039774D01*
X6801539Y-9039319D01*
X6804950Y-9026589D01*
X6804950Y-9013411D01*
X6801539Y-9000681D01*
X6801539Y-9000681D01*
X6801539Y-9000681D01*
X6794950Y-8989269D01*
X6794950Y-8989269D01*
X6794950Y-8989269D01*
X6785631Y-8979950D01*
X6785631Y-8979950D01*
X6785631Y-8979950D01*
X6774219Y-8973361D01*
X6774219Y-8973361D01*
X6769280Y-8972038D01*
X6761489Y-8969950D01*
X6748311Y-8969950D01*
X6738654Y-8972538D01*
X6735581Y-8973361D01*
X6734900Y-8973754D01*
X6728915Y-8975026D01*
X6723325Y-8972538D01*
X6720266Y-8967239D01*
X6720050Y-8965181D01*
X6720050Y-8860552D01*
X7239950Y-8860552D01*
X7239950Y-8879448D01*
X7242906Y-8898111D01*
X7248745Y-8916083D01*
X7254874Y-8928112D01*
X7257324Y-8932920D01*
X7268431Y-8948207D01*
X7311793Y-8991569D01*
X7327080Y-9002676D01*
X7343917Y-9011255D01*
X7361888Y-9017094D01*
X7361888Y-9017094D01*
X7361889Y-9017094D01*
X7380551Y-9020050D01*
X7380552Y-9020050D01*
X7380552Y-9020050D01*
X7970552Y-9020050D01*
X8590552Y-9020050D01*
X9870050Y-9020050D01*
X9875869Y-9021941D01*
X9879466Y-9026891D01*
X9879950Y-9029950D01*
X9879950Y-9729448D01*
X9882906Y-9748111D01*
X9888745Y-9766083D01*
X9897324Y-9782920D01*
X9897324Y-9782920D01*
X9908431Y-9798207D01*
X9921793Y-9811569D01*
X9937080Y-9822676D01*
X9953917Y-9831255D01*
X9971888Y-9837094D01*
X9971888Y-9837094D01*
X9971889Y-9837094D01*
X9990552Y-9840050D01*
X9990552Y-9840050D01*
X10009448Y-9840050D01*
X10028111Y-9837094D01*
X10028111Y-9837094D01*
X10028112Y-9837094D01*
X10046083Y-9831255D01*
X10062920Y-9822676D01*
X10078207Y-9811569D01*
X10091569Y-9798207D01*
X10102676Y-9782920D01*
X10106104Y-9776193D01*
X10110430Y-9771866D01*
X10116473Y-9770909D01*
X10121925Y-9773687D01*
X10124340Y-9777628D01*
X10124890Y-9779321D01*
X10134538Y-9798255D01*
X10147028Y-9815446D01*
X10162054Y-9830472D01*
X10179245Y-9842962D01*
X10198178Y-9852610D01*
X10218388Y-9859176D01*
X10225000Y-9860223D01*
X10225000Y-9860223D01*
X10225000Y-9754641D01*
X10233596Y-9759604D01*
X10244405Y-9762500D01*
X10255595Y-9762500D01*
X10266404Y-9759604D01*
X10275000Y-9754641D01*
X10275000Y-9860223D01*
X10281612Y-9859176D01*
X10301822Y-9852610D01*
X10320755Y-9842962D01*
X10337946Y-9830472D01*
X10352972Y-9815446D01*
X10365462Y-9798255D01*
X10375110Y-9779322D01*
X10381676Y-9759112D01*
X10383911Y-9745000D01*
X10284641Y-9745000D01*
X10289604Y-9736404D01*
X10292500Y-9725595D01*
X10292500Y-9714405D01*
X10289604Y-9703596D01*
X10284641Y-9695000D01*
X10383911Y-9695000D01*
X10381676Y-9680888D01*
X10375110Y-9660678D01*
X10365462Y-9641745D01*
X10352972Y-9624554D01*
X10337946Y-9609528D01*
X10320755Y-9597038D01*
X10301822Y-9587390D01*
X10281612Y-9580824D01*
X10275000Y-9579777D01*
X10275000Y-9685359D01*
X10266404Y-9680396D01*
X10255595Y-9677500D01*
X10244405Y-9677500D01*
X10233596Y-9680396D01*
X10225000Y-9685359D01*
X10225000Y-9579777D01*
X10225000Y-9579777D01*
X10218388Y-9580824D01*
X10218388Y-9580824D01*
X10198178Y-9587390D01*
X10179245Y-9597038D01*
X10162054Y-9609528D01*
X10147028Y-9624554D01*
X10137959Y-9637035D01*
X10133009Y-9640632D01*
X10126891Y-9640632D01*
X10121941Y-9637035D01*
X10120050Y-9631216D01*
X10120050Y-9084573D01*
X11167450Y-9084573D01*
X11167450Y-9215427D01*
X11167735Y-9218469D01*
X11167736Y-9218470D01*
X11172221Y-9231288D01*
X11180285Y-9242214D01*
X11180285Y-9242215D01*
X11180285Y-9242215D01*
X11180285Y-9242215D01*
X11180286Y-9242215D01*
X11191212Y-9250279D01*
X11191212Y-9250279D01*
X11191212Y-9250279D01*
X11204030Y-9254765D01*
X11207072Y-9255050D01*
X11207073Y-9255050D01*
X11207073Y-9255050D01*
X11352927Y-9255050D01*
X11352927Y-9255050D01*
X11355970Y-9254765D01*
X11368788Y-9250279D01*
X11379715Y-9242215D01*
X11387779Y-9231288D01*
X11392265Y-9218470D01*
X11392550Y-9215427D01*
X11392550Y-9215427D01*
X11392550Y-9084573D01*
X11392550Y-9084573D01*
X11392265Y-9081531D01*
X11392265Y-9081530D01*
X11387779Y-9068712D01*
X11385509Y-9065636D01*
X11379715Y-9057786D01*
X11379715Y-9057785D01*
X11379715Y-9057785D01*
X11379715Y-9057785D01*
X11379714Y-9057785D01*
X11368788Y-9049721D01*
X11355970Y-9045236D01*
X11355969Y-9045235D01*
X11352927Y-9044950D01*
X11352927Y-9044950D01*
X11207073Y-9044950D01*
X11207072Y-9044950D01*
X11204030Y-9045235D01*
X11204030Y-9045236D01*
X11191212Y-9049721D01*
X11180286Y-9057785D01*
X11180285Y-9057786D01*
X11172221Y-9068712D01*
X11167736Y-9081530D01*
X11167735Y-9081531D01*
X11167450Y-9084573D01*
X10120050Y-9084573D01*
X10120050Y-9029950D01*
X10121941Y-9024131D01*
X10126891Y-9020535D01*
X10129950Y-9020050D01*
X11289448Y-9020050D01*
X11308111Y-9017094D01*
X11308111Y-9017094D01*
X11308112Y-9017094D01*
X11326083Y-9011255D01*
X11342920Y-9002676D01*
X11358207Y-8991569D01*
X11371569Y-8978207D01*
X11382676Y-8962920D01*
X11391255Y-8946083D01*
X11397094Y-8928112D01*
X11397231Y-8927245D01*
X11400050Y-8909448D01*
X11400050Y-8890552D01*
X11397094Y-8871889D01*
X11397094Y-8871888D01*
X11391255Y-8853917D01*
X11382676Y-8837080D01*
X11371569Y-8821793D01*
X11358207Y-8808431D01*
X11342920Y-8797324D01*
X11342920Y-8797324D01*
X11342920Y-8797324D01*
X11336193Y-8793896D01*
X11331866Y-8789570D01*
X11330909Y-8783527D01*
X11333687Y-8778075D01*
X11337628Y-8775660D01*
X11339321Y-8775110D01*
X11358255Y-8765462D01*
X11375446Y-8752972D01*
X11390472Y-8737946D01*
X11402962Y-8720755D01*
X11412609Y-8701822D01*
X11419176Y-8681612D01*
X11420223Y-8675000D01*
X11314641Y-8675000D01*
X11319604Y-8666404D01*
X11322500Y-8655595D01*
X11322500Y-8644405D01*
X11319604Y-8633596D01*
X11314641Y-8625000D01*
X11420223Y-8625000D01*
X11420223Y-8625000D01*
X11419176Y-8618388D01*
X11412609Y-8598178D01*
X11402962Y-8579245D01*
X11390472Y-8562054D01*
X11375446Y-8547028D01*
X11358255Y-8534538D01*
X11339321Y-8524890D01*
X11319112Y-8518324D01*
X11305000Y-8516089D01*
X11305000Y-8615359D01*
X11296404Y-8610396D01*
X11285595Y-8607500D01*
X11274405Y-8607500D01*
X11263596Y-8610396D01*
X11255000Y-8615359D01*
X11255000Y-8516089D01*
X11255000Y-8516089D01*
X11240888Y-8518324D01*
X11220678Y-8524890D01*
X11201745Y-8534538D01*
X11184554Y-8547028D01*
X11169528Y-8562054D01*
X11157038Y-8579245D01*
X11147390Y-8598178D01*
X11140824Y-8618388D01*
X11139777Y-8625000D01*
X11139777Y-8625000D01*
X11245359Y-8625000D01*
X11240396Y-8633596D01*
X11237500Y-8644405D01*
X11237500Y-8655595D01*
X11240396Y-8666404D01*
X11245359Y-8675000D01*
X11139777Y-8675000D01*
X11140824Y-8681612D01*
X11147390Y-8701822D01*
X11157038Y-8720755D01*
X11169528Y-8737946D01*
X11184554Y-8752972D01*
X11197035Y-8762041D01*
X11200632Y-8766991D01*
X11200632Y-8773109D01*
X11197035Y-8778059D01*
X11191216Y-8779950D01*
X8688784Y-8779950D01*
X8682965Y-8778059D01*
X8679368Y-8773109D01*
X8679368Y-8766991D01*
X8682965Y-8762041D01*
X8695446Y-8752972D01*
X8710472Y-8737946D01*
X8722962Y-8720755D01*
X8732610Y-8701822D01*
X8739176Y-8681612D01*
X8740223Y-8675000D01*
X8634641Y-8675000D01*
X8639604Y-8666404D01*
X8642500Y-8655595D01*
X8642500Y-8644405D01*
X8639604Y-8633596D01*
X8634641Y-8625000D01*
X8740223Y-8625000D01*
X8740223Y-8625000D01*
X8739176Y-8618388D01*
X8732610Y-8598178D01*
X8722962Y-8579245D01*
X8710472Y-8562054D01*
X8695446Y-8547028D01*
X8678255Y-8534538D01*
X8659322Y-8524890D01*
X8639112Y-8518324D01*
X8625000Y-8516089D01*
X8625000Y-8615359D01*
X8616404Y-8610396D01*
X8605595Y-8607500D01*
X8594405Y-8607500D01*
X8583596Y-8610396D01*
X8575000Y-8615359D01*
X8575000Y-8516089D01*
X8575000Y-8516089D01*
X8560888Y-8518324D01*
X8540678Y-8524890D01*
X8521745Y-8534538D01*
X8504554Y-8547028D01*
X8489528Y-8562054D01*
X8477038Y-8579245D01*
X8467390Y-8598178D01*
X8460824Y-8618388D01*
X8459777Y-8625000D01*
X8459777Y-8625000D01*
X8565359Y-8625000D01*
X8560396Y-8633596D01*
X8557500Y-8644405D01*
X8557500Y-8655595D01*
X8560396Y-8666404D01*
X8565359Y-8675000D01*
X8459777Y-8675000D01*
X8460824Y-8681612D01*
X8467390Y-8701822D01*
X8477038Y-8720755D01*
X8489528Y-8737946D01*
X8504554Y-8752972D01*
X8517035Y-8762041D01*
X8520632Y-8766991D01*
X8520632Y-8773109D01*
X8517035Y-8778059D01*
X8511216Y-8779950D01*
X8068784Y-8779950D01*
X8062965Y-8778059D01*
X8059368Y-8773109D01*
X8059368Y-8766991D01*
X8062965Y-8762041D01*
X8075446Y-8752972D01*
X8090472Y-8737946D01*
X8102962Y-8720755D01*
X8112609Y-8701822D01*
X8119176Y-8681612D01*
X8120223Y-8675000D01*
X8014641Y-8675000D01*
X8019604Y-8666404D01*
X8022500Y-8655595D01*
X8022500Y-8644405D01*
X8019604Y-8633596D01*
X8014641Y-8625000D01*
X8120223Y-8625000D01*
X8120223Y-8625000D01*
X8119176Y-8618388D01*
X8112609Y-8598178D01*
X8102962Y-8579245D01*
X8090472Y-8562054D01*
X8075446Y-8547028D01*
X8058255Y-8534538D01*
X8039321Y-8524890D01*
X8019112Y-8518324D01*
X8005000Y-8516089D01*
X8005000Y-8615359D01*
X7996404Y-8610396D01*
X7985595Y-8607500D01*
X7974405Y-8607500D01*
X7963596Y-8610396D01*
X7955000Y-8615359D01*
X7955000Y-8516089D01*
X7955000Y-8516089D01*
X7940888Y-8518324D01*
X7920678Y-8524890D01*
X7901745Y-8534538D01*
X7884553Y-8547028D01*
X7869528Y-8562054D01*
X7857037Y-8579245D01*
X7847390Y-8598178D01*
X7840824Y-8618388D01*
X7839777Y-8625000D01*
X7839777Y-8625000D01*
X7945359Y-8625000D01*
X7940396Y-8633596D01*
X7937500Y-8644405D01*
X7937500Y-8655595D01*
X7940396Y-8666404D01*
X7945359Y-8675000D01*
X7839777Y-8675000D01*
X7840824Y-8681612D01*
X7847390Y-8701822D01*
X7857037Y-8720755D01*
X7869528Y-8737946D01*
X7884553Y-8752972D01*
X7897035Y-8762041D01*
X7900632Y-8766991D01*
X7900632Y-8773109D01*
X7897035Y-8778059D01*
X7891216Y-8779950D01*
X7443515Y-8779950D01*
X7437696Y-8778059D01*
X7422920Y-8767324D01*
X7422920Y-8767324D01*
X7422920Y-8767324D01*
X7406083Y-8758745D01*
X7388111Y-8752906D01*
X7369448Y-8749950D01*
X7369448Y-8749950D01*
X7350552Y-8749950D01*
X7350552Y-8749950D01*
X7331889Y-8752906D01*
X7313917Y-8758745D01*
X7297080Y-8767324D01*
X7281793Y-8778431D01*
X7268431Y-8791793D01*
X7257324Y-8807080D01*
X7248745Y-8823917D01*
X7242906Y-8841889D01*
X7239950Y-8860552D01*
X6720050Y-8860552D01*
X6717094Y-8841889D01*
X6717094Y-8841888D01*
X6711255Y-8823917D01*
X6702676Y-8807080D01*
X6691569Y-8791793D01*
X6678207Y-8778431D01*
X6662920Y-8767324D01*
X6662920Y-8767324D01*
X6662920Y-8767324D01*
X6646083Y-8758745D01*
X6628111Y-8752906D01*
X6609448Y-8749950D01*
X6609448Y-8749950D01*
X6590552Y-8749950D01*
X6590552Y-8749950D01*
X6571889Y-8752906D01*
X6553917Y-8758745D01*
X6537080Y-8767324D01*
X6521793Y-8778431D01*
X6508431Y-8791793D01*
X6497324Y-8807080D01*
X6488745Y-8823917D01*
X6482906Y-8841889D01*
X6479950Y-8860552D01*
X6479950Y-8998308D01*
X6478059Y-9004127D01*
X6473109Y-9007723D01*
X6467488Y-9007870D01*
X6458366Y-9005426D01*
X6456589Y-9004950D01*
X6443411Y-9004950D01*
X6437293Y-9006589D01*
X6430681Y-9008361D01*
X6419269Y-9014950D01*
X6409950Y-9024269D01*
X6403361Y-9035681D01*
X6403360Y-9035682D01*
X6403224Y-9036190D01*
X6400662Y-9040627D01*
X6385782Y-9055507D01*
X6383732Y-9057080D01*
X6382339Y-9057885D01*
X6382338Y-9057885D01*
X6302359Y-9137864D01*
X6296908Y-9140642D01*
X6290865Y-9139685D01*
X6286785Y-9135814D01*
X6280450Y-9124841D01*
X6280450Y-9124841D01*
X6280450Y-9124840D01*
X6275069Y-9119460D01*
X6272292Y-9114008D01*
X6273249Y-9107965D01*
X6277120Y-9103886D01*
X6285416Y-9099097D01*
X6294734Y-9089778D01*
X6295086Y-9089169D01*
X6301323Y-9078366D01*
X6301323Y-9078365D01*
X6301323Y-9078365D01*
X6304734Y-9065636D01*
X6304734Y-9059130D01*
X6304981Y-9058370D01*
X6304856Y-9057582D01*
X6305908Y-9055516D01*
X6306625Y-9053311D01*
X6307633Y-9052130D01*
X6308621Y-9051143D01*
X6308621Y-9051142D01*
X6309436Y-9050327D01*
X6309436Y-9050327D01*
X6315496Y-9044267D01*
X6319782Y-9036845D01*
X6320111Y-9035618D01*
X6322000Y-9028566D01*
X6322000Y-9019996D01*
X6322000Y-9019995D01*
X6322000Y-8839534D01*
X6322000Y-8839533D01*
X6322000Y-8830165D01*
X6322000Y-8830165D01*
X6319782Y-8821886D01*
X6319336Y-8821113D01*
X6318062Y-8818907D01*
X6318062Y-8818907D01*
X6317639Y-8818175D01*
X6315496Y-8814464D01*
X6309436Y-8808404D01*
X6309436Y-8808403D01*
X6232950Y-8731917D01*
X6230172Y-8726465D01*
X6230050Y-8724917D01*
X6230050Y-8718411D01*
X6230050Y-8718411D01*
X6226639Y-8705681D01*
X6226639Y-8705681D01*
X6226639Y-8705681D01*
X6220050Y-8694269D01*
X6220050Y-8694269D01*
X6220050Y-8694269D01*
X6210731Y-8684950D01*
X6210731Y-8684950D01*
X6210731Y-8684950D01*
X6202577Y-8680242D01*
X6199319Y-8678361D01*
X6199319Y-8678361D01*
X6194380Y-8677038D01*
X6186589Y-8674950D01*
X6173411Y-8674950D01*
X6165620Y-8677038D01*
X6160681Y-8678361D01*
X6149269Y-8684950D01*
X6148754Y-8685345D01*
X6148632Y-8685185D01*
X6143999Y-8687546D01*
X6137955Y-8686589D01*
X6133629Y-8682262D01*
X6132550Y-8677768D01*
X6132550Y-8642332D01*
X6134441Y-8636513D01*
X6135449Y-8635332D01*
X6140050Y-8630731D01*
X6140050Y-8630731D01*
X6146639Y-8619319D01*
X6146639Y-8619319D01*
X6146639Y-8619319D01*
X6150050Y-8606589D01*
X6150050Y-8593411D01*
X6146639Y-8580681D01*
X6146639Y-8580681D01*
X6146639Y-8580681D01*
X6140050Y-8569269D01*
X6140050Y-8569269D01*
X6140050Y-8569269D01*
X6130825Y-8560044D01*
X6473500Y-8560044D01*
X6473500Y-8579956D01*
X6476615Y-8599622D01*
X6482768Y-8618559D01*
X6491807Y-8636300D01*
X6491808Y-8636301D01*
X6494558Y-8640086D01*
X6550887Y-8583757D01*
X6552475Y-8589685D01*
X6559190Y-8601315D01*
X6568685Y-8610810D01*
X6580315Y-8617525D01*
X6586242Y-8619113D01*
X6529913Y-8675442D01*
X6529913Y-8675442D01*
X6533699Y-8678192D01*
X6533699Y-8678193D01*
X6551441Y-8687232D01*
X6570378Y-8693385D01*
X6590044Y-8696500D01*
X6609956Y-8696500D01*
X6629622Y-8693385D01*
X6648559Y-8687232D01*
X6666301Y-8678192D01*
X6670086Y-8675442D01*
X6613757Y-8619113D01*
X6619685Y-8617525D01*
X6631315Y-8610810D01*
X6640810Y-8601315D01*
X6647524Y-8589685D01*
X6649113Y-8583757D01*
X6705442Y-8640086D01*
X6708192Y-8636301D01*
X6717232Y-8618559D01*
X6723385Y-8599622D01*
X6726500Y-8579956D01*
X6726500Y-8560044D01*
X7233500Y-8560044D01*
X7233500Y-8579956D01*
X7236615Y-8599622D01*
X7242768Y-8618559D01*
X7251807Y-8636300D01*
X7251808Y-8636301D01*
X7254558Y-8640086D01*
X7310887Y-8583757D01*
X7312475Y-8589685D01*
X7319190Y-8601315D01*
X7328685Y-8610810D01*
X7340315Y-8617525D01*
X7346242Y-8619113D01*
X7289913Y-8675442D01*
X7289913Y-8675442D01*
X7293699Y-8678192D01*
X7293699Y-8678193D01*
X7311441Y-8687232D01*
X7330378Y-8693385D01*
X7350044Y-8696500D01*
X7369956Y-8696500D01*
X7389622Y-8693385D01*
X7408559Y-8687232D01*
X7426301Y-8678192D01*
X7430086Y-8675442D01*
X7373757Y-8619113D01*
X7379685Y-8617525D01*
X7391315Y-8610810D01*
X7400810Y-8601315D01*
X7407524Y-8589685D01*
X7409113Y-8583757D01*
X7465442Y-8640086D01*
X7468193Y-8636300D01*
X7474732Y-8623466D01*
X7474733Y-8623465D01*
X7477232Y-8618559D01*
X7483385Y-8599622D01*
X7486500Y-8579956D01*
X7486500Y-8560044D01*
X7483385Y-8540378D01*
X7477232Y-8521441D01*
X7468192Y-8503700D01*
X7468192Y-8503699D01*
X7465442Y-8499914D01*
X7465442Y-8499914D01*
X7409113Y-8556242D01*
X7407524Y-8550315D01*
X7400810Y-8538685D01*
X7391315Y-8529190D01*
X7379685Y-8522476D01*
X7373757Y-8520887D01*
X7430086Y-8464558D01*
X7426301Y-8461808D01*
X7426300Y-8461807D01*
X7408559Y-8452768D01*
X7389622Y-8446615D01*
X7369956Y-8443500D01*
X7350044Y-8443500D01*
X7330378Y-8446615D01*
X7311441Y-8452768D01*
X7293699Y-8461808D01*
X7289913Y-8464558D01*
X7346243Y-8520887D01*
X7340315Y-8522476D01*
X7328685Y-8529190D01*
X7319190Y-8538685D01*
X7312475Y-8550315D01*
X7310887Y-8556243D01*
X7254558Y-8499914D01*
X7251807Y-8503699D01*
X7242768Y-8521441D01*
X7236615Y-8540378D01*
X7233500Y-8560044D01*
X6726500Y-8560044D01*
X6723385Y-8540378D01*
X6717232Y-8521441D01*
X6708192Y-8503700D01*
X6708192Y-8503699D01*
X6705442Y-8499914D01*
X6705442Y-8499914D01*
X6649113Y-8556242D01*
X6647524Y-8550315D01*
X6640810Y-8538685D01*
X6631315Y-8529190D01*
X6619685Y-8522476D01*
X6613757Y-8520887D01*
X6670086Y-8464558D01*
X6666301Y-8461808D01*
X6666300Y-8461807D01*
X6648559Y-8452768D01*
X6629622Y-8446615D01*
X6609956Y-8443500D01*
X6590044Y-8443500D01*
X6570378Y-8446615D01*
X6551441Y-8452768D01*
X6533699Y-8461808D01*
X6529913Y-8464558D01*
X6586243Y-8520887D01*
X6580315Y-8522476D01*
X6568685Y-8529190D01*
X6559190Y-8538685D01*
X6552475Y-8550315D01*
X6550887Y-8556243D01*
X6494558Y-8499914D01*
X6491807Y-8503699D01*
X6482768Y-8521441D01*
X6476615Y-8540378D01*
X6473500Y-8560044D01*
X6130825Y-8560044D01*
X6130731Y-8559950D01*
X6130731Y-8559950D01*
X6130731Y-8559950D01*
X6119319Y-8553361D01*
X6119319Y-8553361D01*
X6114380Y-8552038D01*
X6106589Y-8549950D01*
X6093411Y-8549950D01*
X6081512Y-8553138D01*
X6075402Y-8552818D01*
X6070647Y-8548967D01*
X6069050Y-8543576D01*
X6069050Y-8404491D01*
X6070941Y-8398672D01*
X6075891Y-8395075D01*
X6078950Y-8394591D01*
X6252315Y-8394591D01*
X6258134Y-8396482D01*
G37*
%TD.AperFunction*%
%TD*%
M02*
